<?xml version="1.0" encoding="UTF-8"?><svg id="a" xmlns="http://www.w3.org/2000/svg" viewBox="0 0 195 259.76"><path d="M142.9,156.82c-.56-.17-1.16-.38-1.78-.61-.99-.37-1.25-.46-3.04-1.85h0c.28.32,2.13.82,3.96,1.11h.06c1.3.21,2.58.31,3.31.16,2.97-.59,2.47.84,2.3.92-1.24.53-2.87.75-4.22.45-.03,0-.05,0-.08-.02-.15-.05-.31-.1-.47-.14-.03,0-.05-.02-.07-.03Z" style="fill:#fff;"/><path d="M134.07,157.46h0c.22.37.5.73.97,1.11.18.14,1.83,1.46,2.04,2.12.14.42.29.97-.3,1.1-2.22.5-1.89-.77-3.98-1.64-1.97-.82-2.39-2.67-3.99-3.36-3.44-1.49-3.29-4.77-4.7-7.94-1.16-2.63-1.48-5.39-1.8-5.89l-.03-.15c1.67-.28,2.91-.68,4.71-1.64l.16.29c1.06,1.51.83,5.18,3.86,7.34,2.41,1.71,2.29,1.84,4.63,3.66,1.05.82,1.83,1.44,2.43,1.9,1.79,1.39,2.05,1.49,3.04,1.85.62.23,1.21.43,1.78.61.02,0,.04.02.07.03.15.06.31.1.47.14.03,0,.05,0,.08.02,2.93.86,4.69,1.06,3.19,1.89-1.02.56-1.08.12-4.34-.51-1.8-.35-1.6-.95-3.41-1.2-1.86-.24-1.77-.66-3.64-.66-1.78,0-1.31.49-1.24.94Z" style="fill:#fff;"/><path d="M138.1,154.35h0c-.61-.46-1.39-1.08-2.43-1.89h0c1.14.81,5.35,1.38,5.5,1.39,2.6.16,4.53-.05,4.76.24.59.76-1.22,1.58-3.8,1.38h-.06c-1.84-.29-3.68-.79-3.96-1.12Z" style="fill:#fff;"/><path d="M138.58,247.29c-.02.24.07,2.51-.08,2.62-.72.49-9.68,2.83-16.71.15-1.98-.76-3.47-1.98-3.86-2.56l-.17,1.01c-.53.04-5.48.07-8.16-1.37-.35-.19-.24-1.92-.16-4.36h.03c.17,1.4,2.55,2.39,4.51,2.33,4.27-.12,4.25.28,8,2.24,1.52.8,6.25,3.59,14.22,1.2,1.61-.49,2.19-.88,2.29-1.29l.1.02Z" style="fill:#838afa;"/><path d="M110.26,242.04c2.78,2.66,3.84,1.47,6.01,1.76.42.05,2.32-.06,5.91,2.24,3.27,2.11,6.77,2.03,7.38,2.05,6,.18,6.52-1.03,8.34-1.53.11-.02.22-.05.34-.07l.04-.02c.16.29.28.55.21.8-.1.4-.68.79-2.29,1.29-7.98,2.4-12.7-.39-14.22-1.2-3.75-1.96-3.73-2.37-8-2.24-1.95.06-4.34-.93-4.51-2.33-.05-.37.05-.76.36-1.17l.06.04c.13.13.26.27.38.39Z" style="fill:#2848f9;"/><path d="M120.1,240h2.27c.58.17.63.39,1.43,1.27,2.1,2.27,6.77,1.47,8.4.24l.35.08c1.53.7,6.73-1.7,5.33,4.92v.05c-1.81.49-2.33,1.71-8.33,1.53-.61-.02-4.12.06-7.38-2.05-3.59-2.31-5.49-2.19-5.91-2.24-2.17-.28-3.22.9-6.01-1.76-.13-1.24-.33-1.75.63-3.27,2.14-3.35,1.72-4.29,2.2-4.6.17-.11.33-.16.47-.16.96,0,1.16,2.35,1.23,2.79.45,2.68,3.43,2.49,5.02,3.15l.2-.07s.06.09.09.12Z" style="fill:#2848f9;"/><path d="M126.55,236.84c2.78,2.94,6.77,1.76,6.21,3.97-.06.24-.25.48-.55.71-1.63,1.23-6.31,2.02-8.4-.24-.81-.88-.85-1.11-1.43-1.26h-2.27s-.06-.09-.09-.13c-.34-.6-.5-2.15.33-2.78,1.11-.86,1.98-1.65,2.9-1.87.93-.22,1.93.15,3.31,1.61Z" style="fill:#2848f9;"/><path d="M111.79,122.54c-4.99,2.2-8.76,3.47-14.33,3.36v-.32c.1-1.55,1.07-16.35,1.04-19.43,0-.33,0-.65,0-.95-.04-9.61.95-9.84,1.35-20.09.11-2.88.29-5.42,1.02-11.47l.08-.1c.74.53,1.52.91,2.14.81,2.34-.37,3.49-1.65,5.65-3.89v-.39c2.17,0,4.2,0,6.05-.01v.49c7.11,3.34,11.17,5.59,10.89,27.6-.14,10.8,1.53,10.61,2.64,21.34.49,4.81,1.2,4.74.91,9.59-.11,1.65,1.18,3.31,1.34,3.93.13.47.14.5.02,6.07l-.23.1c-1.37.85-2.44,1.49-3.37,1.98-1.81.96-3.05,1.37-4.71,1.64-1.02.17-2.19.29-3.76.47l-.55.17c-2-6.23-4.12-13.13-6.17-20.84l-.03-.06Z" style="fill:#2848f9;"/><path d="M93.48,142.92l-.18.41c-5.21,33.89-3.49,43.75-3.49,43.91-.08,6.14,2.47,12.99,4.62,37.51l-.05.07c-.17.11-.81.63-1.94,1.14-1.45.66-3.73,1.28-6.86.98-1.51-.14-3.23-.52-5.16-1.2l-.14-.24c-2.12-13.93-1.69-14.39-3.19-22.05-2.9-14.78-2.9-15.85-2.17-25.3.41-5.32-8.12-21.38.32-56.66l.18-.34c3.91,1.92,10.47,4.1,20.67,4.69.47.02.94.05,1.38.06,5.57.11,9.34-1.16,14.33-3.36l.03.06c2.05,7.71,4.16,14.62,6.17,20.84,5.44,16.86,10.03,28.72,10.02,38.24,0,8.2-.8,8.07-1.51,21.87-.34,6.53.29,6.48.85,21.03l-.07.03c-1.47.82-3.14,1.39-4.9,1.7-2.42.43-5,.36-7.4-.19-1.77-.38-3.44-1.04-4.88-1.92l-.09-.14c.15-3.11,2.93-39.15,2.48-41.27,0-.05-1.05-1.2-1.23-2.63-.08-.66-.43-3.47-1.48-8.18-.06-.32-11.49-20.54-13.56-28.07-1.12-.38-2-.7-2.73-.99Z" style="fill:#838afa;"/><path d="M114.24,233.91c.1-.87.36-3.77.39-3.99.38-4.22.21-2.99.25-3.35l.11-.46c2.4.55,4.98.62,7.4.19l.03.15c-.08,1.08-.18-.34-.65,5.79-.02.24-.07.91,1.41,2.68l.07.3c-.92.22-1.79,1.01-2.9,1.87-.83.63-.67,2.19-.33,2.78l-.2.07c-1.58-.66-4.57-.47-5.02-3.15-.07-.43-.27-2.78-1.23-2.79l.67-.11Z" style="fill:#fff;"/><path d="M108.75,70.06v.39c-2.17,2.24-3.32,3.52-5.66,3.89-.61.1-1.4-.28-2.14-.81-1.27-.9-2.45-2.26-2.62-2.49v-.97c.25,0,.5,0,.75,0,3.36,0,6.64,0,9.67-.02Z" style="fill:#2848f9;"/><path d="M74.45,89.74l-.23-.03c-2.05-.47-18.22-4.04-23.72-9.5-2.88-2.86-6.95-11.09-8.98-22.34l-.13-.21c-.67-.63,1.85-2.37,4.89-4.09,2.72-1.53,5.86-3.02,7.48-3.63.38-.15.68-.24.87-.27.11,0,1.91,6.55,2.97,11.03l.04.03c2.99,3.26,3.01,3.49,4.07,7.81l.51.23c-.14.45-.27.86-.38,1.25,1.15.01,4.18.02,8.33.03,4.56.01,10.46.03,16.71.03v.31c5.44,5.12,6.84,4.88,11.37.8l.09-.14c.17.23,1.36,1.58,2.62,2.49l-.08.1c-.73,6.05-.91,8.59-1.02,11.47-.41,10.25-1.39,10.48-1.35,20.09,0,.3,0,.62,0,.95.03,3.09-.94,17.88-1.04,19.43v.32c-.44-.01-.91-.04-1.38-.06-10.2-.59-16.76-2.77-20.67-4.69-3.43-1.69-4.83-3.17-4.88-3.21v-.13c2.99-14.68,2.08-16.96,3.91-28.06ZM96.62,78.83c1.81,1.11,2.63-1.64.88-1.79-.99-.08-1.8,1.22-.88,1.79ZM96,89.02c1.57,1.1,2.28-1.63.76-1.77-.86-.08-1.56,1.21-.76,1.77ZM94.85,99.97c1.73,1.03,2.51-1.52.84-1.66-.95-.07-1.72,1.13-.84,1.66ZM94.72,111.6c1.65,1.11,2.41-1.64.8-1.79-.91-.08-1.65,1.22-.8,1.79ZM93.76,122.28c1.68.96,2.43-1.42.82-1.55-.92-.06-1.67,1.06-.82,1.55Z" style="fill:#2848f9;"/><path d="M98.32,245.27c0,2.22-3.58,3.14-4.11,2.84l-.45-.06c.07-.07.12-.11.13-.15.33-.73.09-2.85,0-3.07l-.12-.18c.69-.47,1.08-.71,2.18-.96,1.55-.35,1.7-.65,2.01-1.21,0-.03.03-.05.04-.07l.12.07s.21,2.09.21,2.8Z" style="fill:#838afa;"/><path d="M97.3,241.19c.84.02,1.02.56.69,1.21,0,.03-.03.05-.04.07-.31.56-.46.86-2.01,1.21-1.1.25-1.49.49-2.18.96-.13.09-.26.19-.41.3-2.75,1.94-2.59,2.27-4.12,3.14-3.63,2.07-9.58.97-9.62.97-1.83-.25-1.8-.37-2.65-.49-1.66-.24-2.28-.96-2.33-1.56-.06-.59.42-1.06.97-.82l.02-.02c.47.73,2.19,2.32,10.2,1.57,1.51-.15,3.04-1.04,4.26-1.95.26-.2.91-.64,1.81-1.67.88-.98,1.17-.81,2.38-1.35.73-.32,2.64-.24,2.93-1.46,0-.05.02-.08.02-.12h.09Z" style="fill:#2848f9;"/><ellipse cx="99.1" cy="48.09" rx=".73" ry=".72" transform="translate(50.15 146.76) rotate(-89.5)" style="fill:#fff;"/><path d="M96.34,237.88c.53,1.61,1.12,2.07.87,3.3,0,.04-.01.08-.02.12-.29,1.22-2.2,1.14-2.93,1.46-1.21.54-1.5.37-2.38,1.35-.91,1.03-1.55,1.47-1.81,1.67-1.21.91-2.74,1.8-4.26,1.95-8.01.76-9.73-.84-10.2-1.57-.07-.1-.11-.2-.14-.26-.4-.77-.18-1.8-.15-1.96.08-.33.69-2.49,3.48-2.48l.05-.05c.37.26,1.27.52,3.9.45,1.55-.04,1.54-.04,3.09-.03,3.09.04,3.7-.41,3.95-.61.61-.45.41-1.2.81-1.5l.83-1.64c.81-.11,3.5-1.3,3.9-1.87.4-.56.95,1.49,1.01,1.65Z" style="fill:#2848f9;"/><path d="M98.33,70.07v.97s-.09.14-.09.14c-4.53,4.08-5.93,4.32-11.38-.8v-.31c3.77,0,7.67,0,11.46,0Z" style="fill:#2848f9;"/><path d="M97.5,77.04c1.75.15.93,2.9-.88,1.79-.92-.57-.12-1.87.88-1.79Z" style="fill:#2848f9;"/><path d="M96.77,87.24c1.52.14.81,2.87-.76,1.77-.8-.56-.1-1.85.76-1.77Z" style="fill:#2848f9;"/><path d="M95.11,236.06l.22.18c-.41.57-3.09,1.76-3.9,1.87l-.22-.12c-.15-.03-.02-.26-1.71-.97-1.9-.8-1.92-.93-3.76-1.48l.04-.15s.85-1.53.68-2.63c-.4-2.76-.5-2.72-.93-5.47l.04-.33c3.14.3,5.41-.33,6.86-.98l.14.28c1.09,6.6.72,6.74,2.53,9.81Z" style="fill:#fff;"/><path d="M95.69,98.32c1.67.14.9,2.69-.84,1.66-.89-.53-.11-1.73.84-1.66Z" style="fill:#2848f9;"/><path d="M95.53,109.81c1.61.15.85,2.9-.8,1.79-.85-.57-.11-1.87.8-1.79Z" style="fill:#2848f9;"/><path d="M93.88,244.83c.09.22.33,2.34,0,3.07,0,.04-.06.08-.13.15h0c-.32.29-1.13.83-1.85,1.26-1.31.8-3.19,1.92-5.93,2.13-5.75.45-10.84-1.12-10.99-1.22-.59-.42-.48-3-.4-3.21h.04c.05.6.67,1.32,2.33,1.56.85.12.82.24,2.65.49.04,0,5.99,1.1,9.62-.97,1.54-.87,1.38-1.2,4.12-3.14.15-.11.29-.2.41-.3l.12.18Z" style="fill:#838afa;"/><path d="M94.58,120.73c1.62.13.86,2.5-.82,1.55-.85-.49-.1-1.61.82-1.55Z" style="fill:#2848f9;"/><path d="M91.43,238.1l-.83,1.64c-.4.3-.2,1.05-.81,1.5-.25.2-.86.64-3.95.61-1.55-.01-1.54-.01-3.09.03-2.63.07-3.53-.19-3.9-.45-.14-.1-.2-.2-.25-.27-.81-1.32,1.32-1.32,1.44-1.36,1.89-.58,1.52-1.93,1.47-2.35-.17-1.29.55-2.43,1.08-2.45,1.31-.03,2.71.39,2.93.46.08.02.15.05.22.07,1.84.55,1.86.68,3.76,1.48,1.69.71,1.55.94,1.71.97l.22.12Z" style="fill:#2848f9;"/><path d="M71.36,27.15v.13c-1,.67-1.36,1.59-2.41,2.09v-.03c0-1.35.21-1.74-.39-2.05v-.04s.16,0,.16,0c.26-.06,1.1,0,2.64-.09Z" style="fill:#2848f9;"/><path d="M61.98,19.46v-.13c-.63-.33-1.79-1.62-1.75-1.94-.18.23-.49.51-1.03.85-.37.22-1.59.62-1.51.96l.05.18c.05.48,2.17-.07,4.25.09ZM56.29,17.2c.81-.53,3.28-1.97,3.64-2.08,1.43-.48,2.01.58,2.14.85.1.22,1.5,1.85,1.81,2.57,0,.03.35.78,1.27,1.84l-.03.04c.11.07.23.13.35.21,1.16.72,1.55,1.39,1.36,2.09l-.16.02c.59.37,1.08.83.46,1.31-.43.33-.55-.32-3.37-.66-.79-.1-2.87.26-4.18.54,2.66-.25,7.05-.08,6.94.61-.03.19,0,.35-.03.48-.02.15-.13.24-.49.26-1.19.07-3.66.4-5.61.58-.24.03-.47.05-.69.07-.04,0-.07,0-.11,0-1.44.12-2.55.83-3.45,1.55-1.2.95-1.81,1.37-2.47,1.71-.65.33-1.35.6-2.68,1.24l-.08.07c-.35.15-.62.29-.83.46-1.22,1.01-.21,3.08,2.02,12.72.72,3.11.82,3.06,1.62,6.17l.05.12c-1.62.62-4.76,2.1-7.48,3.63l-.03-.06c-.14-1.08-.74-7.27-1.92-12.66-.68-3.09-1.24-9.62-1.21-9.93.43-5.16,4.61-5.98,10.04-11.64,1.6-1.67,2.6-1.77,3.1-2.1l.02.02Z" style="fill:#fff;"/><path d="M61.99,19.32v.13c-2.09-.16-4.21.39-4.26-.09l-.05-.18c-.08-.34,1.15-.73,1.51-.96.54-.33.85-.61,1.03-.85-.04.32,1.13,1.62,1.76,1.94Z" style="fill:#fff;"/><path d="M126.81,31c-.21,10.35.67,15.02.28,21.91-.43,7.32.03,11.64-.21,14.13-8.15.01-7.53-.07-15.68-.09l-.34-.52c6.19-3.84,10.34-10.69,10.4-18.53.06-6.8-2.96-12.91-7.76-17l.07-.07c3.65.03,12.05.11,13.2.16h.04Z" style="fill:#838afa;"/><path d="M120.03,28.05c-.09-.66-.11-1.34-.7-1.37-1.34-.07-2.27,1.98-1.39,2.43.71.36,1.31-.22,2.09-1.06ZM126.99,25.69v.23c-.09,1.84-.15,3.54-.18,5.09h-.04c-1.15-.05-9.55-.13-13.2-.16l-.07.07c-3.79-3.23-8.68-5.19-14.04-5.24v-.19c10.97.07,24.09.19,27.52.21Z" style="fill:#838afa; stroke:#fff; stroke-linecap:round; stroke-linejoin:round; stroke-width:.5px;"/><path d="M126.88,67.04c-.16,1.59-.59,2.44-1.72,2.86l-.43.05c-1.36.04-5.02.08-9.93.09-1.86.01-3.89.01-6.05.01-3.03.01-6.31.01-9.67.02v-.33c4.32.04,8.36-1.18,11.78-3.32l.34.52c8.15.02,7.53.1,15.68.09Z" style="fill:#838afa;"/><path d="M119.33,26.68c.58.03.61.71.7,1.37-.77.84-1.38,1.43-2.09,1.06-.88-.45.05-2.5,1.39-2.43Z" style="fill:#838afa; stroke:#fff; stroke-linecap:round; stroke-linejoin:round; stroke-width:.5px;"/><path d="M113.5,30.9c4.8,4.09,7.82,10.2,7.76,17-.07,7.84-4.22,14.69-10.4,18.53-3.42,2.14-7.46,3.36-11.78,3.32-3.79-.03-7.35-1.03-10.45-2.75-6.82-3.79-11.41-11.12-11.34-19.48.06-6.94,3.32-13.1,8.35-17.09,3.79-3.02,8.6-4.81,13.82-4.76,5.36.05,10.24,2.01,14.04,5.24ZM118.92,48.15c.09-10.88-8.63-19.79-19.49-19.89-10.86-.09-19.74,8.66-19.83,19.54-.09,10.87,8.63,19.79,19.49,19.89s19.74-8.67,19.83-19.54Z" style="fill:#838afa;"/><path d="M99.43,28.26c10.86.09,19.58,9,19.49,19.89-.09,10.87-8.98,19.64-19.83,19.54s-19.58-9.01-19.49-19.89c.09-10.88,8.98-19.64,19.83-19.54ZM114.45,48.2c.07-8.47-6.71-15.39-15.15-15.47s-15.35,6.73-15.42,15.2c-.07,8.46,6.71,15.39,15.15,15.47s15.35-6.74,15.42-15.2Z" style="fill:#838afa;"/><path d="M99.3,32.73c8.44.07,15.23,7,15.15,15.47-.07,8.46-6.98,15.27-15.42,15.2s-15.23-7.01-15.15-15.47c.07-8.47,6.98-15.27,15.42-15.2ZM107.66,48.16c.04-4.82-3.76-8.75-8.48-8.79s-8.6,3.83-8.64,8.64c-.04,4.81,3.76,8.75,8.49,8.79s8.59-3.84,8.63-8.64Z" style="fill:#838afa;"/><path d="M99.17,39.37c4.72.04,8.52,3.98,8.48,8.79-.04,4.81-3.91,8.69-8.63,8.64s-8.53-3.99-8.49-8.79c.04-4.82,3.91-8.69,8.64-8.64ZM99.82,48.09c0-.4-.32-.74-.71-.74s-.72.32-.72.73.31.74.71.74.72-.32.72-.73Z" style="fill:#2848f9;"/><path d="M99.08,69.75v.33c-.25,0-.5,0-.75,0-3.79,0-7.69,0-11.46,0-6.25,0-12.16-.02-16.71-.03v-.03c1.14-1.16,1.14-1.24,1.39-3.13,0-.02,0-.05.01-.08h0q1.29.03,16.14.19h.93c3.1,1.72,6.66,2.72,10.45,2.75Z" style="fill:#838afa;"/><path d="M71.36,27.15c-1.54.09-2.38.03-2.64.09h-.16q-.02-.43-.02-.47c-.02-.53-.03-.52-.06-1.04l-.14-.02s.04-.07.04-.1l.67.03c1.16-.09,1.15.19,14.51-.21,1.29-.04,8.06-.01,15.92.04v.19c-5.22-.05-10.03,1.74-13.82,4.76h0c-12.03-.13-12.92-.17-13.96-.03h-.12c.01-.15,0-.3,0-.44,0-1.27,0-2.18,0-2.61l-.2-.07v-.13ZM79.35,28.82c1.14-.4.57-2.11-.8-1.85h-.06c-1.59.41-.73,2.41.85,1.85Z" style="fill:#838afa; stroke:#fff; stroke-linecap:round; stroke-linejoin:round; stroke-width:.5px;"/><path d="M74.78,32.3c-1.74.6-1.1,2.17.15,2.55,1.53.46,1.76-1.29,1.73-1.52-.11-.66-1.1-1.35-1.88-1.02h0ZM88.63,67h-.93q-14.87-.18-16.14-.19h0s-.01.06-.01.08h-.06c.05-.29.07-26.97.07-36.49h.12c1.04-.14,1.93-.1,13.96.02h0c-5.03,4-8.29,10.16-8.35,17.1-.07,8.36,4.52,15.68,11.34,19.48Z" style="fill:#838afa;"/><path d="M78.56,26.97c1.37-.26,1.94,1.45.8,1.85-1.58.56-2.45-1.44-.85-1.85h.06Z" style="fill:#838afa; stroke:#fff; stroke-linecap:round; stroke-linejoin:round; stroke-width:.5px;"/><path d="M76.65,33.33c.04.23-.2,1.98-1.73,1.52-1.25-.38-1.89-1.95-.15-2.55h0c.78-.31,1.77.37,1.88,1.03Z" style="fill:#838afa;"/><path d="M71.49,66.87h.06c-.25,1.9-.25,1.98-1.39,3.14v.03c-4.15,0-7.18-.02-8.33-.03.12-.38.25-.8.38-1.25l-.51-.23c-1.05-4.32-1.08-4.54-4.07-7.81l-.04-.03c-1.05-4.49-2.85-11.03-2.97-11.03-.19.04-.49.13-.87.27l-.05-.12c-.81-3.1-.9-3.06-1.62-6.17-2.23-9.63-3.24-11.7-2.02-12.72,1.74.15,4.49.26,8.87.3,7.94.08,9.7.22,12.21-1.3h.41c0,.14,0,.3,0,.45,0,9.52-.02,36.2-.07,36.48Z" style="fill:#838afa;"/><path d="M59.15,29.49c3.25.12,5.97.15,7.54.22,1.03.05,1.72-.1,2.25-.34,1.06-.5,1.41-1.42,2.42-2.09l.2.07c0,.42,0,1.34,0,2.61h-.41c-2.51,1.51-4.26,1.37-12.21,1.29-4.38-.04-7.13-.16-8.87-.3.2-.18.48-.32.83-.46l.08-.07c1.34-.64,2.03-.9,2.68-1.24l.26.03c1.83.13,3.6.22,5.23.28Z" style="fill:#838afa;"/><path d="M68.55,27.28c.6.32.4.7.38,2.05v.03c-.52.24-1.21.38-2.24.34-1.57-.07-4.29-.09-7.54-.22.01-1.32-.17-1.69.42-2q.03-.48.03-.52c.03-.53.04-.52.08-1.04v-.02c.22-.02.45-.04.69-.07v.04c1.29,1.02,6.31.95,7.46.22.24-.15.42-.28.5-.39l.14.02c.02.52.03.51.06,1.04t.02.48v.04Z" style="fill:#838afa;"/><path d="M68.36,25.61s-.01.07-.04.1c-.08.11-.26.24-.5.39-1.15.72-6.16.79-7.46-.22v-.04c1.95-.18,4.43-.51,5.62-.58.36-.02.47-.11.49-.26h0c1.38.23,1.88.39,1.88.61Z" style="fill:#838afa;"/><path d="M59.68,25.91v.02c-.03.53-.04.52-.08,1.04t-.03.52c-.59.31-.41.68-.42,2-1.64-.06-3.41-.15-5.23-.28l-.26-.03c.65-.34,1.27-.76,2.47-1.71.9-.72,2.01-1.43,3.45-1.55.04,0,.07,0,.11,0Z" style="fill:#838afa;"/><path d="M75.63,83.33c-.49,2.45-.87,4.55-1.19,6.41-1.83,11.1-.92,13.39-3.92,28.06" style="fill:none; stroke:#121212; stroke-linecap:round; stroke-linejoin:round; stroke-width:.9px;"/><path d="M114.25,83.95c-.13,2.27-.26,3.57-.26,3.57,0,0,.01,4.28.69,9.59,1.45,11.44.96,11.61,3.07,22.74.02.12.05.24.06.36" style="fill:none; stroke:#121212; stroke-linecap:round; stroke-linejoin:round; stroke-width:.9px;"/><path d="M70.54,117.94c.06.04,1.45,1.52,4.88,3.21,3.91,1.92,10.47,4.1,20.67,4.69.47.02.94.05,1.38.06,5.57.11,9.34-1.16,14.33-3.36,1.78-.78,3.72-1.68,5.95-2.69.06-.03.11-.05.16-.07" style="fill:none; stroke:#121212; stroke-linecap:round; stroke-linejoin:round; stroke-width:.9px;"/><path d="M100.88,73.63c-.73,6.05-.91,8.59-1.02,11.47-.41,10.25-1.39,10.48-1.35,20.09,0,.3,0,.62,0,.95.03,3.09-.94,17.88-1.04,19.43" style="fill:none; stroke:#121212; stroke-linecap:round; stroke-linejoin:round; stroke-width:.9px;"/><path d="M86.87,70.39c5.44,5.12,6.84,4.88,11.38.8" style="fill:none; stroke:#121212; stroke-linecap:round; stroke-linejoin:round; stroke-width:.9px;"/><path d="M98.33,71.04c.17.23,1.36,1.58,2.62,2.49.74.53,1.52.91,2.14.81,2.34-.37,3.49-1.65,5.65-3.89" style="fill:none; stroke:#121212; stroke-linecap:round; stroke-linejoin:round; stroke-width:.9px;"/><path d="M75.06,70.47c.55,1.65,1.03,3.78,1.03,7.27" style="fill:none; stroke:#121212; stroke-linecap:round; stroke-linejoin:round; stroke-width:.9px;"/><path d="M41.39,57.67c-.67-.63,1.85-2.37,4.89-4.09,2.72-1.53,5.86-3.02,7.48-3.63.38-.15.68-.24.87-.27.11,0,1.91,6.55,2.97,11.03" style="fill:none; stroke:#121212; stroke-linecap:round; stroke-linejoin:round; stroke-width:.9px;"/><path d="M57.64,60.73c2.99,3.26,3.01,3.49,4.07,7.81" style="fill:none; stroke:#121212; stroke-linecap:round; stroke-linejoin:round; stroke-width:.9px;"/><path d="M62.21,68.77c-.14.45-.27.86-.38,1.25-1.25,3.97-1.41,4.36-3.14,8.99" style="fill:none; stroke:#121212; stroke-linecap:round; stroke-linejoin:round; stroke-width:.9px;"/><path d="M41.53,57.87c2.03,11.25,6.1,19.48,8.98,22.34,5.5,5.46,21.66,9.03,23.72,9.5" style="fill:none; stroke:#121212; stroke-linecap:round; stroke-linejoin:round; stroke-width:.9px;"/><path d="M118.69,72.65c-2.88,3.82-2.45,3.76-3.88,6.95" style="fill:none; stroke:#121212; stroke-linecap:round; stroke-linejoin:round; stroke-width:.9px;"/><path d="M114.8,70.54c7.1,3.34,11.16,5.59,10.88,27.6-.14,10.8,1.53,10.61,2.64,21.34.49,4.81,1.2,4.74.91,9.59-.11,1.65,1.18,3.31,1.34,3.93.13.47.14.5.02,6.07" style="fill:none; stroke:#121212; stroke-linecap:round; stroke-linejoin:round; stroke-width:.9px;"/><path d="M118.53,143.26c1.56-.17,2.74-.3,3.76-.47,1.67-.28,2.91-.68,4.71-1.64.92-.49,2-1.13,3.37-1.98" style="fill:none; stroke:#121212; stroke-linecap:round; stroke-linejoin:round; stroke-width:.9px;"/><path d="M121.63,134.58c2.5-.41,2.46-.48,4.85-1.26" style="fill:none; stroke:#121212; stroke-linecap:round; stroke-linejoin:round; stroke-width:.9px;"/><path d="M90.16,141.24c.52.28,1.2.82,3.33,1.68.73.29,1.61.62,2.73.99,2.07,7.52,13.5,27.75,13.56,28.07,1.05,4.7,1.4,7.52,1.48,8.18.18,1.42,1.22,2.58,1.23,2.63.45,2.11-2.32,38.15-2.48,41.27" style="fill:none; stroke:#121212; stroke-linecap:round; stroke-linejoin:round; stroke-width:.9px;"/><path d="M111.82,122.6c2.05,7.71,4.16,14.62,6.17,20.84,5.44,16.86,10.03,28.72,10.02,38.24,0,8.2-.8,8.07-1.51,21.87-.34,6.53.29,6.48.85,21.03" style="fill:none; stroke:#121212; stroke-linecap:round; stroke-linejoin:round; stroke-width:.9px;"/><path d="M75.24,121.49c-8.45,35.29.09,51.34-.32,56.66-.72,9.46-.72,10.53,2.17,25.3,1.49,7.66,1.07,8.12,3.19,22.05" style="fill:none; stroke:#121212; stroke-linecap:round; stroke-linejoin:round; stroke-width:.9px;"/><path d="M93.31,143.34c-5.21,33.89-3.49,43.75-3.49,43.91-.08,6.14,2.47,12.99,4.62,37.51" style="fill:none; stroke:#121212; stroke-linecap:round; stroke-linejoin:round; stroke-width:.9px;"/><path d="M79.2,189.53c1.88,1.89,3.75,3.77,5.62,5.66" style="fill:none; stroke:#121212; stroke-linecap:round; stroke-linejoin:round; stroke-width:.9px;"/><path d="M80.42,225.74c1.93.68,3.65,1.06,5.16,1.2,3.14.3,5.41-.33,6.86-.98,1.13-.51,1.77-1.03,1.94-1.14" style="fill:none; stroke:#121212; stroke-linecap:round; stroke-linejoin:round; stroke-width:.9px;"/><path d="M110.1,224.19c1.45.89,3.12,1.54,4.88,1.92,2.4.55,4.98.62,7.4.19,1.75-.3,3.43-.87,4.9-1.7" style="fill:none; stroke:#121212; stroke-linecap:round; stroke-linejoin:round; stroke-width:.9px;"/><path d="M85.54,227.27c.43,2.75.53,2.71.93,5.47.16,1.1-.67,2.59-.68,2.63" style="fill:none; stroke:#121212; stroke-linecap:round; stroke-linejoin:round; stroke-width:.9px;"/><path d="M92.58,226.24c1.09,6.6.72,6.74,2.53,9.81" style="fill:none; stroke:#121212; stroke-linecap:round; stroke-linejoin:round; stroke-width:.9px;"/><path d="M91.21,237.98c-.15-.03-.02-.26-1.71-.97-1.9-.8-1.92-.93-3.76-1.48-.07-.02-.14-.05-.22-.07-.23-.07-1.62-.48-2.93-.46-.54.01-1.25,1.16-1.08,2.45.05.41.42,1.77-1.47,2.35-.12.04-2.25.04-1.44,1.36.05.08.1.18.25.27.37.26,1.27.52,3.9.45,1.55-.04,1.54-.04,3.09-.03,3.09.04,3.7-.41,3.95-.61.61-.45.41-1.2.81-1.5" style="fill:none; stroke:#121212; stroke-linecap:round; stroke-linejoin:round; stroke-width:.9px;"/><path d="M78.8,241.47c-2.79,0-3.4,2.15-3.48,2.48-.03.16-.26,1.19.15,1.96.03.06.08.15.14.26.47.73,2.19,2.32,10.2,1.57,1.51-.15,3.04-1.04,4.26-1.95.26-.2.91-.64,1.81-1.67.88-.98,1.17-.81,2.38-1.35.73-.32,2.64-.24,2.93-1.46,0-.05.02-.08.02-.12.25-1.23-.34-1.69-.87-3.3-.06-.16-.61-2.21-1.01-1.65-.41.57-3.09,1.76-3.9,1.87" style="fill:none; stroke:#121212; stroke-linecap:round; stroke-linejoin:round; stroke-width:.9px;"/><path d="M75.59,246.19c-.55-.24-1.04.23-.97.82.05.6.67,1.32,2.33,1.56.85.12.82.24,2.65.49.04,0,5.99,1.1,9.62-.97,1.54-.87,1.38-1.2,4.12-3.14.15-.11.29-.2.41-.3.69-.47,1.08-.71,2.18-.96,1.55-.35,1.7-.65,2.01-1.21,0-.03.03-.05.04-.07.33-.65.15-1.19-.69-1.21" style="fill:none; stroke:#121212; stroke-linecap:round; stroke-linejoin:round; stroke-width:.9px;"/><path d="M74.58,247.01c-.08.22-.19,2.79.4,3.21.15.1,5.24,1.67,10.99,1.22,2.74-.21,4.62-1.33,5.93-2.13.72-.44,1.53-.97,1.85-1.26h0c.07-.07.12-.11.13-.15.33-.73.09-2.85,0-3.07" style="fill:none; stroke:#121212; stroke-linecap:round; stroke-linejoin:round; stroke-width:.9px;"/><path d="M98.2,242.86c-.05-.27-.07-.39-.09-.39-.04,0,.21,2.09.21,2.8,0,2.22-3.58,3.14-4.11,2.84" style="fill:none; stroke:#121212; stroke-linecap:round; stroke-linejoin:round; stroke-width:.9px;"/><path d="M50.9,30.48c-.35.15-.62.29-.83.46-1.22,1.01-.21,3.08,2.02,12.72.72,3.11.82,3.06,1.62,6.17" style="fill:none; stroke:#121212; stroke-linecap:round; stroke-linejoin:round; stroke-width:.9px;"/><path d="M50.98,30.41c1.34-.64,2.03-.9,2.68-1.24.65-.34,1.27-.76,2.47-1.71.9-.72,2.01-1.43,3.45-1.55.04,0,.07,0,.11,0,.22-.02.45-.04.69-.07,1.95-.18,4.43-.51,5.61-.58.36-.02.47-.11.49-.26.04-.13,0-.29.03-.48.1-.69-4.28-.86-6.94-.61-.55.05-1.02.12-1.36.2" style="fill:none; stroke:#121212; stroke-linecap:round; stroke-linejoin:round; stroke-width:.9px;"/><path d="M58.36,21.78c1.06-.27,5.62-.65,7.42.45.22.13.56.31.88.5.59.37,1.08.83.46,1.31-.43.33-.55-.32-3.37-.66-.79-.1-2.87.26-4.18.54" style="fill:none; stroke:#121212; stroke-linecap:round; stroke-linejoin:round; stroke-width:.9px;"/><path d="M57.73,19.36c.05.48,2.17-.07,4.25.09.18,0,.36.02.55.05.33.05,1.14.08,2.59.9.11.07.23.13.35.21,1.16.72,1.55,1.39,1.36,2.09" style="fill:none; stroke:#121212; stroke-linecap:round; stroke-linejoin:round; stroke-width:.9px;"/><path d="M56.05,17.38s.11-.09.24-.18c.81-.53,3.28-1.97,3.64-2.08,1.43-.48,2.01.58,2.14.85.1.22,1.5,1.85,1.81,2.57,0,.03.35.78,1.27,1.84" style="fill:none; stroke:#121212; stroke-linecap:round; stroke-linejoin:round; stroke-width:.9px;"/><path d="M57.68,19.18c-.08-.34,1.15-.73,1.51-.96.54-.33.85-.61,1.03-.85.19-.21.28-.39.37-.5" style="fill:none; stroke:#121212; stroke-linecap:round; stroke-linejoin:round; stroke-width:.9px;"/><path d="M60.23,17.34s0,.02,0,.04c-.04.32,1.13,1.62,1.76,1.94" style="fill:none; stroke:#121212; stroke-linecap:round; stroke-linejoin:round; stroke-width:.9px;"/><path d="M56.46,17.03c-.06.06-.12.11-.19.16-.5.32-1.5.43-3.1,2.1-5.43,5.66-9.61,6.48-10.04,11.64-.03.32.52,6.84,1.21,9.93,1.18,5.39,1.78,11.58,1.92,12.66" style="fill:none; stroke:#121212; stroke-linecap:round; stroke-linejoin:round; stroke-width:.9px;"/><path d="M46.83,63.83c.21-.16.23-.13,2.84-1.71" style="fill:none; stroke:#121212; stroke-linecap:round; stroke-linejoin:round; stroke-width:.9px;"/><path d="M96.77,87.24c-.86-.08-1.56,1.21-.76,1.77,1.57,1.1,2.28-1.63.76-1.77Z" style="fill:none; stroke:#121212; stroke-linecap:round; stroke-linejoin:round; stroke-width:.9px;"/><path d="M95.69,98.32c-.95-.07-1.72,1.13-.84,1.66,1.73,1.03,2.51-1.52.84-1.66Z" style="fill:none; stroke:#121212; stroke-linecap:round; stroke-linejoin:round; stroke-width:.9px;"/><path d="M95.53,109.81c-.91-.08-1.65,1.22-.8,1.79,1.65,1.11,2.41-1.64.8-1.79Z" style="fill:none; stroke:#121212; stroke-linecap:round; stroke-linejoin:round; stroke-width:.9px;"/><path d="M94.58,120.73c-.92-.06-1.67,1.06-.82,1.55,1.68.96,2.43-1.42.82-1.55Z" style="fill:none; stroke:#121212; stroke-linecap:round; stroke-linejoin:round; stroke-width:.9px;"/><path d="M97.5,77.04c-.99-.08-1.8,1.22-.88,1.79,1.81,1.11,2.63-1.64.88-1.79Z" style="fill:none; stroke:#121212; stroke-linecap:round; stroke-linejoin:round; stroke-width:.9px;"/><path d="M114.88,226.58c-.04.36.13-.87-.25,3.35-.03.22-.29,3.11-.39,3.99-.01.06-.01.11-.02.15" style="fill:none; stroke:#121212; stroke-linecap:round; stroke-linejoin:round; stroke-width:.9px;"/><path d="M109.88,241.65c.13.13.26.27.38.39,2.78,2.66,3.84,1.47,6.01,1.76.42.05,2.32-.06,5.91,2.24,3.27,2.11,6.77,2.03,7.38,2.05,6,.18,6.52-1.03,8.34-1.53.11-.02.22-.05.34-.07" style="fill:none; stroke:#121212; stroke-linecap:round; stroke-linejoin:round; stroke-width:.9px;"/><path d="M110.07,241.32c-.1.09-.17.2-.24.29-.31.41-.42.81-.36,1.17.17,1.4,2.55,2.39,4.51,2.33,4.27-.12,4.25.28,8,2.24,1.52.8,6.25,3.59,14.22,1.2,1.61-.49,2.19-.88,2.29-1.29.07-.25-.05-.51-.21-.8-.04-.06-.07-.11-.1-.17" style="fill:none; stroke:#121212; stroke-linecap:round; stroke-linejoin:round; stroke-width:.9px;"/><path d="M109.43,242.79c-.08,2.44-.19,4.17.16,4.36,2.69,1.43,7.64,1.41,8.16,1.37l.17-1.01c.4.59,1.88,1.8,3.86,2.56,7.02,2.69,15.98.35,16.71-.15.15-.11.06-2.38.08-2.62" style="fill:none; stroke:#121212; stroke-linecap:round; stroke-linejoin:round; stroke-width:.9px;"/><path d="M122.41,226.46c-.08,1.08-.18-.34-.65,5.79-.02.24-.07.91,1.41,2.68" style="fill:none; stroke:#121212; stroke-linecap:round; stroke-linejoin:round; stroke-width:.9px;"/><path d="M120.19,240.08s-.06-.05-.09-.08c-.03-.04-.06-.08-.09-.12-.34-.6-.5-2.15.33-2.78,1.11-.86,1.98-1.65,2.9-1.87.93-.22,1.93.15,3.31,1.61,2.78,2.94,6.77,1.76,6.21,3.97-.06.24-.25.48-.55.71-1.63,1.23-6.31,2.02-8.4-.24-.81-.88-.85-1.11-1.43-1.26" style="fill:none; stroke:#121212; stroke-linecap:round; stroke-linejoin:round; stroke-width:.9px;"/><path d="M119.82,239.95c-1.58-.66-4.57-.47-5.02-3.15-.07-.43-.27-2.78-1.23-2.79-.14,0-.3.04-.47.16-.48.31-.06,1.25-2.2,4.6-.96,1.52-.76,2.03-.63,3.27,0,.02,0,.05,0,.07" style="fill:none; stroke:#121212; stroke-linecap:round; stroke-linejoin:round; stroke-width:.9px;"/><path d="M132.56,241.59c1.53.7,6.73-1.7,5.33,4.92" style="fill:none; stroke:#121212; stroke-linecap:round; stroke-linejoin:round; stroke-width:.9px;"/><path d="M134.07,157.46s0-.02-.02-.03" style="fill:none; stroke:#121212; stroke-linecap:round; stroke-linejoin:round; stroke-width:.9px;"/><path d="M122.32,142.95c.31.5.63,3.27,1.8,5.89,1.41,3.17,1.26,6.45,4.7,7.94,1.6.69,2.02,2.55,3.99,3.36,2.09.87,1.76,2.14,3.98,1.64.59-.13.44-.68.3-1.1-.21-.66-1.86-1.98-2.04-2.12-.47-.38-.75-.74-.97-1.1" style="fill:none; stroke:#121212; stroke-linecap:round; stroke-linejoin:round; stroke-width:.9px;"/><path d="M142.9,156.82c-.56-.17-1.16-.38-1.78-.61-.99-.37-1.25-.46-3.04-1.85-.61-.47-1.39-1.08-2.43-1.9-2.34-1.83-2.22-1.95-4.63-3.66-3.03-2.16-2.8-5.83-3.86-7.34" style="fill:none; stroke:#121212; stroke-linecap:round; stroke-linejoin:round; stroke-width:.9px;"/><path d="M143.44,156.98c-.15-.05-.31-.1-.47-.14" style="fill:none; stroke:#121212; stroke-linecap:round; stroke-linejoin:round; stroke-width:.9px;"/><path d="M134.07,157.47h0c-.06-.46-.54-.95,1.24-.95,1.87,0,1.79.42,3.64.66,1.81.24,1.61.84,3.41,1.2,3.26.63,3.32,1.07,4.34.51,1.5-.83-.26-1.03-3.19-1.89" style="fill:none; stroke:#121212; stroke-linecap:round; stroke-linejoin:round; stroke-width:.9px;"/><path d="M142.12,155.46c1.3.21,2.58.3,3.31.16,2.97-.59,2.47.84,2.3.92-1.24.53-2.87.75-4.22.45-.03,0-.05,0-.08-.02-.16-.04-.32-.08-.47-.14-.03,0-.05-.02-.07-.03-.09-.03-.17-.06-.25-.1" style="fill:none; stroke:#121212; stroke-linecap:round; stroke-linejoin:round; stroke-width:.9px;"/><path d="M138.07,154.3s.02.03.03.05c.28.33,2.13.83,3.96,1.12" style="fill:none; stroke:#121212; stroke-linecap:round; stroke-linejoin:round; stroke-width:.9px;"/><path d="M135.49,152.28c.05.06.1.11.18.16,1.14.82,5.35,1.39,5.5,1.4,2.6.16,4.53-.05,4.76.24.59.76-1.22,1.58-3.8,1.38h-.06c-.25-.02-.52-.05-.78-.09" style="fill:none; stroke:#121212; stroke-linecap:round; stroke-linejoin:round; stroke-width:.9px;"/><path d="M62.8,71.26c.06,6.82,1.47,8.54,1.73,8.52,1.1-.11.28-3.54.1-4.96" style="fill:none; stroke:#121212; stroke-linecap:round; stroke-linejoin:round; stroke-width:.9px;"/><path d="M99.47,25.66c5.36.05,10.24,2.01,14.04,5.24,4.8,4.09,7.82,10.2,7.76,17-.07,7.84-4.22,14.69-10.4,18.53-3.42,2.14-7.46,3.36-11.78,3.32-3.79-.03-7.35-1.03-10.45-2.75-6.82-3.79-11.41-11.12-11.34-19.48.06-6.94,3.32-13.1,8.35-17.09,3.79-3.02,8.6-4.81,13.82-4.76Z" style="fill:none; stroke:#121212; stroke-linecap:round; stroke-linejoin:round; stroke-width:.9px;"/><path d="M99.43,28.26c10.86.09,19.58,9,19.49,19.89-.09,10.87-8.98,19.64-19.83,19.54s-19.58-9.01-19.49-19.89c.09-10.88,8.98-19.64,19.83-19.54Z" style="fill:none; stroke:#121212; stroke-linecap:round; stroke-linejoin:round; stroke-width:.9px;"/><path d="M99.3,32.73c8.44.07,15.23,7,15.15,15.47-.07,8.46-6.98,15.27-15.42,15.2s-15.23-7.01-15.15-15.47c.07-8.47,6.98-15.27,15.42-15.2Z" style="fill:none; stroke:#121212; stroke-linecap:round; stroke-linejoin:round; stroke-width:.9px;"/><path d="M99.17,39.37c4.72.04,8.52,3.98,8.48,8.79-.04,4.81-3.91,8.69-8.63,8.64s-8.53-3.99-8.49-8.79c.04-4.82,3.91-8.69,8.64-8.64Z" style="fill:none; stroke:#121212; stroke-linecap:round; stroke-linejoin:round; stroke-width:.9px;"/><path d="M74.83,32.28s-.04,0-.06.02c-1.74.6-1.1,2.17.15,2.55,1.53.46,1.76-1.29,1.73-1.52-.11-.66-1.1-1.35-1.88-1.02" style="fill:none; stroke:#121212; stroke-linecap:round; stroke-linejoin:round; stroke-width:.9px;"/><path d="M120.03,28.05c.35-.39.73-.84,1.18-1.26" style="fill:none; stroke:#fff; stroke-linecap:round; stroke-linejoin:round; stroke-width:.5px;"/><path d="M120.03,28.05c-.09-.66-.11-1.34-.7-1.37-1.34-.07-2.27,1.98-1.39,2.43.71.36,1.31-.22,2.09-1.06Z" style="fill:none; stroke:#fff; stroke-linecap:round; stroke-linejoin:round; stroke-width:.5px;"/><path d="M120.93,29.32c-.69-.05-.82-.65-.9-1.27" style="fill:none; stroke:#fff; stroke-linecap:round; stroke-linejoin:round; stroke-width:.5px;"/><path d="M71.68,30.4c1.04-.14,1.93-.11,13.96.02" style="fill:none; stroke:#121212; stroke-linecap:round; stroke-linejoin:round; stroke-width:.9px;"/><path d="M60.37,25.88c1.29,1.02,6.31.95,7.46.22.24-.15.42-.28.5-.39.03-.04.04-.07.04-.1,0-.22-.5-.38-1.88-.61" style="fill:none; stroke:#121212; stroke-linecap:round; stroke-linejoin:round; stroke-width:.9px;"/><path d="M59.68,25.93c-.03.53-.04.52-.08,1.04t-.03.52c-.59.31-.41.68-.42,2v.05" style="fill:none; stroke:#121212; stroke-linecap:round; stroke-linejoin:round; stroke-width:.9px;"/><path d="M68.47,25.73c.02.52.03.51.06,1.04t.02.48v.04c.6.32.4.7.38,2.05" style="fill:none; stroke:#121212; stroke-linecap:round; stroke-linejoin:round; stroke-width:.9px;"/><path d="M53.92,29.21c1.83.13,3.6.22,5.23.28,3.25.12,5.97.15,7.54.22,1.03.05,1.72-.1,2.25-.34,1.06-.5,1.41-1.42,2.42-2.09" style="fill:none; stroke:#121212; stroke-linecap:round; stroke-linejoin:round; stroke-width:.9px;"/><path d="M71.57,27.35c0,.42,0,1.34,0,2.61,0,.14,0,.29,0,.44,0,9.52-.02,36.2-.07,36.48" style="fill:none; stroke:#121212; stroke-linecap:round; stroke-linejoin:round; stroke-width:.9px;"/><path d="M71.56,66.81s-.01.06-.01.08c-.25,1.89-.25,1.97-1.39,3.13" style="fill:none; stroke:#121212; stroke-linecap:round; stroke-linejoin:round; stroke-width:.9px;"/><path d="M68.71,27.24c.26-.06,1.1,0,2.64-.09.04,0,.08,0,.11,0" style="fill:none; stroke:#121212; stroke-linecap:round; stroke-linejoin:round; stroke-width:.9px;"/><path d="M56.57,27.48c2.15.06,1.75.07,2.83-.04" style="fill:none; stroke:#121212; stroke-linecap:round; stroke-linejoin:round; stroke-width:.9px;"/><path d="M76.59,26.75c0,.31,0,.3-.02.6" style="fill:none; stroke:#fff; stroke-linecap:round; stroke-linejoin:round; stroke-width:.5px;"/><path d="M76.52,27c-1.21-.59-2.16.17-1.97.45.31.45,2.06.12,2.02,1-.04.8-1.49.23-1.93.18" style="fill:none; stroke:#fff; stroke-linecap:round; stroke-linejoin:round; stroke-width:.5px;"/><path d="M74.42,28.22s-.06.07.05.68" style="fill:none; stroke:#fff; stroke-linecap:round; stroke-linejoin:round; stroke-width:.5px;"/><path d="M78.5,26.97c-1.59.41-.73,2.41.85,1.85,1.14-.4.57-2.11-.8-1.85" style="fill:none; stroke:#fff; stroke-linecap:round; stroke-linejoin:round; stroke-width:.5px;"/><path d="M81.28,27.03c-.01.13,0,.12,0,1.66" style="fill:none; stroke:#fff; stroke-linecap:round; stroke-linejoin:round; stroke-width:.5px;"/><path d="M80.82,28.76c.51.03.5.06,1,.04" style="fill:none; stroke:#fff; stroke-linecap:round; stroke-linejoin:round; stroke-width:.5px;"/><path d="M81.3,26.95c.48.71,1.01.88,1.09.94.48.31.41.4.83.71,0,0,.02.02.04.03" style="fill:none; stroke:#fff; stroke-linecap:round; stroke-linejoin:round; stroke-width:.5px;"/><path d="M83.11,27.07c0,.08.06,1.07.1,1.53v.02" style="fill:none; stroke:#fff; stroke-linecap:round; stroke-linejoin:round; stroke-width:.5px;"/><path d="M84.14,26.94c.98-.02.97,0,1.05,0" style="fill:none; stroke:#fff; stroke-linecap:round; stroke-linejoin:round; stroke-width:.5px;"/><path d="M82.28,26.92c.98-.02.98,0,1.05,0" style="fill:none; stroke:#fff; stroke-linecap:round; stroke-linejoin:round; stroke-width:.5px;"/><path d="M84.69,27.02c.14.4.36.29.92.92" style="fill:none; stroke:#fff; stroke-linecap:round; stroke-linejoin:round; stroke-width:.5px;"/><path d="M85.71,28.03c-.05-.06.01-.06.95-.93" style="fill:none; stroke:#fff; stroke-linecap:round; stroke-linejoin:round; stroke-width:.5px;"/><path d="M86.11,26.97q1.01.05,1.1.08" style="fill:none; stroke:#fff; stroke-linecap:round; stroke-linejoin:round; stroke-width:.5px;"/><path d="M85.65,28.06c.03.32.02.31,0,.62" style="fill:none; stroke:#fff; stroke-linecap:round; stroke-linejoin:round; stroke-width:.5px;"/><path d="M84.96,28.73c.66.17.71.02,1.37.1" style="fill:none; stroke:#fff; stroke-linecap:round; stroke-linejoin:round; stroke-width:.5px;"/><path d="M113.57,30.84c3.65.03,12.05.11,13.2.16" style="fill:none; stroke:#121212; stroke-linecap:round; stroke-linejoin:round; stroke-width:.9px;"/><path d="M69.03,25.64c1.16-.09,1.15.19,14.51-.21,1.29-.04,8.06-.01,15.92.04,10.97.07,24.08.19,27.52.21" style="fill:none; stroke:#121212; stroke-linecap:round; stroke-linejoin:round; stroke-width:.9px;"/><path d="M126.99,25.91c-.09,1.84-.15,3.54-.18,5.09-.21,10.35.67,15.02.28,21.91-.43,7.32.03,11.64-.21,14.13-.16,1.59-.59,2.44-1.72,2.86-.11.04-.21.07-.32.1" style="fill:none; stroke:#121212; stroke-linecap:round; stroke-linejoin:round; stroke-width:.9px;"/><path d="M61.39,70.01h.44c1.15.01,4.18.02,8.33.03,4.56.01,10.46.03,16.71.03,3.77,0,7.67,0,11.46,0h.75c3.36,0,6.64,0,9.67-.01,2.16,0,4.19,0,6.05-.01,4.91-.01,8.57-.05,9.93-.09" style="fill:none; stroke:#121212; stroke-linecap:round; stroke-linejoin:round; stroke-width:.9px;"/><path d="M71.57,66.81q1.29.03,16.14.19" style="fill:none; stroke:#121212; stroke-linecap:round; stroke-linejoin:round; stroke-width:.9px;"/><path d="M49.98,30.93s.07,0,.1.01c1.74.15,4.49.26,8.87.3,7.94.08,9.7.22,12.21-1.3" style="fill:none; stroke:#121212; stroke-linecap:round; stroke-linejoin:round; stroke-width:.9px;"/><path d="M111.2,66.95c8.15.02,7.53.1,15.68.09h.02" style="fill:none; stroke:#121212; stroke-linecap:round; stroke-linejoin:round; stroke-width:.9px;"/><ellipse cx="99.1" cy="48.09" rx=".73" ry=".72" transform="translate(50.15 146.76) rotate(-89.5)" style="fill:none; stroke:#fff; stroke-linecap:round; stroke-linejoin:round; stroke-width:.9px;"/></svg>