<?xml version="1.0" encoding="UTF-8"?>
<svg id="Ebene_1" xmlns="http://www.w3.org/2000/svg" xmlns:xlink="http://www.w3.org/1999/xlink" version="1.1" viewBox="0 0 1080 1440">
  <!-- Generator: Adobe Illustrator 30.3.0, SVG Export Plug-In . SVG Version: 2.1.3 Build 182)  -->
  <defs>
    <style>
      .st0, .st1, .st2, .st3, .st4, .st5, .st6, .st7, .st8, .st9, .st10, .st11, .st12, .st13, .st14, .st15, .st16, .st17, .st18, .st19 {
        fill: none;
      }

      .st1 {
        stroke-width: 3.98px;
      }

      .st1, .st2, .st5, .st7, .st9, .st10, .st11, .st12, .st14, .st15, .st16, .st19 {
        stroke-linecap: round;
      }

      .st1, .st19 {
        stroke: #fff;
      }

      .st20 {
        fill: #fa591a;
      }

      .st21 {
        fill: #a0d7be;
      }

      .st2 {
        stroke-dasharray: 0 89.04;
      }

      .st2, .st3, .st5, .st10, .st11, .st12, .st14, .st15, .st16 {
        stroke-linejoin: round;
      }

      .st2, .st5, .st10, .st11, .st12, .st15, .st16, .st17, .st18 {
        stroke: #ffeb0a;
      }

      .st2, .st5, .st11, .st12, .st15, .st18 {
        stroke-width: 44.44px;
      }

      .st3, .st4, .st6, .st7, .st8, .st9, .st13, .st14 {
        stroke: #ff5d4b;
      }

      .st3, .st7, .st14 {
        stroke-width: 13.58px;
      }

      .st22 {
        fill: #f2d100;
      }

      .st4 {
        stroke-width: .98px;
      }

      .st5 {
        stroke-dasharray: 0 73.28;
      }

      .st23 {
        fill: #b596cc;
      }

      .st24 {
        fill: #00ba75;
      }

      .st25 {
        fill: #f95a1a;
      }

      .st26 {
        fill: #08080a;
      }

      .st27 {
        fill: #ff5d4b;
      }

      .st28 {
        fill: #4f2e73;
      }

      .st29 {
        clip-path: url(#clippath-11);
      }

      .st30 {
        clip-path: url(#clippath-16);
      }

      .st31 {
        clip-path: url(#clippath-10);
      }

      .st32 {
        clip-path: url(#clippath-15);
      }

      .st33 {
        clip-path: url(#clippath-13);
      }

      .st34 {
        clip-path: url(#clippath-14);
      }

      .st35 {
        clip-path: url(#clippath-12);
      }

      .st6 {
        stroke-width: 12.61px;
      }

      .st36 {
        clip-path: url(#clippath-1);
      }

      .st37 {
        clip-path: url(#clippath-3);
      }

      .st38 {
        clip-path: url(#clippath-4);
      }

      .st39 {
        clip-path: url(#clippath-2);
      }

      .st40 {
        clip-path: url(#clippath-7);
      }

      .st41 {
        clip-path: url(#clippath-6);
      }

      .st42 {
        clip-path: url(#clippath-9);
      }

      .st43 {
        clip-path: url(#clippath-8);
      }

      .st44 {
        clip-path: url(#clippath-5);
      }

      .st8 {
        stroke-width: 4.77px;
      }

      .st9 {
        stroke-width: 6.63px;
      }

      .st45 {
        fill: #a1d6bf;
      }

      .st46 {
        fill: #fff;
      }

      .st10 {
        stroke-dasharray: 0 123.79;
      }

      .st10, .st16, .st17 {
        stroke-width: 43.99px;
      }

      .st47 {
        fill: #f2d000;
      }

      .st11 {
        stroke-dasharray: 0 89.36;
      }

      .st48 {
        fill: #cc2e2e;
      }

      .st12 {
        stroke-dasharray: 0 84.68;
      }

      .st49 {
        fill: #ffeb0a;
      }

      .st50 {
        opacity: .4;
      }

      .st51 {
        opacity: .02;
      }

      .st52 {
        fill: #07080a;
      }

      .st53 {
        fill: #ff5c4a;
      }

      .st13, .st17, .st18 {
        stroke-miterlimit: 10;
      }

      .st54 {
        clip-path: url(#clippath);
      }

      .st55 {
        fill: #4f2d73;
      }

      .st56 {
        fill: #cb2d2e;
      }

      .st19 {
        stroke-width: 7.99px;
      }
    </style>
    <clipPath id="clippath">
      <rect class="st0" width="1080" height="1440"/>
    </clipPath>
    <clipPath id="clippath-1">
      <rect class="st0" width="1080" height="1440"/>
    </clipPath>
    <clipPath id="clippath-2">
      <rect class="st0" x="-9" y="-8" width="1098" height="1449"/>
    </clipPath>
    <clipPath id="clippath-3">
      <rect class="st0" x="175.11" y="221.39" width="797.98" height="858.61"/>
    </clipPath>
    <clipPath id="clippath-4">
      <rect class="st0" x="758.48" y="1073.93" width="99.4" height="304.82"/>
    </clipPath>
    <clipPath id="clippath-5">
      <path class="st0" d="M768.42,1121.04c0,21.96,17.8,39.76,39.76,39.76s39.76-17.8,39.76-39.76-17.8-39.76-39.76-39.76-39.76,17.8-39.76,39.76"/>
    </clipPath>
    <clipPath id="clippath-6">
      <rect class="st0" x="758.48" y="1073.93" width="99.4" height="304.82"/>
    </clipPath>
    <clipPath id="clippath-7">
      <rect class="st0" width="1080" height="1440"/>
    </clipPath>
    <clipPath id="clippath-8">
      <rect class="st0" width="1080" height="1440"/>
    </clipPath>
    <clipPath id="clippath-9">
      <rect class="st0" x="-9" y="-8" width="1098" height="1449"/>
    </clipPath>
    <clipPath id="clippath-10">
      <rect class="st0" width="1080" height="1440"/>
    </clipPath>
    <clipPath id="clippath-11">
      <rect class="st0" width="1080" height="1440"/>
    </clipPath>
    <clipPath id="clippath-12">
      <path class="st0" d="M286.53,569.6c0,41.79,33.88,75.67,75.68,75.67s75.68-33.88,75.68-75.67-33.88-75.68-75.68-75.68-75.68,33.88-75.68,75.68"/>
    </clipPath>
    <clipPath id="clippath-13">
      <rect class="st0" width="1080" height="1440"/>
    </clipPath>
    <clipPath id="clippath-14">
      <rect class="st0" width="1080" height="1440"/>
    </clipPath>
    <clipPath id="clippath-15">
      <rect class="st0" width="1080" height="1440"/>
    </clipPath>
    <clipPath id="clippath-16">
      <rect class="st0" width="1080" height="1440"/>
    </clipPath>
  </defs>
  <g class="st54">
    <g class="st36">
      <g class="st51">
        <g class="st39">
          <rect class="st27" width="1080" height="1440"/>
        </g>
      </g>
      <g class="st50">
        <g class="st37">
          <path class="st14" d="M698.22,868.08l13.4-4.97M688.44,836.96l15.09-4.04M456.74,931.4l15.09-4.05M448.65,901.21l15.09-4.04M329.52,803.72l128.29-34.37M321.43,773.54l128.29-34.38M509.22,523.52l38.67-38.67M549.39,538.73l36.51-36.51M589.55,553.94l34.35-34.35M629.72,569.15l32.19-32.19M669.9,584.36l30.03-30.03M710.06,599.57l27.88-27.87M750.23,614.78l25.71-25.71"/>
          <path class="st14" d="M225.63,732.96l49.96,104.18c2.78,5.8,10.07,9.15,16.28,7.48l166.17-44.53c6.21-1.66,9.9-8.05,8.23-14.26l-21.25-79.31M547.42,484.98l-108.64-224.17c-9.03-18.64-33.36-23.49-48.86-9.75l-48.06,40.67M225.63,732.96l-20.34-75.91c-12.87-48.03-6.13-99.21,18.73-142.28l2.68-4.64c1.48-2.57,1.33-9.68-.33-15.89l-11.25-42c-6.14-22.9,1.08-47.31,18.68-63.19l101.89-91.97c14.99-13.53,36.13-17.91,55.26-11.43l.71.24c12.83,2.62,28.09,17.14,34.08,32.41q13.34,34,32.66,81.51c2.42,5.96,8.3,14.23,13.13,18.47l55.88,49.11c13.19,11.59,28.68,20.28,45.45,25.48l191.8,89.45c5.83,2.72,15.72,4.27,22.1,3.47l60.06-7.52c25.71-5.53,54.65,10.58,64.63,35.99.85,2.17,1.59,4.4,2.2,6.69l14.27,53.24M471.66,956.07c.08,6.43-5.07,11.64-11.5,11.64h-54.84c-6.43,0-11.37-5.2-11.04-11.63l2.85-55.4c.33-6.42,5.63-12.98,11.84-14.64l50.4-13.51c6.21-1.66,11.31,2.2,11.39,8.63l.91,74.91ZM735.09,894.27l-9.18,3.91c-5.07,2.16-11.73-.64-14.88-6.24l-36.67-65.33c-3.15-5.61-.66-11.5,5.55-13.17l51.2-13.72c6.21-1.66,13.84,1.51,17.03,7.09l11.2,19.55"/>
          <path class="st3" d="M926.28,674.46l-262.19,70.25c-26.13,7-53.48,1.89-68.67-.71-6.34-1.08-16.17-4.22-21.97-7.01l-66.78-32.11c-20.83-4.26-42.23-4.95-63.28-2.04l-217.76,30.12"/>
          <path class="st46" d="M453.78,973.84c11.17,41.68-13.57,84.52-55.24,95.68-41.68,11.17-84.52-13.57-95.68-55.24-11.17-41.68,13.57-84.52,55.24-95.69,41.68-11.17,84.52,13.57,95.68,55.25"/>
          <path class="st14" d="M453.78,973.84c11.17,41.68-13.57,84.52-55.24,95.68-41.68,11.17-84.52-13.57-95.68-55.24-11.17-41.68,13.57-84.52,55.24-95.69,41.68-11.17,84.52,13.57,95.68,55.25Z"/>
          <path class="st14" d="M889.78,863.89c11.17,41.68-13.57,84.52-55.24,95.68-41.68,11.17-84.52-13.57-95.69-55.24-11.17-41.68,13.57-84.52,55.24-95.69,41.68-11.17,84.52,13.57,95.68,55.24Z"/>
          <path class="st14" d="M280.62,847.64l10.49,39.17,58.26,11.81c4.73.96,9.63.81,14.3-.44l350.53-93.92,30.31-8.12c9.95-11.83,23.4-20.91,39.47-25.21,16.06-4.3,32.26-3.17,46.79,2.1l30.31-8.12,32.21-8.63,45.12-42.9-10.49-39.17-647.3,173.44Z"/>
          <path class="st14" d="M859.59,871.98c6.7,25.01-8.14,50.71-33.15,57.41-25.01,6.7-50.71-8.14-57.41-33.15-6.7-25.01,8.14-50.71,33.15-57.41,25.01-6.7,50.71,8.14,57.41,33.15Z"/>
          <path class="st46" d="M423.6,981.93c6.7,25.01-8.14,50.71-33.15,57.41-25.01,6.7-50.71-8.14-57.41-33.14-6.7-25.01,8.14-50.71,33.15-57.41,25.01-6.7,50.71,8.14,57.41,33.14"/>
          <path class="st14" d="M423.6,981.93c6.7,25.01-8.14,50.71-33.15,57.41-25.01,6.7-50.71-8.14-57.41-33.14-6.7-25.01,8.14-50.71,33.15-57.41,25.01-6.7,50.71,8.14,57.41,33.14Z"/>
          <path class="st27" d="M496.17,481.12c2.73,7.27-.96,15.38-8.23,18.11-7.27,2.73-15.38-.96-18.11-8.23-2.73-7.27.96-15.38,8.23-18.1,7.27-2.73,15.38.96,18.11,8.23"/>
          <path class="st13" d="M496.17,481.12c2.73,7.27-.96,15.38-8.23,18.11-7.27,2.73-15.38-.96-18.11-8.23-2.73-7.27.96-15.38,8.23-18.1,7.27-2.73,15.38.96,18.11,8.23Z"/>
          <path class="st27" d="M463.42,449.46c2.73,7.27-.96,15.38-8.23,18.1-7.27,2.73-15.38-.96-18.11-8.23-2.73-7.27.96-15.38,8.23-18.11,7.27-2.73,15.38.96,18.11,8.23"/>
          <path class="st13" d="M463.42,449.46c2.73,7.27-.96,15.38-8.23,18.1-7.27,2.73-15.38-.96-18.11-8.23-2.73-7.27.96-15.38,8.23-18.11,7.27-2.73,15.38.96,18.11,8.23Z"/>
          <path class="st27" d="M389.29,323.73c2.73,7.27-.96,15.38-8.23,18.11-7.27,2.73-15.38-.96-18.11-8.23-2.73-7.27.96-15.38,8.23-18.1,7.27-2.73,15.38.96,18.11,8.23"/>
          <path class="st13" d="M389.29,323.73c2.73,7.27-.96,15.38-8.23,18.11-7.27,2.73-15.38-.96-18.11-8.23-2.73-7.27.96-15.38,8.23-18.1,7.27-2.73,15.38.96,18.11,8.23Z"/>
          <path class="st14" d="M940.05,719.78c12.33,12.33,12.33,32.32,0,44.65-12.33,12.33-32.32,12.33-44.65,0"/>
        </g>
      </g>
      <path class="st49" d="M837.09,897.97l74.09,92.75c6.25,7.83,16.55,11.48,26.51,9.4l79.43-16.61,38.53-8.06c16.91-3.54,32.72,9.38,32.08,26.22l-4.46,117.43c-.38,9.91,5.1,19.16,14.1,23.79l106.65,54.96c15.29,7.88,18.87,27.67,7.27,40.17l-80.92,87.17c-6.83,7.36-8.73,17.87-4.9,27.06l45.43,108.87c6.51,15.61-3.81,33.01-20.94,35.32l-119.51,16.12c-10.09,1.36-18.48,8.22-21.61,17.66l-37.05,111.84c-5.31,16.03-24.7,22.91-39.35,13.95l-102.19-62.48c-8.62-5.27-19.58-5.27-28.21,0l-102.19,62.48c-14.65,8.96-34.04,2.08-39.35-13.95l-37.05-111.84c-3.13-9.44-11.52-16.3-21.61-17.66l-119.52-16.12c-17.13-2.31-27.45-19.72-20.94-35.32l45.43-108.87c3.83-9.19,1.93-19.7-4.9-27.06l-80.92-87.17c-11.6-12.5-8.02-32.29,7.27-40.17l106.65-54.96c9-4.64,14.48-13.88,14.1-23.79l-4.46-117.43c-.64-16.83,15.17-29.75,32.08-26.22l117.97,24.67c9.95,2.08,20.26-1.57,26.51-9.4l74.09-92.75c10.62-13.3,31.26-13.3,41.88,0"/>
    </g>
    <polygon class="st49" points="1011.87 984.36 1066.87 1072.69 1080 1045.88 1080 970.69 1011.87 984.36"/>
    <g>
      <path class="st27" d="M869.91,1230.31l-3.01-21.95h3.23l1.82,15.96,2.7-15.96h3.26l2.7,15.96,1.82-15.96h3.23l-3.01,21.95h-3.86l-2.51-15.52-2.51,15.52h-3.86Z"/>
      <path class="st27" d="M887.69,1230.31v-22.58h3.33v9.35c.42-.77,1.09-1.42,2.01-1.93.92-.51,1.96-.77,3.11-.77,1.92,0,3.39.58,4.39,1.74,1,1.16,1.5,2.83,1.5,5v9.19h-3.32v-8.72c0-1.3-.31-2.3-.94-3.01-.63-.71-1.5-1.07-2.6-1.07s-2.13.39-2.93,1.16-1.21,1.89-1.21,3.36v8.28h-3.33Z"/>
      <path class="st27" d="M913.53,1230.68c-1.5,0-2.83-.34-3.98-1.02-1.15-.68-2.05-1.63-2.7-2.84-.65-1.21-.97-2.62-.97-4.23s.32-3.06.96-4.3c.64-1.23,1.54-2.2,2.7-2.89,1.16-.69,2.5-1.04,4.03-1.04s2.8.34,3.89,1.02c1.09.68,1.93,1.58,2.52,2.71s.89,2.37.89,3.73v.67c0,.24-.01.51-.03.8h-11.7c.1,1.44.58,2.54,1.41,3.28.84.74,1.82,1.11,2.95,1.11.98,0,1.76-.2,2.34-.61.58-.41,1-.97,1.27-1.68h3.36c-.38,1.48-1.16,2.73-2.35,3.75-1.19,1.01-2.72,1.52-4.58,1.52ZM913.53,1217.26c-1.02,0-1.93.31-2.73.92-.79.62-1.31,1.48-1.54,2.59h8.28c-.08-1.05-.49-1.89-1.22-2.54-.73-.65-1.66-.97-2.79-.97Z"/>
      <path class="st27" d="M932.07,1230.68c-1.5,0-2.83-.34-3.98-1.02-1.15-.68-2.05-1.63-2.7-2.84-.65-1.21-.97-2.62-.97-4.23s.32-3.06.96-4.3c.64-1.23,1.54-2.2,2.7-2.89,1.16-.69,2.5-1.04,4.03-1.04s2.8.34,3.89,1.02c1.09.68,1.93,1.58,2.52,2.71s.89,2.37.89,3.73v.67c0,.24-.01.51-.03.8h-11.7c.1,1.44.58,2.54,1.41,3.28.84.74,1.82,1.11,2.95,1.11.98,0,1.76-.2,2.34-.61.58-.41,1-.97,1.27-1.68h3.36c-.38,1.48-1.16,2.73-2.35,3.75-1.19,1.01-2.72,1.52-4.58,1.52ZM932.07,1217.26c-1.02,0-1.93.31-2.73.92-.79.62-1.31,1.48-1.54,2.59h8.28c-.08-1.05-.49-1.89-1.22-2.54-.73-.65-1.66-.97-2.79-.97Z"/>
      <path class="st27" d="M943.14,1230.31v-2.89h5.21v-15.78c0-.69-.33-1.04-1-1.04h-3.76v-2.88h4.36c1.21,0,2.14.32,2.78.96s.96,1.56.96,2.78v15.96h5.24v2.89h-13.77Z"/>
    </g>
    <g>
      <path class="st27" d="M868.15,1258.73v-21.95h3.32v9.09h9.6v-9.09h3.32v21.95h-3.32v-9.82h-9.6v9.82h-3.32Z"/>
      <path class="st27" d="M893.4,1259.11c-1.23,0-2.27-.21-3.11-.64-.84-.43-1.46-1-1.88-1.72-.42-.72-.63-1.51-.63-2.37,0-1.53.56-2.72,1.68-3.58,1.12-.86,2.7-1.29,4.75-1.29h4.01v-.34c0-2.34-1.09-3.51-3.26-3.51-.9,0-1.66.19-2.27.58-.62.39-1.03,1.01-1.24,1.87h-3.32c.17-1.63.87-2.92,2.12-3.87,1.24-.95,2.82-1.43,4.72-1.43,2.3,0,3.97.56,5.02,1.69,1.04,1.13,1.57,2.69,1.57,4.67v9.57h-2.82l-.28-2.29h-.22c-.46.73-1.03,1.36-1.72,1.88-.69.52-1.72.78-3.1.78ZM894.03,1256.31c1.36,0,2.38-.41,3.06-1.24.68-.83,1.05-1.88,1.11-3.15h-3.64c-1.19,0-2.03.19-2.52.58-.49.39-.74.92-.74,1.62s.25,1.23.74,1.62c.49.39,1.15.58,1.99.58Z"/>
      <path class="st27" d="M906.35,1258.73v-2.89h3.79v-8.75c0-.69-.33-1.04-1-1.04h-2.48v-2.88h3.73c.86,0,1.56.25,2.1.74.54.49.82,1.18.82,2.05v.38h.16c.23-1.17.73-2.05,1.49-2.65.76-.6,1.88-.89,3.34-.89h2.42v3.51h-3.39c-1.23,0-2.18.43-2.85,1.29-.67.86-1,1.88-1,3.07v5.17h4.83v2.89h-11.95Z"/>
      <path class="st27" d="M931.03,1259.11c-1.3,0-2.46-.31-3.48-.92-1.03-.62-1.83-1.53-2.43-2.74s-.89-2.71-.89-4.49.3-3.27.91-4.48,1.43-2.13,2.46-2.74c1.04-.62,2.19-.93,3.47-.93,1.19,0,2.17.22,2.95.67.77.45,1.35,1.02,1.72,1.71v-9.03h3.32v22.58h-2.85l-.28-2.29h-.19c-.42.82-1.01,1.46-1.77,1.94-.76.48-1.74.72-2.93.72ZM931.72,1255.94c1.19,0,2.18-.42,2.96-1.25.78-.84,1.18-2.08,1.18-3.73s-.39-2.92-1.18-3.75c-.78-.83-1.77-1.24-2.96-1.24s-2.18.42-2.96,1.25c-.78.84-1.18,2.09-1.18,3.76s.39,2.89,1.18,3.72c.78.83,1.77,1.24,2.96,1.24Z"/>
      <path class="st27" d="M943.45,1258.73v-15.56h2.89l.28,2.32h.16c.42-.75,1.07-1.39,1.95-1.91.88-.52,1.89-.78,3.04-.78,1.9,0,3.33.58,4.3,1.72.96,1.15,1.44,2.84,1.44,5.08v9.13h-3.32v-8.72c0-1.3-.27-2.3-.82-3.01-.54-.71-1.4-1.07-2.57-1.07s-2.11.39-2.87,1.16c-.76.77-1.15,1.89-1.15,3.36v8.28h-3.32Z"/>
      <path class="st27" d="M969.14,1259.11c-1.5,0-2.83-.34-3.98-1.02-1.15-.68-2.05-1.63-2.7-2.84-.65-1.21-.97-2.62-.97-4.23s.32-3.06.96-4.3c.64-1.23,1.54-2.2,2.7-2.89,1.16-.69,2.5-1.04,4.03-1.04s2.8.34,3.89,1.02c1.09.68,1.93,1.58,2.52,2.71s.89,2.37.89,3.73v.67c0,.24-.01.51-.03.8h-11.7c.1,1.44.58,2.54,1.41,3.28.84.74,1.82,1.11,2.95,1.11.98,0,1.76-.2,2.34-.61.58-.41,1-.97,1.27-1.68h3.36c-.38,1.48-1.16,2.73-2.35,3.75-1.19,1.01-2.72,1.52-4.58,1.52ZM969.14,1245.68c-1.02,0-1.93.31-2.73.92-.79.62-1.31,1.48-1.54,2.59h8.28c-.08-1.05-.49-1.89-1.22-2.54-.73-.65-1.66-.97-2.79-.97Z"/>
      <path class="st27" d="M987.61,1259.11c-2.05,0-3.68-.48-4.89-1.44-1.21-.96-1.9-2.24-2.07-3.83h3.42c.13.73.5,1.33,1.11,1.79s1.44.69,2.46.69,1.74-.2,2.27-.61c.53-.41.8-.88.8-1.43,0-.79-.32-1.34-.96-1.63s-1.57-.51-2.81-.66c-1.07-.12-2.03-.37-2.9-.74-.87-.37-1.55-.87-2.05-1.5-.5-.64-.75-1.44-.75-2.4,0-1.36.53-2.46,1.6-3.29s2.55-1.25,4.45-1.25,3.38.43,4.42,1.29c1.05.86,1.65,2.03,1.82,3.51h-3.2c-.08-.63-.41-1.12-.97-1.49-.56-.37-1.27-.55-2.1-.55s-1.54.16-2.04.49c-.5.32-.75.75-.75,1.27,0,1.13,1.21,1.82,3.64,2.07,1.15.13,2.17.34,3.07.64.9.3,1.61.77,2.13,1.41s.78,1.53.78,2.68c.02.94-.25,1.79-.8,2.54-.55.75-1.32,1.35-2.29,1.79-.97.44-2.11.66-3.4.66Z"/>
      <path class="st27" d="M1006.15,1259.11c-2.05,0-3.68-.48-4.89-1.44-1.21-.96-1.9-2.24-2.07-3.83h3.42c.13.73.5,1.33,1.11,1.79s1.44.69,2.46.69,1.74-.2,2.27-.61c.53-.41.8-.88.8-1.43,0-.79-.32-1.34-.96-1.63s-1.57-.51-2.81-.66c-1.07-.12-2.03-.37-2.9-.74-.87-.37-1.55-.87-2.05-1.5-.5-.64-.75-1.44-.75-2.4,0-1.36.53-2.46,1.6-3.29s2.55-1.25,4.45-1.25,3.38.43,4.42,1.29c1.05.86,1.65,2.03,1.82,3.51h-3.2c-.08-.63-.41-1.12-.97-1.49-.56-.37-1.27-.55-2.1-.55s-1.54.16-2.04.49c-.5.32-.75.75-.75,1.27,0,1.13,1.21,1.82,3.64,2.07,1.15.13,2.17.34,3.07.64.9.3,1.61.77,2.13,1.41s.78,1.53.78,2.68c.02.94-.25,1.79-.8,2.54-.55.75-1.32,1.35-2.29,1.79-.97.44-2.11.66-3.4.66Z"/>
    </g>
    <g>
      <path class="st27" d="M584.88,1174.11l-3.01-21.95h3.23l1.82,15.96,2.7-15.96h3.26l2.7,15.96,1.82-15.96h3.23l-3.01,21.95h-3.86l-2.51-15.52-2.51,15.52h-3.86Z"/>
      <path class="st27" d="M602.66,1174.11v-22.58h3.33v9.35c.42-.77,1.09-1.42,2.01-1.93.92-.51,1.96-.77,3.11-.77,1.92,0,3.39.58,4.39,1.74,1,1.16,1.5,2.83,1.5,5v9.19h-3.32v-8.72c0-1.3-.31-2.3-.94-3.01-.63-.71-1.5-1.07-2.6-1.07s-2.13.39-2.93,1.16-1.21,1.89-1.21,3.36v8.28h-3.33Z"/>
      <path class="st27" d="M628.5,1174.49c-1.5,0-2.83-.34-3.98-1.02-1.15-.68-2.05-1.63-2.7-2.84-.65-1.21-.97-2.62-.97-4.23s.32-3.06.96-4.3c.64-1.23,1.54-2.2,2.7-2.89,1.16-.69,2.5-1.04,4.03-1.04s2.8.34,3.89,1.02c1.09.68,1.93,1.58,2.52,2.71s.89,2.37.89,3.73v.67c0,.24-.01.51-.03.8h-11.7c.1,1.44.58,2.54,1.41,3.28.84.74,1.82,1.11,2.95,1.11.98,0,1.76-.2,2.34-.61.58-.41,1-.97,1.27-1.68h3.36c-.38,1.48-1.16,2.73-2.35,3.75-1.19,1.01-2.72,1.52-4.58,1.52ZM628.5,1161.06c-1.02,0-1.93.31-2.73.92-.79.62-1.31,1.48-1.54,2.59h8.28c-.08-1.05-.49-1.89-1.22-2.54-.73-.65-1.66-.97-2.79-.97Z"/>
      <path class="st27" d="M647.04,1174.49c-1.5,0-2.83-.34-3.98-1.02-1.15-.68-2.05-1.63-2.7-2.84-.65-1.21-.97-2.62-.97-4.23s.32-3.06.96-4.3c.64-1.23,1.54-2.2,2.7-2.89,1.16-.69,2.5-1.04,4.03-1.04s2.8.34,3.89,1.02c1.09.68,1.93,1.58,2.52,2.71s.89,2.37.89,3.73v.67c0,.24-.01.51-.03.8h-11.7c.1,1.44.58,2.54,1.41,3.28.84.74,1.82,1.11,2.95,1.11.98,0,1.76-.2,2.34-.61.58-.41,1-.97,1.27-1.68h3.36c-.38,1.48-1.16,2.73-2.35,3.75-1.19,1.01-2.72,1.52-4.58,1.52ZM647.04,1161.06c-1.02,0-1.93.31-2.73.92-.79.62-1.31,1.48-1.54,2.59h8.28c-.08-1.05-.49-1.89-1.22-2.54-.73-.65-1.66-.97-2.79-.97Z"/>
      <path class="st27" d="M658.11,1174.11v-2.89h5.21v-15.78c0-.69-.33-1.04-1-1.04h-3.76v-2.88h4.36c1.21,0,2.14.32,2.78.96s.96,1.56.96,2.78v15.96h5.24v2.89h-13.77Z"/>
      <path class="st27" d="M684.77,1174.49c-1.15,0-2.12-.23-2.9-.71s-1.38-1.12-1.8-1.96h-.19l-.28,2.29h-2.85v-22.58h3.33v9.03c.38-.63.97-1.18,1.79-1.66.82-.48,1.79-.72,2.92-.72,1.3,0,2.46.31,3.48.93,1.02.62,1.83,1.53,2.43,2.74s.89,2.71.89,4.48-.3,3.27-.89,4.49-1.41,2.13-2.43,2.74c-1.03.62-2.19.92-3.48.92ZM684.08,1171.32c1.19,0,2.18-.41,2.96-1.24.78-.83,1.18-2.06,1.18-3.72s-.39-2.93-1.18-3.76c-.78-.84-1.77-1.25-2.96-1.25s-2.18.41-2.96,1.24c-.78.83-1.18,2.08-1.18,3.75s.39,2.9,1.18,3.73c.78.84,1.77,1.25,2.96,1.25Z"/>
      <path class="st27" d="M701.05,1174.49c-1.23,0-2.27-.21-3.11-.64-.84-.43-1.46-1-1.88-1.72-.42-.72-.63-1.51-.63-2.37,0-1.53.56-2.72,1.68-3.58,1.12-.86,2.7-1.29,4.75-1.29h4.01v-.34c0-2.34-1.09-3.51-3.26-3.51-.9,0-1.66.19-2.27.58-.62.39-1.03,1.01-1.24,1.87h-3.32c.17-1.63.87-2.92,2.12-3.87,1.24-.95,2.82-1.43,4.72-1.43,2.3,0,3.97.56,5.02,1.69,1.04,1.13,1.57,2.69,1.57,4.67v9.57h-2.82l-.28-2.29h-.22c-.46.73-1.03,1.36-1.72,1.88-.69.52-1.72.78-3.1.78ZM701.67,1171.7c1.36,0,2.38-.41,3.06-1.24.68-.83,1.05-1.88,1.11-3.15h-3.64c-1.19,0-2.03.19-2.52.58-.49.39-.74.92-.74,1.62s.25,1.23.74,1.62c.49.39,1.15.58,1.99.58Z"/>
      <path class="st27" d="M721.12,1174.49c-2.05,0-3.68-.48-4.89-1.44-1.21-.96-1.9-2.24-2.07-3.83h3.42c.13.73.5,1.33,1.11,1.79s1.44.69,2.46.69,1.74-.2,2.27-.61c.53-.41.8-.88.8-1.43,0-.79-.32-1.34-.96-1.63s-1.57-.51-2.81-.66c-1.07-.12-2.03-.37-2.9-.74-.87-.37-1.55-.87-2.05-1.5-.5-.64-.75-1.44-.75-2.4,0-1.36.53-2.46,1.6-3.29s2.55-1.25,4.45-1.25,3.38.43,4.42,1.29c1.05.86,1.65,2.03,1.82,3.51h-3.2c-.08-.63-.41-1.12-.97-1.49-.56-.37-1.27-.55-2.1-.55s-1.54.16-2.04.49c-.5.32-.75.75-.75,1.27,0,1.13,1.21,1.82,3.64,2.07,1.15.13,2.17.34,3.07.64.9.3,1.61.77,2.13,1.41s.78,1.53.78,2.68c.02.94-.25,1.79-.8,2.54-.55.75-1.32,1.35-2.29,1.79-.97.44-2.11.66-3.4.66Z"/>
      <path class="st27" d="M739.72,1174.49c-1.5,0-2.83-.34-3.98-1.02-1.15-.68-2.05-1.63-2.7-2.84-.65-1.21-.97-2.62-.97-4.23s.32-3.06.96-4.3c.64-1.23,1.54-2.2,2.7-2.89,1.16-.69,2.5-1.04,4.03-1.04s2.8.34,3.89,1.02c1.09.68,1.93,1.58,2.52,2.71s.89,2.37.89,3.73v.67c0,.24-.01.51-.03.8h-11.7c.1,1.44.58,2.54,1.41,3.28.84.74,1.82,1.11,2.95,1.11.98,0,1.76-.2,2.34-.61.58-.41,1-.97,1.27-1.68h3.36c-.38,1.48-1.16,2.73-2.35,3.75-1.19,1.01-2.72,1.52-4.58,1.52ZM739.72,1161.06c-1.02,0-1.93.31-2.73.92-.79.62-1.31,1.48-1.54,2.59h8.28c-.08-1.05-.49-1.89-1.22-2.54-.73-.65-1.66-.97-2.79-.97Z"/>
    </g>
    <g>
      <path class="st27" d="M602.14,1202.53v-21.95h5.27c3.53,0,6.16.98,7.87,2.93s2.57,4.64,2.57,8.04-.86,6.09-2.57,8.04-4.34,2.93-7.87,2.93h-5.27ZM605.47,1199.46h1.82c2.55,0,4.39-.72,5.52-2.15,1.13-1.43,1.69-3.35,1.69-5.76s-.56-4.32-1.69-5.75c-1.13-1.43-2.97-2.15-5.52-2.15h-1.82v15.81Z"/>
      <path class="st27" d="M621.74,1202.53v-2.89h4.89v-8.75c0-.69-.33-1.04-1-1.04h-3.45v-2.88h4.05c1.3,0,2.24.3,2.84.89.6.6.89,1.54.89,2.84v8.94h4.89v2.89h-13.11ZM627.98,1184.59c-.73,0-1.34-.24-1.83-.71s-.74-1.05-.74-1.74.25-1.27.74-1.73c.49-.46,1.1-.69,1.83-.69s1.37.23,1.87.69c.49.46.74,1.04.74,1.73s-.25,1.27-.74,1.74c-.49.47-1.11.71-1.87.71Z"/>
      <path class="st27" d="M646.96,1202.91c-2.05,0-3.68-.48-4.89-1.44-1.21-.96-1.9-2.24-2.07-3.83h3.42c.13.73.5,1.33,1.11,1.79s1.44.69,2.46.69,1.74-.2,2.27-.61c.53-.41.8-.88.8-1.43,0-.79-.32-1.34-.96-1.63s-1.57-.51-2.81-.66c-1.07-.12-2.03-.37-2.9-.74-.87-.37-1.55-.87-2.05-1.5-.5-.64-.75-1.44-.75-2.4,0-1.36.53-2.46,1.6-3.29s2.55-1.25,4.45-1.25,3.38.43,4.42,1.29c1.05.86,1.65,2.03,1.82,3.51h-3.2c-.08-.63-.41-1.12-.97-1.49-.56-.37-1.27-.55-2.1-.55s-1.54.16-2.04.49c-.5.32-.75.75-.75,1.27,0,1.13,1.21,1.82,3.64,2.07,1.15.13,2.17.34,3.07.64.9.3,1.61.77,2.13,1.41s.78,1.53.78,2.68c.02.94-.25,1.79-.8,2.54-.55.75-1.32,1.35-2.29,1.79-.97.44-2.11.66-3.4.66Z"/>
      <path class="st27" d="M667.06,1202.53c-1.53,0-2.74-.37-3.64-1.11-.9-.74-1.35-2.06-1.35-3.97v-7.65h-3.92v-2.82h2.32c1.07,0,1.69-.52,1.88-1.57l.47-2.51h2.57v4.08h6.15v2.82h-6.15v7.59c0,.82.18,1.39.55,1.71.37.33,1,.49,1.9.49h3.64v2.95h-4.42Z"/>
      <path class="st27" d="M682.49,1202.91c-1.23,0-2.27-.21-3.11-.64-.84-.43-1.46-1-1.88-1.72-.42-.72-.63-1.51-.63-2.37,0-1.53.56-2.72,1.68-3.58,1.12-.86,2.7-1.29,4.75-1.29h4.01v-.34c0-2.34-1.09-3.51-3.26-3.51-.9,0-1.66.19-2.27.58-.62.39-1.03,1.01-1.24,1.87h-3.32c.17-1.63.87-2.92,2.12-3.87,1.24-.95,2.82-1.43,4.72-1.43,2.3,0,3.97.56,5.02,1.69,1.04,1.13,1.57,2.69,1.57,4.67v9.57h-2.82l-.28-2.29h-.22c-.46.73-1.03,1.36-1.72,1.88-.69.52-1.72.78-3.1.78ZM683.12,1200.12c1.36,0,2.38-.41,3.06-1.24.68-.83,1.05-1.88,1.11-3.15h-3.64c-1.19,0-2.03.19-2.52.58-.49.39-.74.92-.74,1.62s.25,1.23.74,1.62c.49.39,1.15.58,1.99.58Z"/>
      <path class="st27" d="M695.48,1202.53v-15.56h2.89l.28,2.32h.16c.42-.75,1.07-1.39,1.95-1.91.88-.52,1.89-.78,3.04-.78,1.9,0,3.33.58,4.3,1.72.96,1.15,1.44,2.84,1.44,5.08v9.13h-3.32v-8.72c0-1.3-.27-2.3-.82-3.01-.54-.71-1.4-1.07-2.57-1.07s-2.11.39-2.87,1.16c-.76.77-1.15,1.89-1.15,3.36v8.28h-3.32Z"/>
      <path class="st27" d="M721.19,1202.91c-1.44,0-2.73-.33-3.87-1s-2.03-1.62-2.68-2.84c-.65-1.22-.97-2.66-.97-4.31s.33-3.08.99-4.3c.66-1.21,1.55-2.16,2.68-2.84,1.13-.68,2.42-1.02,3.86-1.02,1.99,0,3.59.5,4.81,1.49,1.22.99,2,2.36,2.34,4.09h-3.48c-.21-.75-.63-1.35-1.27-1.79-.64-.44-1.45-.66-2.43-.66-.71,0-1.38.19-2.02.56-.64.38-1.15.94-1.54,1.68s-.58,1.67-.58,2.78.19,2.01.58,2.76c.39.75.9,1.32,1.54,1.71s1.31.58,2.02.58c1,0,1.81-.22,2.42-.66.61-.44,1.04-1.04,1.29-1.82h3.48c-.42,1.71-1.23,3.07-2.45,4.08-1.21,1-2.78,1.5-4.7,1.5Z"/>
      <path class="st27" d="M739.7,1202.91c-1.5,0-2.83-.34-3.98-1.02-1.15-.68-2.05-1.63-2.7-2.84-.65-1.21-.97-2.62-.97-4.23s.32-3.06.96-4.3c.64-1.23,1.54-2.2,2.7-2.89,1.16-.69,2.5-1.04,4.03-1.04s2.8.34,3.89,1.02c1.09.68,1.93,1.58,2.52,2.71s.89,2.37.89,3.73v.67c0,.24-.01.51-.03.8h-11.7c.1,1.44.58,2.54,1.41,3.28.84.74,1.82,1.11,2.95,1.11.98,0,1.76-.2,2.34-.61.58-.41,1-.97,1.27-1.68h3.36c-.38,1.48-1.16,2.73-2.35,3.75-1.19,1.01-2.72,1.52-4.58,1.52ZM739.7,1189.49c-1.02,0-1.93.31-2.73.92-.79.62-1.31,1.48-1.54,2.59h8.28c-.08-1.05-.49-1.89-1.22-2.54-.73-.65-1.66-.97-2.79-.97Z"/>
    </g>
    <g>
      <path class="st27" d="M869.1,1319.89v-21.95h7.43c1.67,0,3.05.29,4.14.86,1.09.58,1.89,1.36,2.42,2.37.52,1,.78,2.15.78,3.45s-.26,2.45-.78,3.45c-.52,1-1.33,1.79-2.42,2.37-1.09.58-2.47.86-4.14.86h-4.11v8.59h-3.33ZM872.43,1308.32h3.95c1.42,0,2.46-.33,3.12-1,.66-.67.99-1.57.99-2.7s-.33-2-.99-2.68c-.66-.68-1.7-1.02-3.12-1.02h-3.95v7.4Z"/>
      <path class="st27" d="M887.55,1319.89v-2.89h5.21v-15.78c0-.69-.33-1.04-1-1.04h-3.76v-2.88h4.36c1.21,0,2.14.32,2.78.96s.96,1.56.96,2.78v15.96h5.24v2.89h-13.77Z"/>
      <path class="st27" d="M911.95,1320.27c-1.23,0-2.27-.21-3.11-.64-.84-.43-1.46-1-1.88-1.72-.42-.72-.63-1.51-.63-2.37,0-1.53.56-2.72,1.68-3.58,1.12-.86,2.7-1.29,4.75-1.29h4.01v-.34c0-2.34-1.09-3.51-3.26-3.51-.9,0-1.66.19-2.27.58-.62.39-1.03,1.01-1.24,1.87h-3.32c.17-1.63.87-2.92,2.12-3.87,1.24-.95,2.82-1.43,4.72-1.43,2.3,0,3.97.56,5.02,1.69,1.04,1.13,1.57,2.69,1.57,4.67v9.57h-2.82l-.28-2.29h-.22c-.46.73-1.03,1.36-1.72,1.88-.69.52-1.72.78-3.1.78ZM912.57,1317.48c1.36,0,2.38-.41,3.06-1.24.68-.83,1.05-1.88,1.11-3.15h-3.64c-1.19,0-2.03.19-2.52.58-.49.39-.74.92-.74,1.62s.25,1.23.74,1.62c.49.39,1.15.58,1.99.58Z"/>
      <path class="st27" d="M933.59,1319.89c-1.53,0-2.74-.37-3.64-1.11-.9-.74-1.35-2.06-1.35-3.97v-7.65h-3.92v-2.82h2.32c1.07,0,1.69-.52,1.88-1.57l.47-2.51h2.57v4.08h6.15v2.82h-6.15v7.59c0,.82.18,1.39.55,1.71.37.33,1,.49,1.9.49h3.64v2.95h-4.42Z"/>
      <path class="st27" d="M950.62,1320.27c-1.5,0-2.83-.34-3.98-1.02-1.15-.68-2.05-1.63-2.7-2.84-.65-1.21-.97-2.62-.97-4.23s.32-3.06.96-4.3c.64-1.23,1.54-2.2,2.7-2.89,1.16-.69,2.5-1.04,4.03-1.04s2.8.34,3.89,1.02c1.09.68,1.93,1.58,2.52,2.71s.89,2.37.89,3.73v.67c0,.24-.01.51-.03.8h-11.7c.1,1.44.58,2.54,1.41,3.28.84.74,1.82,1.11,2.95,1.11.98,0,1.76-.2,2.34-.61.58-.41,1-.97,1.27-1.68h3.36c-.38,1.48-1.16,2.73-2.35,3.75-1.19,1.01-2.72,1.52-4.58,1.52ZM950.62,1306.85c-1.02,0-1.93.31-2.73.92-.79.62-1.31,1.48-1.54,2.59h8.28c-.08-1.05-.49-1.89-1.22-2.54-.73-.65-1.66-.97-2.79-.97Z"/>
    </g>
    <g>
      <path class="st27" d="M874.62,1377.23v-18.97h-5.9v-2.98h15.12v2.98h-5.9v18.97h-3.32Z"/>
      <path class="st27" d="M894.82,1377.6c-1.49,0-2.81-.33-3.98-1s-2.09-1.62-2.76-2.84c-.67-1.22-1-2.66-1-4.31s.33-3.09,1-4.31c.67-1.22,1.59-2.17,2.76-2.84s2.51-1,4.01-1,2.84.33,4,1c1.16.67,2.07,1.62,2.73,2.84.66,1.22.99,2.66.99,4.31s-.33,3.09-1,4.31c-.67,1.22-1.58,2.17-2.74,2.84-1.16.67-2.49,1-4,1ZM894.82,1374.43c.79,0,1.53-.18,2.2-.53.67-.36,1.21-.9,1.62-1.65.41-.74.61-1.68.61-2.81s-.2-2.09-.61-2.82c-.41-.73-.94-1.28-1.6-1.63s-1.39-.53-2.18-.53-1.53.18-2.2.53c-.67.36-1.21.9-1.62,1.63-.41.73-.61,1.67-.61,2.82,0,1.71.43,2.97,1.3,3.78.87.81,1.9,1.21,3.09,1.21Z"/>
      <path class="st27" d="M913.54,1377.6c-1.5,0-2.83-.34-3.98-1.02-1.15-.68-2.05-1.63-2.7-2.84-.65-1.21-.97-2.62-.97-4.23s.32-3.06.96-4.3c.64-1.23,1.54-2.2,2.7-2.89,1.16-.69,2.5-1.04,4.03-1.04s2.8.34,3.89,1.02c1.09.68,1.93,1.58,2.52,2.71s.89,2.37.89,3.73v.67c0,.24-.01.51-.03.8h-11.7c.1,1.44.58,2.54,1.41,3.28.84.74,1.82,1.11,2.95,1.11.98,0,1.76-.2,2.34-.61.58-.41,1-.97,1.27-1.68h3.36c-.38,1.48-1.16,2.73-2.35,3.75-1.19,1.01-2.72,1.52-4.58,1.52ZM913.54,1364.18c-1.02,0-1.93.31-2.73.92-.79.62-1.31,1.48-1.54,2.59h8.28c-.08-1.05-.49-1.89-1.22-2.54-.73-.65-1.66-.97-2.79-.97Z"/>
      <path class="st27" d="M932.02,1377.6c-2.05,0-3.68-.48-4.89-1.44-1.21-.96-1.9-2.24-2.07-3.83h3.42c.13.73.5,1.33,1.11,1.79s1.44.69,2.46.69,1.74-.2,2.27-.61c.53-.41.8-.88.8-1.43,0-.79-.32-1.34-.96-1.63s-1.57-.51-2.81-.66c-1.07-.12-2.03-.37-2.9-.74-.87-.37-1.55-.87-2.05-1.5-.5-.64-.75-1.44-.75-2.4,0-1.36.53-2.46,1.6-3.29s2.55-1.25,4.45-1.25,3.38.43,4.42,1.29c1.05.86,1.65,2.03,1.82,3.51h-3.2c-.08-.63-.41-1.12-.97-1.49-.56-.37-1.27-.55-2.1-.55s-1.54.16-2.04.49c-.5.32-.75.75-.75,1.27,0,1.13,1.21,1.82,3.64,2.07,1.15.13,2.17.34,3.07.64.9.3,1.61.77,2.13,1.41s.78,1.53.78,2.68c.02.94-.25,1.79-.8,2.54-.55.75-1.32,1.35-2.29,1.79-.97.44-2.11.66-3.4.66Z"/>
      <path class="st27" d="M952.12,1377.23c-1.53,0-2.74-.37-3.64-1.11-.9-.74-1.35-2.06-1.35-3.97v-7.65h-3.92v-2.82h2.32c1.07,0,1.69-.52,1.88-1.57l.47-2.51h2.57v4.08h6.15v2.82h-6.15v7.59c0,.82.18,1.39.55,1.71.37.33,1,.49,1.9.49h3.64v2.95h-4.42Z"/>
      <path class="st27" d="M968.96,1377.6c-1.49,0-2.81-.33-3.98-1s-2.09-1.62-2.76-2.84c-.67-1.22-1-2.66-1-4.31s.33-3.09,1-4.31c.67-1.22,1.59-2.17,2.76-2.84s2.51-1,4.01-1,2.84.33,4,1c1.16.67,2.07,1.62,2.73,2.84.66,1.22.99,2.66.99,4.31s-.33,3.09-1,4.31c-.67,1.22-1.58,2.17-2.74,2.84-1.16.67-2.49,1-4,1ZM968.96,1374.43c.79,0,1.53-.18,2.2-.53.67-.36,1.21-.9,1.62-1.65.41-.74.61-1.68.61-2.81s-.2-2.09-.61-2.82c-.41-.73-.94-1.28-1.6-1.63s-1.39-.53-2.18-.53-1.53.18-2.2.53c-.67.36-1.21.9-1.62,1.63-.41.73-.61,1.67-.61,2.82,0,1.71.43,2.97,1.3,3.78.87.81,1.9,1.21,3.09,1.21Z"/>
      <path class="st27" d="M980.25,1384.13v-22.46h2.89l.25,2.38h.19c.42-.77,1.05-1.43,1.9-1.96s1.86-.8,3.03-.8,2.32.31,3.33.93c1,.62,1.8,1.53,2.4,2.73.6,1.2.89,2.7.89,4.5s-.31,3.27-.92,4.49c-.62,1.21-1.45,2.13-2.49,2.74s-2.22.92-3.51.92c-1.15,0-2.11-.23-2.88-.69-.77-.46-1.35-.98-1.73-1.57v8.78h-3.32ZM987.62,1374.43c1.17,0,2.15-.42,2.93-1.25.78-.84,1.18-2.09,1.18-3.76s-.39-2.92-1.18-3.73-1.76-1.22-2.93-1.22-2.18.41-2.96,1.24c-.78.83-1.18,2.08-1.18,3.75s.39,2.9,1.18,3.73c.78.84,1.77,1.25,2.96,1.25Z"/>
    </g>
    <g>
      <path class="st27" d="M868.23,1116.82v-21.95h3.51l4.55,9.91,4.55-9.91h3.51v21.95h-3.17v-15.62l-3.58,7.84h-2.63l-3.58-7.81v15.59h-3.17Z"/>
      <path class="st27" d="M893.41,1117.19c-1.23,0-2.27-.21-3.11-.64-.84-.43-1.46-1-1.88-1.72-.42-.72-.63-1.51-.63-2.37,0-1.53.56-2.72,1.68-3.58,1.12-.86,2.7-1.29,4.75-1.29h4.01v-.34c0-2.34-1.09-3.51-3.26-3.51-.9,0-1.66.19-2.27.58-.62.39-1.03,1.01-1.24,1.87h-3.32c.17-1.63.87-2.92,2.12-3.87,1.24-.95,2.82-1.43,4.72-1.43,2.3,0,3.97.56,5.02,1.69,1.04,1.13,1.57,2.69,1.57,4.67v9.57h-2.82l-.28-2.29h-.22c-.46.73-1.03,1.36-1.72,1.88-.69.52-1.72.78-3.1.78ZM894.04,1114.4c1.36,0,2.38-.41,3.06-1.24.68-.83,1.05-1.88,1.11-3.15h-3.64c-1.19,0-2.03.19-2.52.58-.49.39-.74.92-.74,1.62s.25,1.23.74,1.62c.49.39,1.15.58,1.99.58Z"/>
      <path class="st27" d="M915.05,1116.82c-1.53,0-2.74-.37-3.64-1.11-.9-.74-1.35-2.06-1.35-3.97v-7.65h-3.92v-2.82h2.32c1.07,0,1.69-.52,1.88-1.57l.47-2.51h2.57v4.08h6.15v2.82h-6.15v7.59c0,.82.18,1.39.55,1.71.37.33,1,.49,1.9.49h3.64v2.95h-4.42Z"/>
      <path class="st27" d="M932.08,1117.19c-1.5,0-2.83-.34-3.98-1.02-1.15-.68-2.05-1.63-2.7-2.84-.65-1.21-.97-2.62-.97-4.23s.32-3.06.96-4.3c.64-1.23,1.54-2.2,2.7-2.89,1.16-.69,2.5-1.04,4.03-1.04s2.8.34,3.89,1.02c1.09.68,1.93,1.58,2.52,2.71s.89,2.37.89,3.73v.67c0,.24-.01.51-.03.8h-11.7c.1,1.44.58,2.54,1.41,3.28.84.74,1.82,1.11,2.95,1.11.98,0,1.76-.2,2.34-.61.58-.41,1-.97,1.27-1.68h3.36c-.38,1.48-1.16,2.73-2.35,3.75-1.19,1.01-2.72,1.52-4.58,1.52ZM932.08,1103.77c-1.02,0-1.93.31-2.73.92-.79.62-1.31,1.48-1.54,2.59h8.28c-.08-1.05-.49-1.89-1.22-2.54-.73-.65-1.66-.97-2.79-.97Z"/>
      <path class="st27" d="M943.43,1116.82v-2.89h3.79v-8.75c0-.69-.33-1.04-1-1.04h-2.48v-2.88h3.73c.86,0,1.56.25,2.1.74.54.49.82,1.18.82,2.05v.38h.16c.23-1.17.73-2.05,1.49-2.65.76-.6,1.88-.89,3.34-.89h2.42v3.51h-3.39c-1.23,0-2.18.43-2.85,1.29-.67.86-1,1.88-1,3.07v5.17h4.83v2.89h-11.95Z"/>
      <path class="st27" d="M962.41,1116.82v-2.89h4.89v-8.75c0-.69-.33-1.04-1-1.04h-3.45v-2.88h4.05c1.3,0,2.24.3,2.84.89.6.6.89,1.54.89,2.84v8.94h4.89v2.89h-13.11ZM968.65,1098.88c-.73,0-1.34-.24-1.83-.71s-.74-1.05-.74-1.74.25-1.27.74-1.73c.49-.46,1.1-.69,1.83-.69s1.37.23,1.87.69c.49.46.74,1.04.74,1.73s-.25,1.27-.74,1.74c-.49.47-1.11.71-1.87.71Z"/>
      <path class="st27" d="M986.09,1117.19c-1.23,0-2.27-.21-3.11-.64-.84-.43-1.46-1-1.88-1.72-.42-.72-.63-1.51-.63-2.37,0-1.53.56-2.72,1.68-3.58,1.12-.86,2.7-1.29,4.75-1.29h4.01v-.34c0-2.34-1.09-3.51-3.26-3.51-.9,0-1.66.19-2.27.58-.62.39-1.03,1.01-1.24,1.87h-3.32c.17-1.63.87-2.92,2.12-3.87,1.24-.95,2.82-1.43,4.72-1.43,2.3,0,3.97.56,5.02,1.69,1.04,1.13,1.57,2.69,1.57,4.67v9.57h-2.82l-.28-2.29h-.22c-.46.73-1.03,1.36-1.72,1.88-.69.52-1.72.78-3.1.78ZM986.71,1114.4c1.36,0,2.38-.41,3.06-1.24.68-.83,1.05-1.88,1.11-3.15h-3.64c-1.19,0-2.03.19-2.52.58-.49.39-.74.92-.74,1.62s.25,1.23.74,1.62c.49.39,1.15.58,1.99.58Z"/>
      <path class="st27" d="M998.76,1116.82v-2.89h5.21v-15.78c0-.69-.33-1.04-1-1.04h-3.76v-2.88h4.36c1.21,0,2.14.32,2.78.96s.96,1.56.96,2.78v15.96h5.24v2.89h-13.77Z"/>
    </g>
    <path class="st27" d="M1026.24,1117.16c-2.07,0-3.74-.6-5-1.8-1.27-1.2-1.9-2.85-1.9-4.94,0-1.3.33-2.48,1-3.56.67-1.08,1.63-1.98,2.88-2.71-1.02-1.5-1.54-2.94-1.54-4.3,0-1,.22-1.91.67-2.71.45-.8,1.11-1.45,1.99-1.93.88-.48,1.93-.72,3.17-.72,1.84,0,3.26.5,4.25,1.49s1.49,2.23,1.49,3.72h-3.2c-.02-.73-.28-1.31-.77-1.73-.49-.42-1.09-.63-1.8-.63-.79,0-1.42.23-1.88.69s-.69,1.06-.69,1.79c0,.63.17,1.26.52,1.9.34.64.83,1.35,1.46,2.15l4.42,5.61,1.85-4.05h3.45l-2.95,6.27c-.08.17-.16.32-.22.47l3.64,4.64h-3.83l-1.57-1.98c-.67.73-1.44,1.3-2.32,1.71-.88.41-1.92.61-3.14.61ZM1022.66,1110.33c0,1.11.33,2.03,1,2.76.67.73,1.55,1.1,2.63,1.1.73,0,1.37-.16,1.91-.47.54-.31,1.04-.76,1.5-1.35l-4.77-5.93c-1.53.96-2.29,2.26-2.29,3.89Z"/>
    <g>
      <path class="st27" d="M876.34,1145.61c-1.84,0-3.4-.47-4.69-1.41-1.29-.94-2.27-2.26-2.95-3.97-.68-1.7-1.02-3.69-1.02-5.94s.34-4.27,1.02-5.98c.68-1.7,1.67-3.03,2.96-3.98,1.3-.95,2.85-1.43,4.67-1.43,2.36,0,4.24.64,5.65,1.93,1.4,1.29,2.22,3.03,2.45,5.22h-3.67c-.19-1.15-.65-2.11-1.4-2.87-.74-.76-1.76-1.14-3.06-1.14-1.65,0-2.94.73-3.86,2.2-.92,1.46-1.38,3.48-1.38,6.05s.46,4.55,1.38,6.01c.92,1.45,2.21,2.18,3.86,2.18,1.34,0,2.36-.35,3.07-1.05.71-.7,1.17-1.63,1.38-2.78h3.67c-.33,2.15-1.18,3.85-2.54,5.1-1.36,1.25-3.21,1.87-5.55,1.87Z"/>
      <path class="st27" d="M894.81,1145.61c-1.49,0-2.81-.33-3.98-1s-2.09-1.62-2.76-2.84c-.67-1.22-1-2.66-1-4.31s.33-3.09,1-4.31c.67-1.22,1.59-2.17,2.76-2.84s2.51-1,4.01-1,2.84.33,4,1c1.16.67,2.07,1.62,2.73,2.84.66,1.22.99,2.66.99,4.31s-.33,3.09-1,4.31c-.67,1.22-1.58,2.17-2.74,2.84-1.16.67-2.49,1-4,1ZM894.81,1142.45c.79,0,1.53-.18,2.2-.53.67-.36,1.21-.9,1.62-1.65.41-.74.61-1.68.61-2.81s-.2-2.09-.61-2.82c-.41-.73-.94-1.28-1.6-1.63s-1.39-.53-2.18-.53-1.53.18-2.2.53c-.67.36-1.21.9-1.62,1.63-.41.73-.61,1.67-.61,2.82,0,1.71.43,2.97,1.3,3.78.87.81,1.9,1.21,3.09,1.21Z"/>
      <path class="st27" d="M906.07,1145.24v-2.89h5.21v-15.78c0-.69-.33-1.04-1-1.04h-3.76v-2.88h4.36c1.21,0,2.14.32,2.78.96s.96,1.56.96,2.78v15.96h5.24v2.89h-13.77Z"/>
      <path class="st27" d="M931.88,1145.61c-1.49,0-2.81-.33-3.98-1s-2.09-1.62-2.76-2.84c-.67-1.22-1-2.66-1-4.31s.33-3.09,1-4.31c.67-1.22,1.59-2.17,2.76-2.84s2.51-1,4.01-1,2.84.33,4,1c1.16.67,2.07,1.62,2.73,2.84.66,1.22.99,2.66.99,4.31s-.33,3.09-1,4.31c-.67,1.22-1.58,2.17-2.74,2.84-1.16.67-2.49,1-4,1ZM931.88,1142.45c.79,0,1.53-.18,2.2-.53.67-.36,1.21-.9,1.62-1.65.41-.74.61-1.68.61-2.81s-.2-2.09-.61-2.82c-.41-.73-.94-1.28-1.6-1.63s-1.39-.53-2.18-.53-1.53.18-2.2.53c-.67.36-1.21.9-1.62,1.63-.41.73-.61,1.67-.61,2.82,0,1.71.43,2.97,1.3,3.78.87.81,1.9,1.21,3.09,1.21Z"/>
      <path class="st27" d="M943.42,1145.24v-2.89h3.79v-8.75c0-.69-.33-1.04-1-1.04h-2.48v-2.88h3.73c.86,0,1.56.25,2.1.74.54.49.82,1.18.82,2.05v.38h.16c.23-1.17.73-2.05,1.49-2.65.76-.6,1.88-.89,3.34-.89h2.42v3.51h-3.39c-1.23,0-2.18.43-2.85,1.29-.67.86-1,1.88-1,3.07v5.17h4.83v2.89h-11.95Z"/>
    </g>
    <g class="st38">
      <path class="st9" d="M808.18,1160.79c-13.91,10.73,13.91,21.07,0,31.81"/>
      <path class="st9" d="M808.18,1272.12c-13.91,8.75,13.91,17.1,0,25.84-13.91,8.75,13.91,17.1,0,25.84-13.91,8.75,13.91,17.1,0,25.84s13.91,17.1,0,25.84"/>
    </g>
    <g class="st44">
      <rect class="st56" x="723.91" y="1091.46" width="119.28" height="9.94" transform="translate(-545.79 875.19) rotate(-45)"/>
      <rect class="st25" x="730.96" y="1098.49" width="119.28" height="9.94" transform="translate(-548.71 882.23) rotate(-45)"/>
      <rect class="st47" x="738.01" y="1105.53" width="119.28" height="9.94" transform="translate(-551.62 889.28) rotate(-45)"/>
      <rect class="st24" x="745.06" y="1112.57" width="119.28" height="9.94" transform="translate(-554.53 896.33) rotate(-45)"/>
      <rect class="st21" x="752.01" y="1119.56" width="119.28" height="9.94" transform="translate(-557.44 903.29) rotate(-45)"/>
      <rect class="st55" x="759.06" y="1126.6" width="119.28" height="9.94" transform="translate(-560.35 910.34) rotate(-45)"/>
      <rect class="st23" x="766.11" y="1133.64" width="119.28" height="9.94" transform="translate(-563.26 917.38) rotate(-45)"/>
      <rect class="st52" x="773.16" y="1140.68" width="119.28" height="9.94" transform="translate(-566.17 924.43) rotate(-45)"/>
    </g>
    <g class="st41">
      <path class="st9" d="M808.18,1081.28c21.96,0,39.76,17.8,39.76,39.76s-17.8,39.76-39.76,39.76-39.76-17.8-39.76-39.76,17.8-39.76,39.76-39.76Z"/>
      <path class="st27" d="M808.18,1196.58c19.76,0,35.78,16.02,35.78,35.78s-16.02,35.78-35.78,35.78-35.78-16.02-35.78-35.78,16.02-35.78,35.78-35.78"/>
      <path class="st8" d="M808.18,1196.58c19.76,0,35.78,16.02,35.78,35.78s-16.02,35.78-35.78,35.78-35.78-16.02-35.78-35.78,16.02-35.78,35.78-35.78Z"/>
      <line class="st1" x1="808.18" y1="1212.48" x2="808.18" y2="1202.94"/>
      <line class="st1" x1="817.32" y1="1214.87" x2="821.69" y2="1206.52"/>
      <line class="st1" x1="824.48" y1="1221.23" x2="832.43" y2="1215.66"/>
      <line class="st1" x1="827.66" y1="1229.97" x2="837.2" y2="1228.78"/>
      <line class="st1" x1="826.47" y1="1239.52" x2="835.61" y2="1242.7"/>
      <line class="st1" x1="821.3" y1="1247.07" x2="827.66" y2="1254.23"/>
      <line class="st1" x1="812.95" y1="1251.44" x2="815.33" y2="1260.99"/>
      <line class="st1" x1="803.41" y1="1251.44" x2="801.02" y2="1260.99"/>
      <line class="st1" x1="795.06" y1="1247.07" x2="788.7" y2="1254.23"/>
      <line class="st1" x1="789.89" y1="1239.52" x2="780.74" y2="1242.7"/>
      <line class="st1" x1="788.7" y1="1229.97" x2="779.15" y2="1228.78"/>
      <line class="st1" x1="791.88" y1="1221.23" x2="783.92" y2="1215.66"/>
      <line class="st1" x1="799.03" y1="1214.87" x2="794.66" y2="1206.52"/>
      <path class="st46" d="M805.87,1228.86c-.88,1.27-1.63,2.54-2.23,3.9-.48,1.03-.91,2.35-1.27,3.86-.36,1.51-.56,2.74-.56,3.74h-3.46c.12-3.02,1.11-6.16,2.98-9.46,1.23-2.03,2.23-3.46,3.06-4.25h-8.43v-2.98h11.97v2.58c-.48.48-1.19,1.35-2.07,2.62"/>
      <path class="st46" d="M810.72,1239.24c-.95-.99-1.47-2.19-1.47-3.62,0-.95.2-1.79.64-2.59.44-.79,1.07-1.35,1.91-1.75-.84-.56-1.35-1.11-1.59-1.75-.24-.64-.36-1.23-.36-1.79,0-1.23.48-2.27,1.39-3.14.91-.88,2.23-1.31,3.9-1.31s2.98.44,3.9,1.31c.91.87,1.39,1.91,1.39,3.14,0,.56-.12,1.15-.36,1.79-.24.64-.8,1.19-1.59,1.63.83.48,1.47,1.07,1.87,1.87.4.8.64,1.63.64,2.59,0,1.43-.52,2.62-1.59,3.62-1.03.99-2.51,1.51-4.41,1.51s-3.3-.52-4.29-1.51h.04ZM812.71,1235.42c0,.84.2,1.47.64,1.95.44.48,1.03.68,1.79.68s1.35-.24,1.79-.68c.44-.48.64-1.11.64-1.95s-.2-1.51-.68-1.95c-.44-.44-1.03-.68-1.79-.68s-1.35.24-1.79.68c-.44.44-.68,1.11-.68,1.95h.08ZM813.58,1229.66c.36.4.88.6,1.55.6s1.19-.2,1.55-.6c.36-.4.56-.88.56-1.51,0-.68-.2-1.19-.56-1.55-.36-.36-.88-.56-1.55-.56s-1.19.2-1.55.56c-.36.36-.56.91-.56,1.55,0,.6.2,1.11.56,1.51"/>
      <line class="st9" x1="776.37" y1="1375.49" x2="839.98" y2="1375.49"/>
    </g>
    <g class="st40">
      <path class="st27" d="M897.74,386.56c1.4-1.4,2.1-3.1,2.1-5.11v-25.81c0-2.58.46-4.73,1.4-6.45.93-1.72,2.26-3.03,3.98-3.93,1.72-.9,3.69-1.34,5.92-1.34,3.23,0,5.7.93,7.42,2.8,1.72,1.87,2.58,4.55,2.58,8.07v26.67c0,2.01.7,3.71,2.1,5.11,1.4,1.4,3.07,2.1,5,2.1s3.71-.7,5.11-2.1c1.4-1.4,2.1-3.1,2.1-5.11v-26.67c0-2.29.39-4.25,1.18-5.86.79-1.61,1.95-2.83,3.5-3.66,1.54-.82,3.42-1.24,5.65-1.24,3.15,0,5.59.88,7.31,2.63,1.72,1.76,2.58,4.46,2.58,8.12v26.67c0,2.01.7,3.71,2.1,5.11,1.4,1.4,3.1,2.1,5.11,2.1s3.6-.7,5-2.1,2.1-3.1,2.1-5.11v-28.83c0-4.73-.88-8.75-2.64-12.05-1.76-3.3-4.18-5.79-7.26-7.48-3.08-1.68-6.63-2.53-10.65-2.53-2.73,0-5.29.4-7.69,1.18-2.4.79-4.68,2.21-6.83,4.25-2.15,2.04-4.23,4.97-6.24,8.77l4.95-1.18c-1.58-4.09-4.05-7.28-7.42-9.57-3.37-2.29-7.14-3.44-11.29-3.44-2.3,0-4.56.43-6.78,1.29-2.22.86-4.29,2.17-6.19,3.93-1.9,1.76-3.6,4.03-5.11,6.83l3.12.32-.22-4.95c-.07-1.86-.74-3.48-1.99-4.84-1.26-1.36-2.96-2.04-5.11-2.04-1.94,0-3.6.7-5,2.1-1.4,1.4-2.1,3.1-2.1,5.11v43.13c0,2.01.7,3.71,2.1,5.11,1.4,1.4,3.07,2.1,5,2.1s3.71-.7,5.11-2.1M839.44,375.43c-1.33-1.08-1.99-2.51-1.99-4.3,0-1.58.63-2.92,1.88-4.03,1.25-1.11,3.53-1.99,6.83-2.64,1.36-.36,2.71-.63,4.03-.81,1.33-.18,2.58-.41,3.76-.7,1.18-.29,2.21-.72,3.07-1.29.29-.14.48-.21.59-.21s.16.11.16.32v3.77c0,2.37-.56,4.41-1.67,6.13-1.11,1.72-2.6,3.05-4.46,3.98-1.86.93-3.94,1.4-6.24,1.4-2.65,0-4.64-.54-5.97-1.61M852.89,386.88c2.62-1.54,4.93-3.78,6.94-6.72h.32v.75c.5,2.3,1.56,4.14,3.17,5.54,1.61,1.4,3.89,2.13,6.83,2.2,2.65.07,4.68-.57,6.08-1.94,1.4-1.36,2.1-3.01,2.1-4.95,0-1.72-.5-3.08-1.51-4.09-1.01-1-2.08-1.72-3.23-2.15-.65-.21-1.08-.48-1.29-.81-.21-.32-.32-.95-.32-1.88v-21.19c0-4.16-.84-7.82-2.53-10.97-1.69-3.15-4.18-5.61-7.47-7.37-3.3-1.76-7.39-2.64-12.26-2.64-3.16,0-6.1.38-8.82,1.13-2.73.75-5.11,1.77-7.15,3.06-2.04,1.29-3.64,2.74-4.79,4.36-1.15,1.61-1.72,3.32-1.72,5.11s.59,3.21,1.77,4.25c1.18,1.04,2.78,1.56,4.79,1.56,1.51,0,2.83-.3,3.98-.91,1.15-.61,2.19-1.38,3.12-2.31.93-1.22,2.11-2.24,3.55-3.07,1.43-.82,3.26-1.24,5.49-1.24,1.72,0,3.15.21,4.3.65,1.15.43,2.03,1.07,2.64,1.94.61.86.91,1.86.91,3.01,0,1.43-.59,2.49-1.78,3.17-1.18.68-2.76,1.18-4.73,1.51-1.97.32-4.14.66-6.51,1.02-7.6,1.15-13.1,3.21-16.51,6.18-3.41,2.98-5.11,7.08-5.11,12.31,0,3.66.91,6.72,2.74,9.2,1.83,2.47,4.19,4.36,7.1,5.65,2.9,1.29,6.01,1.94,9.3,1.94,4.45,0,7.98-.77,10.59-2.31M800.94,386.56c1.4-1.4,2.1-3.1,2.1-5.11v-24.84c0-2.37.41-4.43,1.24-6.19.82-1.76,2.1-3.12,3.82-4.09,1.72-.97,3.94-1.45,6.67-1.45,2.29,0,4.18-.7,5.65-2.1,1.47-1.4,2.21-3.1,2.21-5.11,0-2.15-.7-3.87-2.1-5.16-1.4-1.29-3.24-1.94-5.54-1.94s-4.27.61-6.13,1.83c-1.86,1.22-3.44,2.71-4.73,4.46-1.29,1.76-2.33,3.5-3.12,5.22l2.04,1.29v-5.05c0-1.94-.61-3.62-1.83-5.06-1.22-1.43-2.9-2.15-5.06-2.15s-3.84.7-5.27,2.1c-1.43,1.4-2.15,3.1-2.15,5.11v43.13c0,2.01.7,3.71,2.1,5.11,1.4,1.4,3.07,2.1,5,2.1s3.71-.7,5.11-2.1M740.11,371.12c-2.22-2.65-3.33-6.6-3.33-11.83,0-3.37.48-6.22,1.45-8.55.97-2.33,2.4-4.14,4.3-5.43,1.9-1.29,4.18-1.94,6.83-1.94,4.02,0,7.15,1.36,9.41,4.09,2.26,2.73,3.39,6.63,3.39,11.72s-1.11,8.93-3.33,11.72c-2.22,2.8-5.38,4.19-9.47,4.19s-7.03-1.33-9.25-3.98M755.28,385.97c2.65-1.29,4.98-3.15,6.99-5.59v4.09c0,4.37-1.09,7.67-3.28,9.9-2.19,2.22-5.65,3.33-10.38,3.33-2.01,0-3.69-.21-5.05-.65-1.36-.43-2.55-.95-3.55-1.56-1.01-.61-2.01-1.18-3.01-1.72-1.01-.54-2.19-.88-3.55-1.02-2.01-.21-3.64.27-4.89,1.45-1.26,1.18-1.96,2.64-2.1,4.36-.22,1.36-.09,2.58.38,3.66.46,1.08,1.34,2.08,2.63,3.01,1.43,1.15,3.19,2.13,5.27,2.96,2.08.82,4.34,1.45,6.78,1.88,2.44.43,4.84.65,7.21.65,5.45,0,10.25-1.02,14.41-3.07,4.16-2.04,7.4-5.04,9.73-8.98,2.33-3.94,3.49-8.75,3.49-14.41v-46.25c0-2.08-.68-3.8-2.04-5.16-1.36-1.36-3.05-2.04-5.05-2.04s-3.69.59-5.06,1.78c-1.36,1.18-2.04,2.64-2.04,4.36v1.08c-1.72-2.37-3.85-4.19-6.4-5.48-2.55-1.29-5.65-1.94-9.3-1.94-4.02,0-7.55.82-10.59,2.47-3.05,1.65-5.59,3.87-7.64,6.67-2.04,2.8-3.59,5.93-4.62,9.41-1.04,3.48-1.56,7.01-1.56,10.59,0,4.95.92,9.56,2.74,13.82,1.83,4.27,4.53,7.73,8.12,10.38,3.58,2.65,7.96,3.98,13.12,3.98,3.51,0,6.6-.65,9.25-1.94M679.18,375.43c-1.33-1.08-1.99-2.51-1.99-4.3,0-1.58.63-2.92,1.88-4.03,1.25-1.11,3.53-1.99,6.83-2.64,1.36-.36,2.71-.63,4.03-.81,1.33-.18,2.58-.41,3.77-.7,1.18-.29,2.21-.72,3.07-1.29.29-.14.48-.21.59-.21s.16.11.16.32v3.77c0,2.37-.56,4.41-1.67,6.13-1.11,1.72-2.6,3.05-4.46,3.98-1.86.93-3.94,1.4-6.24,1.4-2.65,0-4.64-.54-5.97-1.61M692.63,386.88c2.62-1.54,4.93-3.78,6.94-6.72h.32v.75c.5,2.3,1.56,4.14,3.17,5.54,1.61,1.4,3.89,2.13,6.83,2.2,2.65.07,4.68-.57,6.08-1.94,1.4-1.36,2.1-3.01,2.1-4.95,0-1.72-.5-3.08-1.51-4.09-1.01-1-2.08-1.72-3.23-2.15-.65-.21-1.08-.48-1.29-.81-.22-.32-.32-.95-.32-1.88v-21.19c0-4.16-.84-7.82-2.53-10.97-1.69-3.15-4.18-5.61-7.47-7.37-3.3-1.76-7.39-2.64-12.26-2.64-3.16,0-6.09.38-8.82,1.13-2.73.75-5.11,1.77-7.15,3.06-2.04,1.29-3.64,2.74-4.79,4.36-1.15,1.61-1.72,3.32-1.72,5.11s.59,3.21,1.78,4.25c1.18,1.04,2.78,1.56,4.79,1.56,1.51,0,2.83-.3,3.98-.91,1.15-.61,2.19-1.38,3.12-2.31.93-1.22,2.11-2.24,3.55-3.07,1.43-.82,3.26-1.24,5.49-1.24,1.72,0,3.15.21,4.3.65,1.15.43,2.03,1.07,2.64,1.94.61.86.91,1.86.91,3.01,0,1.43-.59,2.49-1.78,3.17-1.18.68-2.76,1.18-4.73,1.51-1.97.32-4.14.66-6.51,1.02-7.6,1.15-13.11,3.21-16.51,6.18-3.41,2.98-5.11,7.08-5.11,12.31,0,3.66.91,6.72,2.74,9.2,1.83,2.47,4.19,4.36,7.1,5.65s6.01,1.94,9.3,1.94c4.45,0,7.98-.77,10.59-2.31M652.24,323.53c1.43-1.47,2.15-3.53,2.15-6.18s-.72-4.61-2.15-6.08c-1.44-1.47-3.33-2.2-5.7-2.2-2.22,0-4.05.74-5.48,2.2-1.43,1.47-2.15,3.49-2.15,6.08s.72,4.71,2.15,6.18c1.43,1.47,3.26,2.21,5.48,2.21,2.37,0,4.27-.73,5.7-2.21M651.65,386.5c1.4-1.43,2.1-3.12,2.1-5.05v-43.24c0-1.94-.7-3.6-2.1-5s-3.07-2.1-5-2.1-3.71.7-5.11,2.1-2.1,3.06-2.1,5v43.24c0,1.94.7,3.62,2.1,5.05,1.4,1.43,3.1,2.15,5.11,2.15s3.6-.72,5-2.15M591.42,371.98c-2.26-2.87-3.39-6.81-3.39-11.83s1.13-9.32,3.39-12.26c2.26-2.94,5.36-4.41,9.3-4.41s7.01,1.49,9.2,4.46c2.19,2.98,3.28,6.97,3.28,11.99s-1.13,9.16-3.39,11.99c-2.26,2.83-5.25,4.29-8.98,4.36-4.02,0-7.15-1.43-9.41-4.3M605.83,387.26c2.4-1.29,4.41-2.92,6.02-4.89,1.61-1.97,2.78-4.03,3.5-6.18l-2.47.21-.11,3.44c-.07,2.51.59,4.61,1.99,6.29,1.4,1.68,3.1,2.53,5.11,2.53s3.8-.7,5.16-2.1c1.36-1.4,2.04-3.14,2.04-5.22v-65.07c0-2.08-.68-3.8-2.04-5.16-1.36-1.36-3.08-2.04-5.16-2.04s-3.69.68-5.05,2.04-2.04,3.08-2.04,5.16v25.06l2.26-.97c-1.36-2.15-2.9-3.94-4.62-5.38-1.72-1.43-3.66-2.53-5.81-3.28-2.15-.75-4.55-1.13-7.21-1.13-4.66,0-8.8,1.26-12.42,3.77-3.62,2.51-6.45,5.93-8.5,10.27-2.04,4.34-3.07,9.38-3.07,15.11s1.02,11.04,3.07,15.49c2.04,4.45,4.86,7.89,8.44,10.33,3.58,2.44,7.78,3.66,12.58,3.66,3.15,0,5.93-.65,8.34-1.94"/>
      <path class="st27" d="M929.09,247.5c2.01-1.76,4.52-2.64,7.53-2.64s5.61.91,7.58,2.74c1.97,1.83,3.21,4.54,3.71,8.12h-22.69c.57-3.73,1.86-6.47,3.87-8.23M946.51,289.61c2.8-.79,5.25-1.84,7.37-3.17,2.11-1.33,3.76-2.8,4.95-4.41,1.18-1.61,1.78-3.28,1.78-5,0-2.08-.61-3.71-1.83-4.89-1.22-1.18-2.76-1.77-4.62-1.77-1.44,0-2.6.31-3.49.91-.9.61-1.7,1.27-2.42,1.99-1.15,1.29-2.44,2.4-3.87,3.33-1.44.93-3.33,1.4-5.7,1.4-2.22,0-4.25-.43-6.08-1.29-1.83-.86-3.39-2.21-4.68-4.03s-2.19-4.14-2.69-6.94h28.5c3.01,0,5.18-.79,6.51-2.37,1.33-1.58,1.99-3.76,1.99-6.56s-.58-5.63-1.72-8.5c-1.15-2.87-2.83-5.52-5.05-7.96-2.22-2.44-4.93-4.41-8.12-5.92-3.19-1.51-6.8-2.26-10.81-2.26-5.38,0-10.02,1.33-13.93,3.98-3.91,2.65-6.92,6.2-9.04,10.65-2.12,4.45-3.17,9.43-3.17,14.95,0,5.88,1.17,10.99,3.5,15.33,2.33,4.34,5.52,7.71,9.57,10.11,4.05,2.4,8.66,3.6,13.82,3.6,3.37,0,6.45-.4,9.25-1.18M863.53,288.16c1.4-1.4,2.1-3.1,2.1-5.11v-25.81c0-2.15.45-4.1,1.35-5.86.9-1.76,2.22-3.17,3.98-4.25,1.76-1.08,3.85-1.61,6.29-1.61,3.23,0,5.74,1.02,7.53,3.06,1.79,2.04,2.69,4.75,2.69,8.12v26.35c0,2.01.7,3.71,2.1,5.11,1.4,1.4,3.1,2.1,5.11,2.1s3.69-.7,5.06-2.1c1.36-1.4,2.04-3.1,2.04-5.11v-28.72c0-4.8-.86-8.85-2.58-12.15-1.72-3.3-4.11-5.79-7.15-7.47-3.05-1.68-6.51-2.53-10.38-2.53-4.16,0-7.82,1.08-10.97,3.23-3.16,2.15-5.91,5.38-8.28,9.68l3.23,1.4v-28.61c0-2.01-.7-3.71-2.1-5.11-1.4-1.4-3.1-2.1-5.11-2.1s-3.6.7-5,2.1c-1.4,1.4-2.1,3.1-2.1,5.11v65.18c0,2.01.7,3.71,2.1,5.11,1.4,1.4,3.06,2.1,5,2.1s3.71-.7,5.11-2.1M835.95,246.27c1.72,0,3.19-.61,4.41-1.83,1.22-1.22,1.83-2.69,1.83-4.41s-.61-3.19-1.83-4.41c-1.22-1.22-2.69-1.83-4.41-1.83h-25.92c-1.79,0-3.3.61-4.52,1.83-1.22,1.22-1.83,2.69-1.83,4.41s.61,3.19,1.83,4.41c1.22,1.22,2.72,1.83,4.52,1.83h25.92ZM834.01,289.29c2.08-.65,3.8-1.65,5.16-3.01,1.36-1.36,2.04-3.01,2.04-4.95,0-2.08-.68-3.8-2.04-5.16-1.36-1.36-3.05-2.04-5.05-2.04-1.01,0-1.86.16-2.58.48-.72.32-1.35.68-1.88,1.08-.54.39-1.13.59-1.77.59s-1.11-.27-1.4-.81c-.29-.54-.43-1.24-.43-2.1v-44.31c0-1.94-.7-3.6-2.1-5-1.4-1.4-3.07-2.1-5-2.1s-3.69.7-5.05,2.1c-1.36,1.4-2.04,3.07-2.04,5v45.28c0,2.8.59,5.42,1.77,7.85,1.18,2.44,2.96,4.39,5.32,5.86,2.37,1.47,5.27,2.21,8.71,2.21,2.15,0,4.27-.32,6.35-.97M745.98,273.59c-2.26-2.87-3.39-6.81-3.39-11.83s1.13-9.32,3.39-12.26c2.26-2.94,5.36-4.41,9.3-4.41s7.01,1.49,9.2,4.46c2.19,2.98,3.28,6.98,3.28,11.99s-1.13,9.16-3.39,11.99c-2.26,2.83-5.25,4.29-8.98,4.36-4.02,0-7.15-1.43-9.41-4.3M760.39,288.86c2.4-1.29,4.41-2.92,6.02-4.89,1.61-1.97,2.78-4.03,3.5-6.18l-2.47.22-.11,3.44c-.07,2.51.59,4.61,1.99,6.29,1.4,1.68,3.1,2.53,5.11,2.53s3.8-.7,5.16-2.1c1.36-1.4,2.04-3.14,2.04-5.22v-65.07c0-2.08-.68-3.8-2.04-5.16-1.36-1.36-3.08-2.04-5.16-2.04s-3.69.68-5.05,2.04c-1.36,1.36-2.04,3.08-2.04,5.16v25.06l2.26-.97c-1.36-2.15-2.9-3.94-4.62-5.38-1.72-1.43-3.66-2.53-5.81-3.28-2.15-.75-4.55-1.13-7.21-1.13-4.66,0-8.8,1.26-12.42,3.77-3.62,2.51-6.45,5.93-8.5,10.27-2.04,4.34-3.07,9.38-3.07,15.11s1.02,11.04,3.07,15.49c2.04,4.45,4.86,7.89,8.44,10.33,3.59,2.44,7.78,3.66,12.58,3.66,3.15,0,5.93-.65,8.34-1.94M685.1,277.03c-1.33-1.08-1.99-2.51-1.99-4.3,0-1.58.63-2.92,1.88-4.03,1.25-1.11,3.53-1.99,6.83-2.64,1.36-.36,2.71-.63,4.03-.81,1.33-.18,2.58-.41,3.76-.7,1.18-.29,2.21-.71,3.07-1.29.29-.14.48-.21.59-.21s.16.11.16.32v3.77c0,2.37-.56,4.41-1.67,6.13-1.11,1.72-2.6,3.05-4.46,3.98-1.87.93-3.95,1.4-6.24,1.4-2.65,0-4.64-.54-5.97-1.61M698.55,288.48c2.62-1.54,4.93-3.78,6.94-6.72h.32v.75c.5,2.3,1.56,4.14,3.17,5.54,1.61,1.4,3.89,2.13,6.83,2.21,2.65.07,4.68-.57,6.08-1.94,1.4-1.36,2.1-3.01,2.1-4.95,0-1.72-.5-3.08-1.51-4.09-1.01-1-2.08-1.72-3.23-2.15-.65-.22-1.08-.48-1.29-.81-.22-.32-.32-.95-.32-1.88v-21.19c0-4.16-.84-7.81-2.53-10.97-1.68-3.15-4.18-5.61-7.48-7.37-3.3-1.76-7.39-2.64-12.26-2.64-3.16,0-6.1.38-8.82,1.13-2.73.75-5.11,1.78-7.15,3.06-2.04,1.29-3.64,2.74-4.79,4.36-1.15,1.61-1.72,3.32-1.72,5.11s.59,3.21,1.77,4.25c1.18,1.04,2.78,1.56,4.79,1.56,1.51,0,2.83-.3,3.98-.91,1.15-.61,2.19-1.38,3.12-2.31.93-1.22,2.11-2.24,3.55-3.07,1.43-.82,3.26-1.24,5.49-1.24,1.72,0,3.15.22,4.3.65,1.15.43,2.02,1.08,2.63,1.94.61.86.91,1.86.91,3.01,0,1.44-.59,2.49-1.77,3.17-1.18.68-2.76,1.18-4.73,1.51-1.97.32-4.14.66-6.51,1.02-7.6,1.15-13.1,3.21-16.51,6.18-3.41,2.98-5.11,7.08-5.11,12.31,0,3.66.92,6.72,2.74,9.2,1.83,2.47,4.19,4.36,7.1,5.65,2.9,1.29,6,1.94,9.3,1.94,4.45,0,7.98-.77,10.59-2.31M629.76,247.5c2.01-1.76,4.52-2.64,7.53-2.64s5.61.91,7.58,2.74c1.97,1.83,3.21,4.54,3.71,8.12h-22.69c.57-3.73,1.86-6.47,3.87-8.23M647.19,289.61c2.8-.79,5.25-1.84,7.37-3.17,2.11-1.33,3.76-2.8,4.95-4.41,1.18-1.61,1.78-3.28,1.78-5,0-2.08-.61-3.71-1.83-4.89-1.22-1.18-2.76-1.77-4.62-1.77-1.43,0-2.6.31-3.49.91-.9.61-1.7,1.27-2.42,1.99-1.15,1.29-2.44,2.4-3.87,3.33-1.43.93-3.33,1.4-5.7,1.4-2.22,0-4.25-.43-6.08-1.29-1.83-.86-3.39-2.21-4.68-4.03s-2.19-4.14-2.69-6.94h28.5c3.01,0,5.18-.79,6.51-2.37,1.33-1.58,1.99-3.76,1.99-6.56s-.58-5.63-1.72-8.5c-1.15-2.87-2.83-5.52-5.05-7.96-2.22-2.44-4.93-4.41-8.12-5.92-3.19-1.51-6.79-2.26-10.81-2.26-5.38,0-10.02,1.33-13.93,3.98-3.91,2.65-6.92,6.2-9.04,10.65-2.12,4.45-3.17,9.43-3.17,14.95,0,5.88,1.16,10.99,3.5,15.33,2.33,4.34,5.52,7.71,9.57,10.11,4.05,2.4,8.66,3.6,13.82,3.6,3.37,0,6.45-.4,9.25-1.18M588.84,288.16c1.4-1.4,2.1-3.1,2.1-5.11v-24.84c0-2.37.41-4.43,1.24-6.19.82-1.76,2.1-3.12,3.82-4.09,1.72-.97,3.94-1.45,6.67-1.45,2.29,0,4.18-.7,5.65-2.1,1.47-1.4,2.2-3.1,2.2-5.11,0-2.15-.7-3.87-2.1-5.16-1.4-1.29-3.24-1.94-5.54-1.94s-4.27.61-6.13,1.83c-1.87,1.22-3.44,2.71-4.73,4.46-1.29,1.76-2.33,3.5-3.12,5.22l2.04,1.29v-5.06c0-1.94-.61-3.62-1.83-5.05-1.22-1.43-2.9-2.15-5.05-2.15s-3.84.7-5.27,2.1c-1.44,1.4-2.15,3.1-2.15,5.11v43.13c0,2.01.7,3.71,2.1,5.11s3.07,2.1,5,2.1,3.71-.7,5.11-2.1"/>
      <path class="st27" d="M862.19,175.13c-2.15-2.76-3.23-6.83-3.23-12.21s1.08-9.14,3.23-11.94c2.15-2.8,5.2-4.19,9.14-4.19s7.01,1.4,9.2,4.19c2.19,2.8,3.28,6.78,3.28,11.94s-1.09,9.45-3.28,12.21c-2.19,2.76-5.25,4.14-9.2,4.14s-6.99-1.38-9.14-4.14M885.63,188.58c4.09-2.55,7.26-6.06,9.52-10.54,2.26-4.48,3.39-9.52,3.39-15.11s-1.13-10.47-3.39-14.84c-2.26-4.37-5.43-7.85-9.52-10.43-4.09-2.58-8.86-3.87-14.3-3.87s-10.11,1.29-14.2,3.87c-4.09,2.58-7.26,6.06-9.52,10.43-2.26,4.38-3.39,9.32-3.39,14.84s1.13,10.63,3.39,15.11c2.26,4.48,5.43,8,9.52,10.54,4.09,2.54,8.82,3.82,14.2,3.82s10.22-1.27,14.3-3.82M832.07,147.87c1.72,0,3.19-.61,4.41-1.83,1.22-1.22,1.83-2.69,1.83-4.41s-.61-3.19-1.83-4.41c-1.22-1.22-2.69-1.83-4.41-1.83h-25.92c-1.79,0-3.3.61-4.52,1.83-1.22,1.22-1.83,2.69-1.83,4.41s.61,3.19,1.83,4.41c1.22,1.22,2.72,1.83,4.52,1.83h25.92ZM830.14,190.89c2.08-.65,3.8-1.65,5.16-3.01,1.36-1.36,2.04-3.01,2.04-4.95,0-2.08-.68-3.8-2.04-5.16-1.36-1.36-3.05-2.04-5.05-2.04-1.01,0-1.87.16-2.58.48-.72.32-1.34.68-1.88,1.08-.54.39-1.13.59-1.78.59s-1.11-.27-1.4-.81c-.29-.54-.43-1.24-.43-2.1v-44.31c0-1.94-.7-3.6-2.1-5-1.4-1.4-3.07-2.1-5-2.1s-3.69.7-5.06,2.1c-1.36,1.4-2.04,3.07-2.04,5v45.28c0,2.8.59,5.42,1.77,7.85,1.18,2.44,2.96,4.39,5.32,5.86,2.37,1.47,5.27,2.21,8.71,2.21,2.15,0,4.26-.32,6.35-.97M730.54,190.51c1.29-.9,2.19-2.13,2.69-3.71l9.36-29.04h-1.51l9.25,29.04c.5,1.58,1.43,2.82,2.8,3.71,1.36.9,2.72,1.34,4.09,1.34,1.51,0,2.9-.43,4.2-1.29,1.29-.86,2.26-2.11,2.9-3.77l15.27-42.7c.22-.79.32-1.65.32-2.58,0-1.79-.57-3.44-1.72-4.95-1.15-1.51-2.87-2.26-5.16-2.26-1.58,0-2.96.43-4.14,1.29-1.18.86-2.03,1.97-2.53,3.33l-10.76,32.16,3.55.65-10.33-31.19c-.5-1.72-1.42-3.01-2.74-3.87-1.33-.86-2.71-1.29-4.14-1.29s-2.82.43-4.14,1.29c-1.33.86-2.28,2.15-2.85,3.87l-10.43,31.41,3.55-.75-10.76-32.27c-.43-1.36-1.27-2.47-2.53-3.33-1.25-.86-2.67-1.29-4.25-1.29-2.22,0-3.95.77-5.16,2.31-1.22,1.54-1.83,3.21-1.83,5,0,.93.14,1.72.43,2.37l15.27,42.81c.64,1.65,1.63,2.9,2.96,3.77,1.33.86,2.71,1.29,4.14,1.29,1.51,0,2.9-.45,4.2-1.34M662.57,175.13c-2.15-2.76-3.23-6.83-3.23-12.21s1.08-9.14,3.23-11.94c2.15-2.8,5.2-4.19,9.14-4.19s7.01,1.4,9.2,4.19c2.19,2.8,3.28,6.78,3.28,11.94s-1.09,9.45-3.28,12.21c-2.19,2.76-5.25,4.14-9.2,4.14s-6.99-1.38-9.14-4.14M686.01,188.58c4.09-2.55,7.26-6.06,9.52-10.54,2.26-4.48,3.39-9.52,3.39-15.11s-1.13-10.47-3.39-14.84c-2.26-4.37-5.43-7.85-9.52-10.43-4.09-2.58-8.86-3.87-14.3-3.87s-10.11,1.29-14.2,3.87c-4.09,2.58-7.26,6.06-9.52,10.43-2.26,4.38-3.39,9.32-3.39,14.84s1.13,10.63,3.39,15.11c2.26,4.48,5.43,8,9.52,10.54,4.09,2.54,8.82,3.82,14.2,3.82s10.22-1.27,14.3-3.82M630.41,145.72h-45.5v13.44h45.5v-13.44ZM634.44,189.76c1.4-1.4,2.1-3.17,2.1-5.32v-62.38c0-2.08-.7-3.84-2.1-5.27-1.4-1.43-3.17-2.15-5.32-2.15s-3.92.72-5.32,2.15c-1.4,1.44-2.1,3.19-2.1,5.27v62.38c0,2.15.7,3.93,2.1,5.32,1.4,1.4,3.17,2.1,5.32,2.1s3.93-.7,5.32-2.1M590.45,189.76c1.4-1.4,2.1-3.17,2.1-5.32v-62.38c0-2.08-.7-3.84-2.1-5.27-1.4-1.43-3.17-2.15-5.32-2.15s-3.93.72-5.32,2.15c-1.4,1.44-2.1,3.19-2.1,5.27v62.38c0,2.15.7,3.93,2.1,5.32s3.17,2.1,5.32,2.1,3.93-.7,5.32-2.1"/>
    </g>
    <g class="st43">
      <g class="st51">
        <g class="st42">
          <rect class="st27" width="1080" height="1440"/>
        </g>
      </g>
    </g>
    <g class="st31">
      <path class="st53" d="M378.73,915.58c44.11,0,79.86,35.76,79.86,79.86s-35.76,79.86-79.86,79.86-79.86-35.76-79.86-79.86,35.76-79.86,79.86-79.86"/>
      <circle class="st6" cx="378.73" cy="995.44" r="79.86"/>
    </g>
    <path class="st19" d="M363.65,953.73l-7.1-19.52M350.34,961.72l-13.31-16.86M340.58,973.26l-18.63-10.65M335.25,987.45l-21.3-3.55M335.25,1003.43l-21.3,3.55M340.58,1017.62l-18.63,10.65M350.34,1029.16l-13.31,16.86M363.65,1037.15l-7.1,19.52M378.73,1039.81v21.3M393.82,1037.15l7.1,19.52M407.13,1029.16l13.31,16.86M416.89,1017.62l18.63,10.65M422.21,1003.43l21.3,3.55M422.21,987.45l21.3-3.55M416.89,973.26l18.63-10.65M407.13,961.72l13.31-16.86M393.82,953.73l7.1-19.52M378.73,951.07v-21.3"/>
    <g>
      <path class="st46" d="M354.94,1011.55c-2.17-2.22-3.25-4.91-3.25-8.09,0-2.11.48-4.03,1.44-5.75s2.37-3.01,4.22-3.87c-1.82-1.21-3-2.53-3.55-3.94-.55-1.41-.82-2.73-.82-3.96,0-2.74,1.03-5.07,3.09-7.01,2.06-1.93,4.97-2.9,8.73-2.9s6.67.97,8.73,2.9,3.09,4.27,3.09,7.01c0,1.23-.27,2.55-.82,3.96-.55,1.41-1.73,2.64-3.55,3.68,1.85,1.04,3.25,2.42,4.19,4.13s1.4,3.63,1.4,5.75c0,3.17-1.17,5.87-3.52,8.1-2.35,2.23-5.63,3.34-9.84,3.34s-7.4-1.12-9.57-3.35ZM359.39,1002.97c0,1.85.48,3.29,1.44,4.32s2.29,1.53,3.99,1.53,3.03-.51,3.99-1.53,1.44-2.46,1.44-4.32-.49-3.38-1.47-4.38c-.98-1-2.3-1.5-3.96-1.5s-2.99.5-3.96,1.5c-.98,1-1.47,2.46-1.47,4.38ZM361.33,990.12c.83.87,1.99,1.3,3.48,1.3s2.67-.43,3.5-1.3c.82-.87,1.23-1.98,1.23-3.35,0-1.49-.41-2.66-1.23-3.5-.82-.84-1.99-1.26-3.5-1.26s-2.66.42-3.5,1.26c-.84.84-1.26,2.01-1.26,3.5,0,1.37.42,2.49,1.27,3.35Z"/>
      <path class="st46" d="M394.09,995.19c-.9,0-1.68.11-2.34.34-1.16.42-2.04,1.19-2.63,2.31l-6.66-.31,2.65-20.82h20.77v6.29h-15.42l-1.35,8.24c1.14-.75,2.04-1.24,2.68-1.48,1.07-.4,2.38-.6,3.93-.6,3.12,0,5.84,1.05,8.16,3.15,2.32,2.1,3.48,5.15,3.48,9.15,0,3.48-1.12,6.59-3.35,9.33s-5.58,4.11-10.03,4.11c-3.59,0-6.53-.96-8.84-2.89-2.31-1.92-3.59-4.65-3.85-8.19h7.38c.29,1.61.86,2.86,1.69,3.73.83.88,2.04,1.31,3.64,1.31,1.84,0,3.24-.65,4.2-1.94.96-1.29,1.44-2.92,1.44-4.87s-.45-3.55-1.35-4.87c-.9-1.33-2.31-1.99-4.21-1.99Z"/>
    </g>
    <g class="st29">
      <path class="st7" d="M896.89,721.39c-10.72,2.92-13.79-8.31-24.51-5.39-10.73,2.92-7.67,14.16-18.39,17.08-10.72,2.92-13.78-8.31-24.51-5.39-10.72,2.92-7.66,14.16-18.39,17.08-10.73,2.93-13.79-8.31-24.52-5.38-10.72,2.92-7.66,14.15-18.38,17.08-10.73,2.92-13.79-8.31-24.52-5.38-10.73,2.92-7.66,14.16-18.39,17.08-10.73,2.92-13.79-8.31-24.52-5.38-10.73,2.92-7.66,14.16-18.39,17.08-10.73,2.93-13.79-8.31-24.52-5.38-10.73,2.92-7.66,14.16-18.39,17.08-10.73,2.92-13.79-8.31-24.52-5.38-10.72,2.92-7.65,14.15-18.37,17.08-10.73,2.92-13.79-8.31-24.52-5.38-10.72,2.92-7.66,14.16-18.38,17.08-10.73,2.93-13.79-8.31-24.53-5.38-10.72,2.92-7.66,14.16-18.39,17.08-10.73,2.92-13.79-8.31-24.52-5.38-10.74,2.93-7.67,14.16-18.41,17.09-10.73,2.93-13.8-8.3-24.53-5.38-10.74,2.93-7.67,14.16-18.41,17.09-10.73,2.93-13.8-8.31-24.53-5.38-10.73,2.93-7.67,14.16-18.41,17.08-10.74,2.93-13.8-8.3-24.54-5.38-10.75,2.93-7.69,14.16-18.45,17.1-10.75,2.93-13.82-8.3-24.57-5.37"/>
    </g>
    <g class="st35">
      <rect class="st48" x="201.87" y="513.32" width="227.03" height="18.92" transform="translate(-277.3 376.15) rotate(-45)"/>
      <rect class="st20" x="215.24" y="526.7" width="227.03" height="18.92" transform="translate(-282.83 389.5) rotate(-45)"/>
      <rect class="st22" x="228.62" y="540.08" width="227.03" height="18.92" transform="translate(-288.37 402.86) rotate(-45)"/>
      <rect class="st24" x="242" y="553.46" width="227.03" height="18.92" transform="translate(-293.92 416.28) rotate(-45)"/>
      <rect class="st45" x="255.38" y="566.83" width="227.03" height="18.92" transform="translate(-299.45 429.64) rotate(-45)"/>
      <rect class="st28" x="268.75" y="580.21" width="227.03" height="18.92" transform="translate(-304.99 442.99) rotate(-45)"/>
      <rect class="st23" x="282.13" y="593.59" width="227.03" height="18.92" transform="translate(-310.54 456.42) rotate(-45)"/>
      <rect class="st26" x="295.51" y="606.97" width="227.03" height="18.92" transform="translate(-316.08 469.77) rotate(-45)"/>
    </g>
    <g class="st33">
      <circle class="st6" cx="362.2" cy="569.6" r="75.68"/>
      <path class="st14" d="M940.05,719.78c12.33,12.33,12.33,32.32,0,44.65-12.33,12.33-32.32,12.33-44.65,0"/>
    </g>
    <line class="st17" x1="861.63" y1="625.99" x2="985.42" y2="625.99"/>
    <line class="st10" x1="985.42" y1="625.99" x2="923.53" y2="625.99"/>
    <path class="st16" d="M985.42,625.99h0M861.63,625.99h0"/>
    <g>
      <path class="st27" d="M866.45,635.99v-19.36h-6.01v-3.04h15.42v3.04h-6.01v19.36h-3.39Z"/>
      <path class="st27" d="M887.05,636.37c-1.51,0-2.87-.34-4.06-1.02-1.2-.68-2.13-1.65-2.82-2.9-.68-1.25-1.02-2.71-1.02-4.4s.34-3.15,1.02-4.4c.68-1.25,1.62-2.21,2.82-2.9,1.19-.68,2.56-1.02,4.09-1.02s2.9.34,4.08,1.02c1.18.68,2.11,1.65,2.78,2.9s1.01,2.71,1.01,4.4-.34,3.15-1.02,4.4c-.68,1.25-1.62,2.21-2.8,2.9-1.18.68-2.54,1.02-4.08,1.02ZM887.05,633.14c.81,0,1.56-.18,2.24-.54.68-.36,1.23-.92,1.65-1.68.42-.76.62-1.71.62-2.86s-.21-2.13-.62-2.88c-.42-.75-.96-1.3-1.63-1.66-.67-.36-1.41-.54-2.22-.54s-1.56.18-2.24.54c-.68.36-1.23.92-1.65,1.66-.42.75-.62,1.71-.62,2.88,0,1.75.44,3.03,1.33,3.86.88.82,1.94,1.23,3.15,1.23Z"/>
      <path class="st27" d="M906.15,636.37c-1.54,0-2.89-.35-4.06-1.04s-2.09-1.66-2.75-2.9c-.66-1.24-.99-2.68-.99-4.32s.33-3.12.98-4.38c.65-1.26,1.57-2.24,2.75-2.94,1.18-.7,2.55-1.06,4.11-1.06s2.86.35,3.97,1.04c1.11.69,1.97,1.62,2.58,2.77.61,1.15.91,2.42.91,3.81v.69c0,.25-.01.52-.03.82h-11.93c.11,1.47.59,2.59,1.44,3.34.85.76,1.86,1.14,3.01,1.14,1,0,1.8-.21,2.38-.62.59-.42,1.02-.99,1.3-1.71h3.42c-.38,1.52-1.18,2.79-2.4,3.82-1.22,1.04-2.77,1.55-4.67,1.55ZM906.15,622.68c-1.04,0-1.97.31-2.78.94-.81.63-1.33,1.51-1.57,2.64h8.45c-.08-1.07-.5-1.93-1.25-2.59-.75-.66-1.7-.99-2.85-.99Z"/>
      <path class="st27" d="M924.99,636.37c-2.09,0-3.75-.49-4.99-1.47-1.24-.98-1.94-2.28-2.11-3.9h3.49c.13.75.51,1.35,1.14,1.82.63.47,1.47.7,2.51.7s1.78-.21,2.32-.62c.54-.42.82-.9.82-1.46,0-.81-.33-1.36-.98-1.66-.65-.3-1.61-.52-2.86-.67-1.09-.13-2.07-.38-2.96-.75-.89-.37-1.58-.88-2.1-1.54-.51-.65-.77-1.47-.77-2.45,0-1.39.54-2.51,1.63-3.36,1.09-.85,2.6-1.28,4.54-1.28s3.44.44,4.51,1.31,1.68,2.07,1.86,3.58h-3.26c-.09-.64-.42-1.15-.99-1.52-.58-.37-1.29-.56-2.14-.56s-1.57.17-2.08.5c-.51.33-.77.76-.77,1.3,0,1.15,1.24,1.86,3.71,2.11,1.17.13,2.22.35,3.13.66.92.31,1.64.79,2.18,1.44.53.65.8,1.56.8,2.74.02.96-.25,1.82-.82,2.59-.57.77-1.34,1.38-2.34,1.82-.99.45-2.15.67-3.47.67Z"/>
      <path class="st27" d="M945.5,635.99c-1.56,0-2.79-.38-3.71-1.14-.92-.76-1.38-2.11-1.38-4.05v-7.81h-4v-2.88h2.37c1.09,0,1.73-.53,1.92-1.6l.48-2.56h2.62v4.16h6.27v2.88h-6.27v7.74c0,.83.19,1.41.56,1.74.37.33,1.02.5,1.94.5h3.71v3.01h-4.51Z"/>
      <path class="st27" d="M962.68,636.37c-1.51,0-2.87-.34-4.06-1.02-1.2-.68-2.13-1.65-2.82-2.9-.68-1.25-1.02-2.71-1.02-4.4s.34-3.15,1.02-4.4c.68-1.25,1.62-2.21,2.82-2.9,1.19-.68,2.56-1.02,4.09-1.02s2.9.34,4.08,1.02c1.18.68,2.11,1.65,2.78,2.9s1.01,2.71,1.01,4.4-.34,3.15-1.02,4.4c-.68,1.25-1.62,2.21-2.8,2.9-1.18.68-2.54,1.02-4.08,1.02ZM962.68,633.14c.81,0,1.56-.18,2.24-.54.68-.36,1.23-.92,1.65-1.68.42-.76.62-1.71.62-2.86s-.21-2.13-.62-2.88c-.42-.75-.96-1.3-1.63-1.66-.67-.36-1.41-.54-2.22-.54s-1.56.18-2.24.54c-.68.36-1.23.92-1.65,1.66-.42.75-.62,1.71-.62,2.88,0,1.75.44,3.03,1.33,3.86.88.82,1.94,1.23,3.15,1.23Z"/>
      <path class="st27" d="M974.2,643.03v-22.91h2.94l.26,2.43h.19c.43-.79,1.07-1.46,1.94-2,.86-.54,1.89-.82,3.09-.82s2.37.31,3.39.94c1.02.63,1.84,1.56,2.45,2.78.61,1.23.91,2.76.91,4.59s-.31,3.34-.94,4.58c-.63,1.24-1.48,2.17-2.54,2.8s-2.26.94-3.58.94c-1.17,0-2.15-.23-2.94-.7-.79-.47-1.38-1-1.76-1.6v8.96h-3.39ZM981.72,633.14c1.19,0,2.19-.43,2.99-1.28s1.2-2.13,1.2-3.84-.4-2.98-1.2-3.81c-.8-.83-1.8-1.25-2.99-1.25s-2.22.42-3.02,1.26c-.8.84-1.2,2.12-1.2,3.82s.4,2.95,1.2,3.81c.8.85,1.81,1.28,3.02,1.28Z"/>
    </g>
    <g class="st34">
      <path class="st27" d="M808.15,1247.89c8.68,0,15.72-7.04,15.72-15.73s-7.04-15.72-15.72-15.72-15.72,7.04-15.72,15.72,7.04,15.73,15.72,15.73"/>
      <path class="st4" d="M808.15,1247.89c8.68,0,15.72-7.04,15.72-15.73s-7.04-15.72-15.72-15.72-15.72,7.04-15.72,15.72,7.04,15.73,15.72,15.73Z"/>
    </g>
    <g>
      <path class="st46" d="M797.06,1239.31c-.98-1.01-1.47-2.23-1.47-3.67,0-.96.22-1.83.65-2.61.44-.78,1.08-1.37,1.92-1.76-.83-.55-1.36-1.15-1.61-1.79-.25-.64-.37-1.24-.37-1.8,0-1.24.47-2.3,1.4-3.18.94-.88,2.26-1.32,3.96-1.32s3.03.44,3.96,1.32c.94.88,1.4,1.94,1.4,3.18,0,.56-.12,1.16-.37,1.8s-.79,1.2-1.61,1.67c.84.47,1.47,1.1,1.9,1.88.42.78.64,1.65.64,2.61,0,1.44-.53,2.67-1.6,3.68-1.07,1.01-2.55,1.52-4.47,1.52s-3.36-.51-4.34-1.52ZM799.07,1235.42c0,.84.22,1.49.66,1.96.44.46,1.04.7,1.81.7s1.37-.23,1.81-.7c.44-.46.66-1.12.66-1.96s-.22-1.54-.67-1.99-1.04-.68-1.8-.68-1.36.23-1.8.68-.67,1.12-.67,1.99ZM799.96,1229.59c.38.39.91.59,1.58.59s1.21-.2,1.59-.59c.37-.39.56-.9.56-1.52,0-.68-.19-1.21-.56-1.59-.37-.38-.9-.57-1.59-.57s-1.21.19-1.59.57-.57.91-.57,1.59c0,.62.19,1.13.58,1.52Z"/>
      <path class="st46" d="M814.83,1231.89c-.41,0-.76.05-1.06.15-.53.19-.92.54-1.19,1.05l-3.02-.14,1.2-9.45h9.43v2.86h-7l-.61,3.74c.52-.34.92-.56,1.21-.67.49-.18,1.08-.27,1.78-.27,1.42,0,2.65.48,3.71,1.43,1.05.95,1.58,2.34,1.58,4.15,0,1.58-.51,2.99-1.52,4.24-1.01,1.24-2.53,1.86-4.55,1.86-1.63,0-2.97-.44-4.01-1.31-1.05-.87-1.63-2.11-1.75-3.72h3.35c.13.73.39,1.3.77,1.69.38.4.93.6,1.65.6.83,0,1.47-.29,1.91-.88s.65-1.32.65-2.21-.2-1.61-.61-2.21c-.41-.6-1.05-.9-1.91-.9Z"/>
    </g>
    <line class="st18" x1="158.44" y1="976.13" x2="247.8" y2="976.13"/>
    <line class="st11" x1="247.8" y1="976.13" x2="203.12" y2="976.13"/>
    <path class="st15" d="M247.8,976.13h0M158.44,976.13h0"/>
    <line class="st18" x1="101.23" y1="1008.45" x2="247.8" y2="1008.45"/>
    <line class="st5" x1="174.52" y1="1008.45" x2="211.16" y2="1008.45"/>
    <path class="st15" d="M247.8,1008.45h0M101.23,1008.45h0"/>
    <g>
      <path class="st27" d="M158.45,986.23l-3.1-22.62h3.33l1.87,16.45,2.78-16.45h3.36l2.78,16.45,1.87-16.45h3.33l-3.1,22.62h-3.98l-2.59-16-2.59,16h-3.98Z"/>
      <path class="st27" d="M176.78,986.23v-23.27h3.43v9.63c.43-.8,1.12-1.46,2.07-1.99.95-.53,2.01-.79,3.2-.79,1.98,0,3.49.6,4.52,1.79,1.03,1.2,1.55,2.92,1.55,5.16v9.47h-3.43v-8.99c0-1.33-.32-2.37-.97-3.1-.65-.73-1.54-1.1-2.68-1.1s-2.19.4-3.02,1.2c-.83.8-1.24,1.95-1.24,3.46v8.53h-3.43Z"/>
      <path class="st27" d="M203.41,986.61c-1.55,0-2.92-.35-4.1-1.05-1.19-.7-2.11-1.68-2.78-2.93-.67-1.25-1-2.7-1-4.36s.33-3.16.99-4.43c.66-1.27,1.58-2.26,2.78-2.97,1.2-.71,2.58-1.07,4.15-1.07s2.89.35,4.01,1.05c1.12.7,1.99,1.63,2.6,2.8.61,1.16.92,2.45.92,3.85v.7c0,.25-.01.52-.03.82h-12.06c.11,1.49.59,2.61,1.45,3.38.86.77,1.87,1.15,3.04,1.15,1.01,0,1.81-.21,2.41-.63.59-.42,1.03-1,1.31-1.73h3.46c-.39,1.53-1.2,2.82-2.42,3.86-1.23,1.04-2.8,1.57-4.72,1.57ZM203.41,972.78c-1.06,0-1.99.32-2.81.95-.82.64-1.35,1.52-1.58,2.67h8.53c-.09-1.08-.51-1.95-1.26-2.62-.75-.67-1.71-1-2.88-1Z"/>
      <path class="st27" d="M222.51,986.61c-1.55,0-2.92-.35-4.1-1.05-1.19-.7-2.11-1.68-2.78-2.93-.67-1.25-1-2.7-1-4.36s.33-3.16.99-4.43c.66-1.27,1.58-2.26,2.78-2.97,1.2-.71,2.58-1.07,4.15-1.07s2.89.35,4.01,1.05c1.12.7,1.99,1.63,2.6,2.8.61,1.16.92,2.45.92,3.85v.7c0,.25-.01.52-.03.82h-12.06c.11,1.49.59,2.61,1.45,3.38.86.77,1.87,1.15,3.04,1.15,1.01,0,1.81-.21,2.41-.63.59-.42,1.03-1,1.31-1.73h3.46c-.39,1.53-1.2,2.82-2.42,3.86-1.23,1.04-2.8,1.57-4.72,1.57ZM222.51,972.78c-1.06,0-1.99.32-2.81.95-.82.64-1.35,1.52-1.58,2.67h8.53c-.09-1.08-.51-1.95-1.26-2.62-.75-.67-1.71-1-2.88-1Z"/>
      <path class="st27" d="M233.92,986.23v-2.97h5.37v-16.26c0-.71-.35-1.07-1.03-1.07h-3.88v-2.97h4.49c1.25,0,2.2.33,2.86.99s.99,1.61.99,2.86v16.45h5.4v2.97h-14.19Z"/>
    </g>
    <path class="st49" d="M260.33,986.42c-.8,0-1.48-.26-2.04-.79-.56-.53-.84-1.17-.84-1.92s.28-1.39.84-1.91c.56-.52,1.24-.78,2.04-.78s1.5.26,2.05.78c.55.52.82,1.15.82,1.91s-.27,1.39-.82,1.92c-.55.53-1.23.79-2.05.79Z"/>
    <g>
      <path class="st27" d="M99.44,1018.55v-22.62h3.43v9.37h9.89v-9.37h3.43v22.62h-3.43v-10.12h-9.89v10.12h-3.43Z"/>
      <path class="st27" d="M125.46,1018.93c-1.27,0-2.34-.22-3.2-.66-.86-.44-1.51-1.03-1.94-1.78-.43-.74-.65-1.56-.65-2.44,0-1.57.58-2.8,1.73-3.68,1.15-.88,2.78-1.33,4.9-1.33h4.14v-.36c0-2.41-1.12-3.62-3.36-3.62-.93,0-1.71.2-2.34.6-.64.4-1.06,1.04-1.28,1.92h-3.43c.17-1.68.9-3.01,2.18-3.99,1.28-.98,2.9-1.47,4.86-1.47,2.37,0,4.09.58,5.17,1.75,1.08,1.16,1.62,2.77,1.62,4.82v9.86h-2.91l-.29-2.36h-.23c-.47.75-1.07,1.4-1.78,1.94s-1.78.81-3.2.81ZM126.1,1016.06c1.4,0,2.45-.43,3.15-1.28.7-.85,1.08-1.93,1.15-3.25h-3.75c-1.23,0-2.1.2-2.6.6-.51.4-.76.95-.76,1.66s.25,1.27.76,1.66c.51.4,1.19.6,2.05.6Z"/>
      <path class="st27" d="M138.8,1018.55v-2.97h3.91v-9.02c0-.71-.34-1.07-1.03-1.07h-2.55v-2.97h3.85c.88,0,1.6.25,2.17.76.56.51.84,1.21.84,2.12v.39h.16c.24-1.21.75-2.12,1.54-2.73.79-.61,1.93-.92,3.44-.92h2.49v3.62h-3.49c-1.27,0-2.25.44-2.94,1.33-.69.88-1.03,1.94-1.03,3.17v5.33h4.98v2.97h-12.31Z"/>
      <path class="st27" d="M164.24,1018.93c-1.34,0-2.53-.32-3.59-.95-1.06-.64-1.89-1.58-2.5-2.83-.61-1.25-.92-2.79-.92-4.62s.31-3.37.94-4.62c.62-1.25,1.47-2.19,2.54-2.83,1.07-.64,2.26-.95,3.57-.95,1.23,0,2.24.23,3.04.7.8.46,1.39,1.05,1.78,1.76v-9.31h3.43v23.27h-2.94l-.29-2.36h-.19c-.43.84-1.04,1.51-1.83,2-.79.5-1.79.74-3.02.74ZM164.95,1015.67c1.23,0,2.25-.43,3.05-1.29.81-.86,1.21-2.14,1.21-3.85s-.4-3.01-1.21-3.86c-.81-.85-1.83-1.28-3.05-1.28s-2.25.43-3.05,1.29c-.81.86-1.21,2.15-1.21,3.88s.4,2.98,1.21,3.83c.81.85,1.83,1.28,3.05,1.28Z"/>
      <path class="st27" d="M177.04,1018.55v-16.03h2.97l.29,2.39h.16c.43-.78,1.1-1.43,2-1.97.9-.54,1.95-.81,3.14-.81,1.96,0,3.44.59,4.43,1.78.99,1.18,1.49,2.93,1.49,5.24v9.41h-3.43v-8.99c0-1.33-.28-2.37-.84-3.1-.56-.73-1.44-1.1-2.65-1.1s-2.17.4-2.96,1.2c-.79.8-1.18,1.95-1.18,3.46v8.53h-3.43Z"/>
      <path class="st27" d="M203.51,1018.93c-1.55,0-2.92-.35-4.1-1.05-1.19-.7-2.11-1.68-2.78-2.93-.67-1.25-1-2.7-1-4.36s.33-3.16.99-4.43c.66-1.27,1.58-2.26,2.78-2.97,1.2-.71,2.58-1.07,4.15-1.07s2.89.35,4.01,1.05c1.12.7,1.99,1.63,2.6,2.8.61,1.16.92,2.45.92,3.85v.7c0,.25-.01.52-.03.82h-12.06c.11,1.49.59,2.61,1.45,3.38.86.77,1.87,1.15,3.04,1.15,1.01,0,1.81-.21,2.41-.63.59-.42,1.03-1,1.31-1.73h3.46c-.39,1.53-1.2,2.82-2.42,3.86-1.23,1.04-2.8,1.57-4.72,1.57ZM203.51,1005.1c-1.06,0-1.99.32-2.81.95-.82.64-1.35,1.52-1.58,2.67h8.53c-.09-1.08-.51-1.95-1.26-2.62-.75-.67-1.71-1-2.88-1Z"/>
      <path class="st27" d="M222.54,1018.93c-2.11,0-3.79-.5-5.04-1.49s-1.96-2.31-2.13-3.94h3.52c.13.75.51,1.37,1.15,1.84.64.47,1.48.71,2.54.71s1.79-.21,2.34-.63c.55-.42.82-.91.82-1.47,0-.82-.33-1.38-.99-1.68-.66-.3-1.62-.53-2.89-.68-1.1-.13-2.1-.38-2.99-.76s-1.6-.89-2.12-1.55-.78-1.48-.78-2.47c0-1.4.55-2.53,1.65-3.39,1.1-.86,2.63-1.29,4.59-1.29s3.48.44,4.56,1.33c1.08.88,1.7,2.09,1.87,3.62h-3.3c-.09-.65-.42-1.16-1-1.54-.58-.38-1.3-.57-2.17-.57s-1.58.17-2.1.5-.78.77-.78,1.31c0,1.16,1.25,1.88,3.75,2.13,1.19.13,2.24.35,3.17.66.93.31,1.66.8,2.2,1.45.54.66.81,1.58.81,2.76.02.97-.25,1.84-.82,2.62-.57.78-1.36,1.39-2.36,1.84s-2.17.68-3.51.68Z"/>
      <path class="st27" d="M241.64,1018.93c-2.11,0-3.79-.5-5.04-1.49s-1.96-2.31-2.13-3.94h3.52c.13.75.51,1.37,1.15,1.84.64.47,1.48.71,2.54.71s1.79-.21,2.34-.63c.55-.42.82-.91.82-1.47,0-.82-.33-1.38-.99-1.68-.66-.3-1.62-.53-2.89-.68-1.1-.13-2.1-.38-2.99-.76s-1.6-.89-2.12-1.55-.78-1.48-.78-2.47c0-1.4.55-2.53,1.65-3.39,1.1-.86,2.63-1.29,4.59-1.29s3.48.44,4.56,1.33c1.08.88,1.7,2.09,1.87,3.62h-3.3c-.09-.65-.42-1.16-1-1.54-.58-.38-1.3-.57-2.17-.57s-1.58.17-2.1.5-.78.77-.78,1.31c0,1.16,1.25,1.88,3.75,2.13,1.19.13,2.24.35,3.17.66.93.31,1.66.8,2.2,1.45.54.66.81,1.58.81,2.76.02.97-.25,1.84-.82,2.62-.57.78-1.36,1.39-2.36,1.84s-2.17.68-3.51.68Z"/>
    </g>
    <path class="st49" d="M260.33,1018.74c-.8,0-1.48-.26-2.04-.79-.56-.53-.84-1.17-.84-1.92s.28-1.39.84-1.91c.56-.52,1.24-.78,2.04-.78s1.5.26,2.05.78c.55.52.82,1.15.82,1.91s-.27,1.39-.82,1.92c-.55.53-1.23.79-2.05.79Z"/>
    <line class="st18" x1="148.8" y1="865.56" x2="237.84" y2="865.56"/>
    <line class="st2" x1="237.84" y1="865.56" x2="193.32" y2="865.56"/>
    <path class="st15" d="M237.84,865.56h0M148.8,865.56h0"/>
    <g>
      <path class="st27" d="M147.98,875.66v-22.62h7.66c1.72,0,3.15.3,4.27.89,1.12.59,1.95,1.41,2.49,2.44.54,1.03.81,2.22.81,3.55s-.27,2.52-.81,3.56c-.54,1.03-1.37,1.85-2.49,2.44-1.12.59-2.54.89-4.27.89h-4.23v8.86h-3.43ZM151.41,863.73h4.07c1.46,0,2.54-.34,3.22-1.03s1.02-1.62,1.02-2.78-.34-2.06-1.02-2.76-1.75-1.05-3.22-1.05h-4.07v7.63Z"/>
      <path class="st27" d="M166.98,875.66v-2.97h5.37v-16.26c0-.71-.35-1.07-1.03-1.07h-3.88v-2.97h4.49c1.25,0,2.2.33,2.86.99s.99,1.61.99,2.86v16.45h5.4v2.97h-14.19Z"/>
      <path class="st27" d="M192.13,876.04c-1.27,0-2.34-.22-3.2-.66-.86-.44-1.51-1.03-1.94-1.78-.43-.74-.65-1.56-.65-2.44,0-1.57.58-2.8,1.73-3.68,1.15-.88,2.78-1.33,4.9-1.33h4.14v-.36c0-2.41-1.12-3.62-3.36-3.62-.93,0-1.71.2-2.34.6-.64.4-1.06,1.04-1.28,1.92h-3.43c.17-1.68.9-3.01,2.18-3.99,1.28-.98,2.9-1.47,4.86-1.47,2.37,0,4.09.58,5.17,1.75,1.08,1.16,1.62,2.77,1.62,4.82v9.86h-2.91l-.29-2.36h-.23c-.47.75-1.07,1.4-1.78,1.94s-1.78.81-3.2.81ZM192.78,873.17c1.4,0,2.45-.43,3.15-1.28.7-.85,1.08-1.93,1.15-3.25h-3.75c-1.23,0-2.1.2-2.6.6-.51.4-.76.95-.76,1.66s.25,1.27.76,1.66c.51.4,1.19.6,2.05.6Z"/>
      <path class="st27" d="M214.43,875.66c-1.57,0-2.82-.38-3.75-1.15-.93-.76-1.39-2.13-1.39-4.09v-7.89h-4.04v-2.91h2.39c1.1,0,1.75-.54,1.94-1.62l.48-2.59h2.65v4.2h6.33v2.91h-6.33v7.82c0,.84.19,1.43.57,1.76.38.33,1.03.5,1.96.5h3.75v3.04h-4.56Z"/>
      <path class="st27" d="M231.98,876.04c-1.55,0-2.92-.35-4.1-1.05-1.19-.7-2.11-1.68-2.78-2.93-.67-1.25-1-2.7-1-4.36s.33-3.16.99-4.43c.66-1.27,1.58-2.26,2.78-2.97,1.2-.71,2.58-1.07,4.15-1.07s2.89.35,4.01,1.05c1.12.7,1.99,1.63,2.6,2.8.61,1.16.92,2.45.92,3.85v.7c0,.25-.01.52-.03.82h-12.06c.11,1.49.59,2.61,1.45,3.38.86.77,1.87,1.15,3.04,1.15,1.01,0,1.81-.21,2.41-.63.59-.42,1.03-1,1.31-1.73h3.46c-.39,1.53-1.2,2.82-2.42,3.86-1.23,1.04-2.8,1.57-4.72,1.57ZM231.98,862.21c-1.06,0-1.99.32-2.81.95-.82.64-1.35,1.52-1.58,2.67h8.53c-.09-1.08-.51-1.95-1.26-2.62-.75-.67-1.71-1-2.88-1Z"/>
    </g>
    <g class="st32">
      <line class="st18" x1="63.38" y1="554.86" x2="232.74" y2="554.86"/>
    </g>
    <line class="st12" x1="148.06" y1="554.86" x2="190.4" y2="554.86"/>
    <g class="st30">
      <path class="st15" d="M232.74,554.86h0M63.38,554.86h0"/>
    </g>
    <line class="st18" x1="143.37" y1="587.18" x2="232.74" y2="587.18"/>
    <line class="st11" x1="232.74" y1="587.18" x2="188.05" y2="587.18"/>
    <path class="st15" d="M232.74,587.18h0M143.37,587.18h0"/>
    <g>
      <path class="st27" d="M61.65,564.96v-22.62h3.62l4.69,10.21,4.69-10.21h3.62v22.62h-3.26v-16.1l-3.68,8.08h-2.71l-3.68-8.05v16.06h-3.26Z"/>
      <path class="st27" d="M87.6,565.35c-1.27,0-2.34-.22-3.2-.66-.86-.44-1.51-1.03-1.94-1.78-.43-.74-.65-1.56-.65-2.44,0-1.57.58-2.8,1.73-3.68,1.15-.88,2.78-1.33,4.9-1.33h4.14v-.36c0-2.41-1.12-3.62-3.36-3.62-.93,0-1.71.2-2.34.6-.64.4-1.06,1.04-1.28,1.92h-3.43c.17-1.68.9-3.01,2.18-3.99,1.28-.98,2.9-1.47,4.86-1.47,2.37,0,4.09.58,5.17,1.75,1.08,1.16,1.62,2.77,1.62,4.82v9.86h-2.91l-.29-2.36h-.23c-.47.75-1.07,1.4-1.78,1.94-.71.54-1.78.81-3.2.81ZM88.25,562.48c1.4,0,2.45-.43,3.15-1.28s1.08-1.93,1.15-3.25h-3.75c-1.23,0-2.1.2-2.6.6-.51.4-.76.95-.76,1.66s.25,1.27.76,1.66c.51.4,1.19.6,2.05.6Z"/>
      <path class="st27" d="M109.91,564.96c-1.57,0-2.82-.38-3.75-1.15-.93-.76-1.39-2.13-1.39-4.09v-7.89h-4.04v-2.91h2.39c1.1,0,1.75-.54,1.94-1.62l.48-2.59h2.65v4.2h6.33v2.91h-6.33v7.82c0,.84.19,1.43.57,1.76.38.33,1.03.5,1.96.5h3.75v3.04h-4.56Z"/>
      <path class="st27" d="M127.46,565.35c-1.55,0-2.92-.35-4.1-1.05-1.19-.7-2.11-1.67-2.78-2.92-.67-1.25-1-2.7-1-4.36s.33-3.16.99-4.43c.66-1.27,1.58-2.26,2.78-2.97s2.58-1.07,4.15-1.07,2.89.35,4.01,1.05c1.12.7,1.99,1.63,2.6,2.8.61,1.16.92,2.45.92,3.85v.69c0,.25-.01.52-.03.82h-12.06c.11,1.49.59,2.61,1.45,3.38.86.77,1.87,1.15,3.04,1.15,1.01,0,1.81-.21,2.41-.63.59-.42,1.03-1,1.31-1.73h3.46c-.39,1.53-1.2,2.82-2.42,3.86-1.23,1.05-2.8,1.57-4.72,1.57ZM127.46,551.52c-1.06,0-1.99.32-2.81.95-.82.64-1.35,1.52-1.58,2.67h8.53c-.09-1.08-.51-1.95-1.26-2.62-.75-.67-1.71-1-2.88-1Z"/>
      <path class="st27" d="M139.15,564.96v-2.97h3.91v-9.02c0-.71-.34-1.07-1.03-1.07h-2.55v-2.97h3.85c.88,0,1.6.25,2.17.76.56.51.84,1.21.84,2.12v.39h.16c.24-1.21.75-2.12,1.54-2.73.79-.61,1.93-.92,3.44-.92h2.49v3.62h-3.49c-1.27,0-2.25.44-2.94,1.33-.69.88-1.03,1.94-1.03,3.17v5.33h4.98v2.97h-12.31Z"/>
      <path class="st27" d="M158.71,564.96v-2.97h5.04v-9.02c0-.71-.34-1.07-1.03-1.07h-3.56v-2.97h4.17c1.34,0,2.31.31,2.92.92.61.61.92,1.59.92,2.92v9.21h5.04v2.97h-13.51ZM165.14,546.48c-.75,0-1.38-.24-1.89-.73s-.76-1.08-.76-1.79.25-1.3.76-1.78c.51-.47,1.14-.71,1.89-.71s1.42.24,1.92.71c.51.47.76,1.07.76,1.78s-.25,1.31-.76,1.79c-.51.48-1.15.73-1.92.73Z"/>
      <path class="st27" d="M183.11,565.35c-1.27,0-2.34-.22-3.2-.66-.86-.44-1.51-1.03-1.94-1.78-.43-.74-.65-1.56-.65-2.44,0-1.57.58-2.8,1.73-3.68,1.15-.88,2.78-1.33,4.9-1.33h4.14v-.36c0-2.41-1.12-3.62-3.36-3.62-.93,0-1.71.2-2.34.6-.64.4-1.06,1.04-1.28,1.92h-3.43c.17-1.68.9-3.01,2.18-3.99,1.28-.98,2.9-1.47,4.86-1.47,2.37,0,4.09.58,5.17,1.75,1.08,1.16,1.62,2.77,1.62,4.82v9.86h-2.91l-.29-2.36h-.23c-.47.75-1.07,1.4-1.78,1.94-.71.54-1.78.81-3.2.81ZM183.76,562.48c1.4,0,2.45-.43,3.15-1.28s1.08-1.93,1.15-3.25h-3.75c-1.23,0-2.1.2-2.6.6-.51.4-.76.95-.76,1.66s.25,1.27.76,1.66c.51.4,1.19.6,2.05.6Z"/>
      <path class="st27" d="M196.17,564.96v-2.97h5.37v-16.26c0-.71-.35-1.07-1.03-1.07h-3.88v-2.97h4.49c1.25,0,2.2.33,2.86.99.66.66.99,1.61.99,2.86v16.45h5.4v2.97h-14.19Z"/>
    </g>
    <path class="st27" d="M224.45,565.32c-2.13,0-3.85-.62-5.15-1.86-1.3-1.24-1.96-2.94-1.96-5.09,0-1.34.34-2.56,1.03-3.67.69-1.11,1.68-2.04,2.97-2.8-1.06-1.55-1.58-3.03-1.58-4.43,0-1.03.23-1.97.69-2.8.46-.83,1.15-1.49,2.05-1.99.9-.5,1.99-.74,3.26-.74,1.9,0,3.36.51,4.38,1.54,1.02,1.02,1.54,2.3,1.54,3.83h-3.3c-.02-.75-.29-1.35-.79-1.78-.51-.43-1.13-.65-1.86-.65-.82,0-1.47.24-1.94.71-.47.47-.71,1.09-.71,1.84,0,.65.18,1.3.53,1.96s.86,1.4,1.5,2.21l4.56,5.79,1.91-4.17h3.56l-3.04,6.46c-.09.17-.16.33-.23.48l3.75,4.78h-3.94l-1.62-2.04c-.69.75-1.49,1.34-2.39,1.76-.9.42-1.98.63-3.23.63ZM220.77,558.27c0,1.14.34,2.09,1.03,2.84.69.75,1.59,1.13,2.71,1.13.75,0,1.41-.16,1.97-.48.56-.32,1.08-.79,1.55-1.39l-4.91-6.11c-1.57.99-2.36,2.33-2.36,4.01Z"/>
    <path class="st49" d="M245.26,565.16c-.8,0-1.48-.26-2.04-.79-.56-.53-.84-1.17-.84-1.92s.28-1.39.84-1.91c.56-.52,1.24-.78,2.04-.78s1.5.26,2.05.78c.55.52.82,1.15.82,1.91s-.27,1.4-.82,1.92c-.55.53-1.23.79-2.05.79Z"/>
    <g>
      <path class="st27" d="M150.01,597.67c-1.9,0-3.51-.48-4.83-1.45-1.33-.97-2.34-2.33-3.04-4.09-.7-1.76-1.05-3.8-1.05-6.12s.35-4.4,1.05-6.16c.7-1.76,1.72-3.12,3.05-4.1,1.34-.98,2.94-1.47,4.82-1.47,2.43,0,4.37.66,5.82,1.99,1.44,1.32,2.28,3.12,2.52,5.38h-3.78c-.19-1.18-.67-2.17-1.44-2.96-.77-.79-1.82-1.18-3.15-1.18-1.7,0-3.03.75-3.98,2.26-.95,1.51-1.42,3.59-1.42,6.24s.47,4.69,1.42,6.19c.95,1.5,2.27,2.25,3.98,2.25,1.38,0,2.43-.36,3.17-1.08.73-.72,1.21-1.68,1.42-2.86h3.78c-.34,2.22-1.22,3.97-2.62,5.25-1.4,1.28-3.31,1.92-5.72,1.92Z"/>
      <path class="st27" d="M169.05,597.67c-1.53,0-2.9-.34-4.1-1.03-1.21-.69-2.15-1.66-2.84-2.92-.69-1.26-1.03-2.74-1.03-4.44s.34-3.18,1.03-4.44c.69-1.26,1.64-2.23,2.84-2.92,1.21-.69,2.59-1.03,4.14-1.03s2.92.34,4.12,1.03c1.2.69,2.13,1.66,2.81,2.92.68,1.26,1.02,2.74,1.02,4.44s-.35,3.18-1.03,4.44c-.69,1.26-1.63,2.24-2.83,2.92s-2.57,1.03-4.12,1.03ZM169.05,594.41c.82,0,1.57-.18,2.26-.55.69-.37,1.24-.93,1.66-1.7.42-.76.63-1.73.63-2.89s-.21-2.15-.63-2.91c-.42-.75-.97-1.31-1.65-1.68-.68-.37-1.43-.55-2.25-.55s-1.57.18-2.26.55c-.69.37-1.24.93-1.66,1.68-.42.75-.63,1.72-.63,2.91,0,1.77.45,3.06,1.34,3.89.89.83,1.96,1.24,3.18,1.24Z"/>
      <path class="st27" d="M180.65,597.28v-2.97h5.37v-16.26c0-.71-.35-1.07-1.03-1.07h-3.88v-2.97h4.49c1.25,0,2.2.33,2.86.99.66.66.99,1.61.99,2.86v16.45h5.4v2.97h-14.19Z"/>
      <path class="st27" d="M207.25,597.67c-1.53,0-2.9-.34-4.1-1.03-1.21-.69-2.15-1.66-2.84-2.92-.69-1.26-1.03-2.74-1.03-4.44s.34-3.18,1.03-4.44c.69-1.26,1.64-2.23,2.84-2.92,1.21-.69,2.59-1.03,4.14-1.03s2.92.34,4.12,1.03c1.2.69,2.13,1.66,2.81,2.92.68,1.26,1.02,2.74,1.02,4.44s-.35,3.18-1.03,4.44c-.69,1.26-1.63,2.24-2.83,2.92s-2.57,1.03-4.12,1.03ZM207.25,594.41c.82,0,1.57-.18,2.26-.55.69-.37,1.24-.93,1.66-1.7.42-.76.63-1.73.63-2.89s-.21-2.15-.63-2.91c-.42-.75-.97-1.31-1.65-1.68-.68-.37-1.43-.55-2.25-.55s-1.57.18-2.26.55c-.69.37-1.24.93-1.66,1.68-.42.75-.63,1.72-.63,2.91,0,1.77.45,3.06,1.34,3.89.89.83,1.96,1.24,3.18,1.24Z"/>
      <path class="st27" d="M219.15,597.28v-2.97h3.91v-9.02c0-.71-.34-1.07-1.03-1.07h-2.55v-2.97h3.85c.88,0,1.6.25,2.17.76.56.51.84,1.21.84,2.12v.39h.16c.24-1.21.75-2.12,1.54-2.73.79-.61,1.93-.92,3.44-.92h2.49v3.62h-3.49c-1.27,0-2.25.44-2.94,1.33-.69.88-1.03,1.94-1.03,3.17v5.33h4.98v2.97h-12.31Z"/>
    </g>
    <path class="st49" d="M245.26,597.48c-.8,0-1.48-.26-2.04-.79-.56-.53-.84-1.17-.84-1.92s.28-1.39.84-1.91c.56-.52,1.24-.78,2.04-.78s1.5.26,2.05.78c.55.52.82,1.15.82,1.91s-.27,1.4-.82,1.92c-.55.53-1.23.79-2.05.79Z"/>
  </g>
</svg>