<?xml version="1.0" encoding="UTF-8"?><svg id="a" xmlns="http://www.w3.org/2000/svg" viewBox="0 0 217.42 289.62"><path d="M78.66,84.05c2.94,1.13,3.35,1.29,4.47,1.91l.08.08c.1.28.03.48-.1.61-.1.1-.24.16-.37.2-.96.24-2.31,2.7-2.14,5.94h.16s.04,0,.05,0l-.04.15c-1.05.84-1.82.56-4.44,0l-.31-1.74c-.17-.61-.49-1.37-.24-3.04.36-2.29.92-2.8,1.45-3.5l1.15-.82c.04.06.08.11.12.17l.16.05Z" style="fill:#2848f9;"/><path d="M101.78,33.17c.47.92,1.38,2.03,3.19,2.73l-.89,2.86s-.07,0-.1,0c-1.17.12-3.49.61-4.62-1.76-.2-.43-.81-4.32,2.24-3.74l.18-.1Z" style="fill:#fff;"/><path d="M112.97,122c-1.01.39-2.16.75-3.57,1.07v.16c-.17,19.56-.42,24.16-.57,26.49h-.03c-13.89.73-20.55-7.66-21.37-8.54h-.09c-.63-6.45-1.29-13.65-.98-18.06.07-.97.15-1.91.25-2.81.41-3.69,1.05-6.84,1.75-9.48.44-1.66.91-3.11,1.37-4.37.37-1.01.74-1.9,1.07-2.66.83-1.85,1.48-2.96,1.67-3.35,4.31.07,13.44.07,19.21-.96l.15-.05c.18.17.4.27.7.36h.22c2.5.05,4.45.17,8.88-.58.52.77,2.01,2.65,3.99,5.73.35.54.71,1.12,1.09,1.74,1.63,2.67,3.49,6.05,5.36,10.2.1.23.21.46.31.69.26.58,6.79,18.56,9.3,25.72l-.02.16c-1.81,1.7-7.36,6.74-18.16,6.8v-.07c-2.76-5.52-2.65-6.08-4.7-10.91-3.34-7.89-5.38-14.9-5.73-17.03l-.1-.25Z" style="fill:#838afa;"/><path d="M113.53,94.01c1.16.23,1.21,2.08-.19,1.82-1.44-.26-.74-2,.19-1.82Z" style="fill:#2848f9;"/><path d="M97.54,48.44c2.82,2.75,3.88,3.04,7.69,4.12l.04.11h0s-.03.03-.03.03c-.44,2.67-.57,3.89-1.55,4.15-.36.11-.83.08-1.48-.05-3.39-.68-6.67-5.84-7.09-6.49l-.07-.21c.51-.14.98-.38,1.32-.73.35-.36.65-.68.91-.97l.26.04Z" style="fill:#2848f9;"/><path d="M43.53,124.31c-.39-3.77.07-8.54,4.08-11.4-3.48,3.89-2.62,11.38,1.98,37,1.47,8.18,10.34,68.6,10.4,69.32.43,4.73,5.81,39.6,6.54,44.28l.25,1.9c1.23,7.42,3.14,10.1,11.75,11.37l-.02.12c-.85-.05-10.55-.14-12.55-5.49-2.39-6.4-8.64-54.33-11.81-75-2.73-17.77-9.27-58.88-10.62-72.1Z" style="fill:#838afa;"/><path d="M136.56,220.19c1.84-4.45,3.28-9.81,3.62-16.05.35-6.38-4.38-3.82-5.7.25-2.16,6.7-1.18,13.96,2.08,15.8ZM108.83,149.72c.15-2.33.4-6.93.57-26.49v-.16c1.41-.32,2.56-.68,3.57-1.07l.1.25c.35,2.13,2.39,9.14,5.73,17.03,2.05,4.83,1.94,5.39,4.69,10.91v.07c10.81-.06,16.36-5.1,18.17-6.8l.02-.16c-2.51-7.16-9.04-25.14-9.3-25.72-.1-.23-.21-.46-.31-.69,10.18-.93,10.39-.97,20.69-1.45l.08-.02c1.5,7.1,5.82,27.45,15.08,71.35.06.25,7.46,34.78,13.78,61.44l.2,1.23c.81,4.88.92,8.03-5.13,9.29l-1.35.23c-13.23,3.14-88.17,13.29-88.17,13.29-14.71,2.63-15.42-4.56-15.97-7.89l-.23-1.7c-.24-1.84-.6-4.38-1.05-7.46,1.23-.29,6.29-.86,7.69-1.67,2.32-1.36,2.9-1.68,1.93-7.47-7.18-43.08-5.88-44.7-9.09-45.26-.7-.12-1.85-.32-8.84.9h-.01c-3.03-19.19-5.76-36.29-6.35-40.54-2.98-21.48-4.58-31.78-5.05-37.38h.08c9.96-1.45,21.16-1.68,35.87-3.51l.38.04c-.1.9-.18,1.84-.25,2.81-.31,4.41.35,11.61.98,18.07h.09c.82.87,7.48,9.26,21.37,8.53h.03Z" style="fill:#fff;"/><path d="M108.64,66c.76.66-.09,2.11-1.15,1.23-.96-.8.3-1.97,1.15-1.23Z" style="fill:#2848f9;"/><path d="M114.59,23.77c.9,1.63,1.03,3.28,1.02,4.65l-1.88-.03c-.4-.13-1.29-.46-1.29-.46-1.2.52-1.55.73-2.01,1.18l-2.5-1.46c2.89-2.21,2.91-4.01,2.55-7.59l.12-.06c2.04,1.15,3.26,2.46,3.99,3.77Z" style="fill:#fff;"/><path d="M92.63,50.32c.47.05,1.49.06,2.42-.22l.07.21c.42.65,3.7,5.81,7.09,6.49.65.13,1.12.16,1.48.05l.02.06c.88,6.91,3.94,23.99,5.08,29.15,2.28,10.36,2.27,12.63,3.04,13.38l-.15.05c-5.77,1.03-14.9,1.03-19.21.96-1.5-.02-2.41-.05-2.41-.05-1.13-2.12-2.11-4.02-2.96-5.74-1.55-3.14-2.65-5.65-3.46-7.75-2.25-5.91-2.06-8.47-2.4-12.25l-.04-.06c-4.62,2.78-7.43,4.37-8.19,4.81l-.07.07c.27.27.56.61,1.04,1.16l-.07.19c.08.02.15.05.23.08,3.24,1.25,3.66,2.08,4.24,2.92l-1.15.82c-.53.7-1.09,1.21-1.45,3.5-.25,1.67.07,2.43.24,3.04l.31,1.74-.23.04c-5.87,5.44-9.53-.19-18.8-4.18-.12-.06-4.5-2.06-5.07-7.25-1.11-10.07,5.48-10.62,6.88-11.59,3.5-2.44,3.23-2.79,8.08-5.91,5.49-3.54,4.37-4.81,8.91-8.31,1.93-1.49-.36-6.05,5.8-6.45l.06-.09c1.75.97,4.07,1.19,7.89-.71l.04.08c1.27.89,1.44,1.63,2.74,1.76Z" style="fill:#2848f9;"/><path d="M117.26,33.41c.15.29,1.67,1.12,1.42,1.89-.09.29-.25.83-1.13.95-.74.1-.71.15-1.37.46l-.17.03c.77,1.39.54,2.11.54,2.25.01.12.26-.26-.34.86.57,1.55.05,1.54-.17,2.09-.35.89,1.75,2.87-1.57,3.46-.35.06-.85.33-1.22.42-1.86.47-3.71.06-4.57.97-.46.48-.89,1.13-1.31,1.87-.66,1.15-1.31,2.5-2.05,3.73l-.09.17c-3.81-1.08-4.87-1.37-7.69-4.12l-.26-.04c1.63-1.8,1.56-2.26,1.28-4.44l.2-.2c5.28.43,5.13-2.81,5.22-4.95v-.04s.07,0,.1,0l.89-2.86c.5.19,1.08.35,1.73.47l.04-.21c-1.13-.64-2.18-1.32-2.89-4.08.83,1.96,1.21,3.05,4.02,3.07v-.12s-1.7-.91-1.96-4.26c-.05-.67-.05-1.33-.02-1.94h.28c.68-.41,1.26-.8,1.76-1.18l2.5,1.46c.46-.45.81-.66,2.01-1.18,0,0,.89.33,1.29.46l1.88.03c-.02,1.58-.24,2.82.26,3.3.98.94.9.73,1.39,1.69Z" style="fill:#fff;"/><path d="M106.82,57.24c1.06.19.9,2.25-.51,1.56-1.01-.49-.36-1.71.51-1.56Z" style="fill:#2848f9;"/><path d="M88.07,102.03c-4.41-2.02-1.92-4.59-2.57-7.19l1.6-.18c.85,1.72,1.83,3.62,2.96,5.74,0,0,.91.03,2.41.05-.19.39-.84,1.5-1.67,3.35l-.31-.02s-.27-.07-.45-.33c-.71-.99-.81-.89-1.97-1.42Z" style="fill:#fff;"/><path d="M134.48,204.39c1.32-4.07,6.05-6.63,5.7-.25-.34,6.24-1.78,11.6-3.62,16.05-3.26-1.84-4.24-9.1-2.08-15.8Z" style="fill:#fff;"/><path d="M152.84,115.42l-.08.02c-10.3.48-10.51.52-20.69,1.45-1.87-4.15-3.73-7.53-5.36-10.2l.04-.03c9.74-.88,17.08-1.16,19.83-.87,3.61.38,5,3.91,5.6,6.54,0,0,.2.93.66,3.09Z" style="fill:#fff;"/><path d="M159.62,130.67l20.56,94.92,2.94,13.55c2.37,11.21,3.09,14.22,2.45,17.63-1.05,5.55-7.25,5.84-7.35,5.87,0,0-45.11,7.07-49.16,7.5-20.53,2.19-38.3,5.62-46.63,6.74-1.12.15-3.38-.02-3.38-.02-.18-.02-.35-.05-.52-.08-8.61-1.27-10.52-3.95-11.75-11.37l-.25-1.9c-.73-4.68-6.11-39.55-6.54-44.28-.06-.72-8.93-61.14-10.4-69.32-4.6-25.62-5.46-33.11-1.98-37,.01,0,.01-.01.02-.01,1.04-1.17,2.48-2.01,4.33-2.92,0,0,1.36-.38,2.05-.45,6.29-.59,33.27-2.8,35.69-3.08h.03c-.46,1.27-.93,2.72-1.37,4.38l-.15-.04c-11.32.49-16.9.97-18.37,1.1-14.06,1.2-14.79,1.51-17.14,2.73l-1.09.77c-1.24,2.13-1.75,3.36-1.33,8.39.47,5.6,2.07,15.9,5.05,37.38.59,4.25,3.32,21.35,6.35,40.54,3.08,19.39,6.47,40.93,8.32,53.5.45,3.08.81,5.62,1.05,7.46l.23,1.7c.55,3.33,1.26,10.52,15.97,7.89,0,0,74.94-10.15,88.17-13.29l1.35-.23c6.05-1.26,5.94-4.41,5.13-9.29l-.2-1.23c-6.32-26.66-13.72-61.19-13.78-61.44-9.26-43.9-13.58-64.25-15.08-71.35-.46-2.16-.66-3.09-.66-3.09-.6-2.63-1.99-6.16-5.6-6.54-2.75-.29-10.09-.01-19.83.87l-.04.03c-.38-.62-.74-1.2-1.09-1.74l.07-.05c.67-.92.83-1.48.86-2.05h.12c18.99-1.56,25.78-3.94,28.37,6.68l4.58,21.14Z" style="fill:#838afa;"/><path d="M112.64,17.79c2.93,2.02,2.08,5.79,2.07,5.91l-.12.07c-.73-1.31-1.95-2.62-3.99-3.77l-.12.06c.36,3.58.34,5.38-2.55,7.59-.5.38-1.08.77-1.76,1.19h-.28c-.03.6-.03,1.26.02,1.93.26,3.35,1.95,4.25,1.96,4.26v.12c-2.81-.02-3.19-1.11-4.02-3.07.71,2.76,1.76,3.44,2.89,4.08l-.04.21c-.65-.12-1.23-.28-1.73-.47-1.81-.7-2.72-1.81-3.19-2.73l-.18.1c-3.05-.58-2.44,3.31-2.24,3.74,1.13,2.37,3.45,1.88,4.62,1.76v.04c-.09,2.14.06,5.38-5.22,4.95l-.2.2c.28,2.18.35,2.64-1.28,4.44-.26.29-.56.61-.91.97-.34.35-.81.59-1.32.73-.93.28-1.95.27-2.42.22-1.3-.13-1.47-.87-2.74-1.76l-.04-.08c-3.82,1.9-6.14,1.68-7.89.71-.79-.43-1.46-1.02-2.09-1.63l.02-.12c2.54.37,3.12.34,6.17-1.35l.02-.24c-1.09-1.11-2.97-2.54-2.23-5.2.72-2.58,3.66-3.89,4.53-4.67,2.46-2.19-1.52-8.55,1.77-13.46,5.65-8.41,15.12-5.56,16.3-5.34l.05-.02c.44-.23,2.96-1.56,6.14.63Z" style="fill:#838afa;"/><path d="M108.64,66c-.85-.74-2.11.43-1.15,1.23,1.06.88,1.91-.57,1.15-1.23ZM106.82,57.24c-.87-.15-1.52,1.07-.51,1.56,1.41.69,1.57-1.37.51-1.56ZM113.34,95.83c1.4.26,1.35-1.59.19-1.82-.93-.18-1.63,1.56-.19,1.82ZM109.82,75.02c-.94-.18-1.64,1.55-.2,1.81,1.4.26,1.35-1.59.2-1.81ZM112.08,84.2c-.85-.74-2.12.43-1.16,1.23,1.06.88,1.91-.57,1.16-1.23ZM123.46,87.22c.15,5.94.14,10.31.13,11.53l-.12.14c-.66.13-1.27.24-1.84.33-4.43.75-6.38.63-8.88.59h-.22c-.3-.1-.52-.2-.7-.37-.77-.75-.76-3.02-3.04-13.38-1.14-5.16-4.2-22.24-5.08-29.15l-.02-.06c.98-.26,1.11-1.48,1.55-4.15l.03-.02c.31.39,2.75,3.52,4.55,3.37.81-.07.23-1.11-2.02-6.56l.11-.04c3.82-.02,7.69-.34,10.98,1.04,1.97.82,2.21,2.8,2.67,4.23l.02.16c3.88,4.2,4.27,2.93,7.22,7.84,3.45,5.73,7.06,9.17,7.4,12.37.85,8.11-.71,7.96-3.69,10.94h-.03c-.79,2.14-1.38,4.42-3.73,4.4l-.16-.05c.09-.27.18-.55.27-.84v-.08c-.31-.69-1.54-2.78-5.27-2.24h-.13Z" style="fill:#2848f9;"/><path d="M79.62,246.06c.97,5.79.39,6.11-1.93,7.47-1.4.81-6.46,1.38-7.69,1.67-1.85-12.57-5.24-34.11-8.32-53.5h.01c6.99-1.22,8.14-1.02,8.84-.9,3.21.56,1.91,2.18,9.09,45.26Z" style="fill:#fff;"/><path d="M163.21,124.88c-1.5-.25-1.78-.18-3.04.42l-.22-.02c.08-.87.16-1.72.24-2.48.4-3.78.57-3.3,1.94-.33.42.9.78,1.7,1.1,2.4h-.02Z" style="fill:#fff;"/><path d="M107.49,48.73c.11.26.21.51.31.76,2.25,5.45,2.83,6.49,2.02,6.56-1.8.15-4.24-2.98-4.55-3.37h0s-.04-.12-.04-.12l.09-.17c.74-1.23,1.39-2.58,2.05-3.73l.12.07Z" style="fill:#2848f9;"/><path d="M109.82,75.02c1.15.22,1.2,2.07-.2,1.81-1.44-.26-.74-1.99.2-1.81Z" style="fill:#2848f9;"/><path d="M85.21,94.37c-1.6-1.01-1.9-.93-4.4-1.58-.01,0-.03-.01-.05-.01h-.16c-.17-3.23,1.18-5.69,2.14-5.93.13-.04.27-.1.37-.2.17.09.32.19.49.28l.04-.02c.81,2.1,1.91,4.61,3.46,7.75l-1.6.18c-.03-.11-.07-.22-.11-.34l-.18-.13Z" style="fill:#fff;"/><path d="M88.21,110.79l.15.04c-.7,2.64-1.34,5.79-1.75,9.48l-.38-.04c-14.71,1.83-25.91,2.06-35.87,3.5h-.08c-.42-5.02.09-6.25,1.33-8.38l1.09-.77c2.35-1.22,3.08-1.53,17.14-2.73,1.47-.13,7.05-.61,18.37-1.1Z" style="fill:#fff;"/><path d="M126.8,100.23c-.34,1.28-.22,1.96-.25,2.62-.03.57-.19,1.13-.86,2.05l-.07.05c-1.98-3.08-3.47-4.96-3.99-5.73.57-.09,1.18-.2,1.84-.33l.12-.14c.01-1.22.02-5.59-.13-11.53h.13c3.73-.54,4.96,1.55,5.28,2.24v.08c-.1.29-.19.57-.28.84-1.67,5.15-2.02,5.21-1.64,6.42.55,1.81-.04,3-.15,3.43Z" style="fill:#fff;"/><path d="M163.23,124.87c1.48,3.22,1.99,4.52,2.05,5.08.13,1.14,17.85,83.72,19.89,93.28.94,4.43-4.01,4.56-4.99,2.36l-20.56-94.92c-.01-1.4.15-3.44.33-5.39l.22.02c1.26-.6,1.54-.67,3.04-.42h.02Z" style="fill:#fff;"/><path d="M112.08,84.2c.75.66-.1,2.11-1.16,1.23-.96-.8.31-1.97,1.16-1.23Z" style="fill:#2848f9;"/><path d="M123.5,150.26c10.8-.06,16.35-5.1,18.16-6.8" style="fill:none; stroke:#838afa; stroke-linecap:round; stroke-linejoin:round; stroke-width:.9px;"/><path d="M87.43,141.18c.82.88,7.48,9.27,21.37,8.54" style="fill:none; stroke:#838afa; stroke-linecap:round; stroke-linejoin:round; stroke-width:.9px;"/><line x1="114.08" y1="31.58" x2="114.16" y2="32.61" style="fill:none; stroke:#121212; stroke-linecap:round; stroke-linejoin:round; stroke-width:.9px;"/><path d="M111.83,32.96c1.19-.8,1.19-.78,2.22-1.76" style="fill:none; stroke:#121212; stroke-linecap:round; stroke-linejoin:round; stroke-width:.9px;"/><path d="M109.62,29.94c.36-.36.6-.62.81-.83.46-.45.81-.66,2.01-1.18,0,0,.89.33,1.29.46" style="fill:none; stroke:#121212; stroke-linecap:round; stroke-linejoin:round; stroke-width:.9px;"/><path d="M110.6,20c2.04,1.15,3.26,2.46,3.99,3.77.9,1.63,1.03,3.28,1.02,4.65-.02,1.58-.24,2.82.26,3.3.98.94.9.73,1.39,1.69.15.29,1.67,1.12,1.42,1.89-.09.29-.25.83-1.13.95-.74.1-.71.15-1.37.46" style="fill:none; stroke:#121212; stroke-linecap:round; stroke-linejoin:round; stroke-width:.9px;"/><path d="M116.01,36.74c.77,1.39.54,2.11.54,2.25.01.12.26-.26-.34.86.57,1.55.05,1.54-.17,2.09-.35.89,1.75,2.87-1.57,3.46-.35.06-.85.33-1.22.42-1.86.47-3.71.06-4.57.97-.46.48-.89,1.13-1.31,1.87-.66,1.15-1.31,2.5-2.05,3.73" style="fill:none; stroke:#121212; stroke-linecap:round; stroke-linejoin:round; stroke-width:.9px;"/><path d="M112.74,39.59c1.32.35,1.37.42,2.49.59" style="fill:none; stroke:#121212; stroke-linecap:round; stroke-linejoin:round; stroke-width:.9px;"/><path d="M101.6,33.27c-3.05-.58-2.44,3.31-2.24,3.74,1.13,2.37,3.45,1.88,4.62,1.76.03,0,.07,0,.1,0" style="fill:none; stroke:#121212; stroke-linecap:round; stroke-linejoin:round; stroke-width:.9px;"/><path d="M103.98,38.81c-.09,2.14.06,5.38-5.22,4.95" style="fill:none; stroke:#121212; stroke-linecap:round; stroke-linejoin:round; stroke-width:.9px;"/><path d="M101.23,31.74c.09.27.22.8.55,1.43.47.92,1.38,2.03,3.19,2.73.5.19,1.08.35,1.73.47.07.01.15.03.23.04" style="fill:none; stroke:#121212; stroke-linecap:round; stroke-linejoin:round; stroke-width:.9px;"/><path d="M103.72,31.5c.04.2.09.4.13.58.71,2.76,1.76,3.44,2.89,4.08.08.05.16.09.24.14" style="fill:none; stroke:#121212; stroke-linecap:round; stroke-linejoin:round; stroke-width:.9px;"/><path d="M103.82,32.01s.02.05.03.07c.83,1.96,1.21,3.05,4.02,3.07h.11" style="fill:none; stroke:#121212; stroke-linecap:round; stroke-linejoin:round; stroke-width:.9px;"/><path d="M106.6,24.46c-.11.39-.61,2.13-.71,4.37-.03.61-.03,1.27.02,1.94.26,3.35,1.95,4.25,1.96,4.26" style="fill:none; stroke:#121212; stroke-linecap:round; stroke-linejoin:round; stroke-width:.9px;"/><path d="M110.48,20.06c.36,3.58.34,5.38-2.55,7.59-.5.38-1.08.77-1.76,1.19" style="fill:none; stroke:#121212; stroke-linecap:round; stroke-linejoin:round; stroke-width:.9px;"/><path d="M98.56,43.96c.28,2.18.35,2.64-1.28,4.44-.26.29-.56.61-.91.97-.34.35-.81.59-1.32.73-.93.28-1.95.27-2.42.22-1.3-.13-1.47-.87-2.74-1.76" style="fill:none; stroke:#121212; stroke-linecap:round; stroke-linejoin:round; stroke-width:.9px;"/><path d="M79.87,47.56c.63.61,1.3,1.2,2.09,1.63,1.75.97,4.07,1.19,7.89-.71.39-.19.8-.41,1.23-.66" style="fill:none; stroke:#121212; stroke-linecap:round; stroke-linejoin:round; stroke-width:.9px;"/><path d="M79.77,47.42s.08.01.12.02c2.54.37,3.12.34,6.17-1.35" style="fill:none; stroke:#121212; stroke-linecap:round; stroke-linejoin:round; stroke-width:.9px;"/><path d="M106.5,17.16c.44-.23,2.96-1.56,6.14.63,2.93,2.02,2.08,5.79,2.07,5.91" style="fill:none; stroke:#121212; stroke-linecap:round; stroke-linejoin:round; stroke-width:.9px;"/><path d="M106.45,17.18c-1.18-.22-10.65-3.07-16.3,5.34-3.29,4.91.69,11.27-1.77,13.46-.87.78-3.81,2.09-4.53,4.67-.74,2.66,1.14,4.09,2.23,5.2" style="fill:none; stroke:#121212; stroke-linecap:round; stroke-linejoin:round; stroke-width:.9px;"/><path d="M97.54,48.44c2.82,2.75,3.88,3.04,7.69,4.12" style="fill:none; stroke:#121212; stroke-linecap:round; stroke-linejoin:round; stroke-width:.9px;"/><path d="M95.12,50.31c.42.65,3.7,5.81,7.09,6.49.65.13,1.12.16,1.48.05.98-.26,1.11-1.48,1.55-4.15" style="fill:none; stroke:#121212; stroke-linecap:round; stroke-linejoin:round; stroke-width:.9px;"/><path d="M105.27,52.67h0c.31.4,2.75,3.53,4.55,3.38.81-.07.23-1.11-2.02-6.56-.1-.25-.2-.5-.31-.76" style="fill:none; stroke:#121212; stroke-linecap:round; stroke-linejoin:round; stroke-width:.9px;"/><path d="M103.71,56.91c.88,6.91,3.94,23.99,5.08,29.15,2.28,10.36,2.27,12.63,3.04,13.38.18.17.4.27.7.36h.22c2.5.05,4.45.17,8.88-.58.57-.09,1.18-.2,1.84-.33" style="fill:none; stroke:#121212; stroke-linecap:round; stroke-linejoin:round; stroke-width:.9px;"/><path d="M81.24,74.66c.34,3.78.15,6.34,2.4,12.25.81,2.1,1.91,4.61,3.46,7.75.85,1.72,1.83,3.62,2.96,5.74,0,0,.91.03,2.41.05,4.31.07,13.44.07,19.21-.96" style="fill:none; stroke:#121212; stroke-linecap:round; stroke-linejoin:round; stroke-width:.9px;"/><path d="M92.48,100.44h0c-.19.4-.84,1.51-1.67,3.36-.33.76-.7,1.65-1.07,2.66-.46,1.26-.93,2.71-1.37,4.37-.7,2.64-1.34,5.79-1.75,9.48-.1.9-.18,1.84-.25,2.81-.31,4.41.35,11.61.98,18.07.26,2.58.51,5.05.69,7.17" style="fill:none; stroke:#121212; stroke-linecap:round; stroke-linejoin:round; stroke-width:.9px;"/><path d="M109.4,123.23c-.17,19.56-.42,24.16-.57,26.49v.07" style="fill:none; stroke:#121212; stroke-linecap:round; stroke-linejoin:round; stroke-width:.9px;"/><path d="M123.58,92.43c.96.22,1.37.34,1.73.69" style="fill:none; stroke:#121212; stroke-linecap:round; stroke-linejoin:round; stroke-width:.9px;"/><path d="M113.07,122.25c.35,2.13,2.39,9.14,5.73,17.03,2.05,4.83,1.94,5.39,4.69,10.91" style="fill:none; stroke:#121212; stroke-linecap:round; stroke-linejoin:round; stroke-width:.9px;"/><path d="M121.61,99.19s.01.02.02.03c.52.77,2.01,2.65,3.99,5.73.35.54.71,1.12,1.09,1.74,1.63,2.67,3.49,6.05,5.36,10.2.1.23.21.46.31.69.26.58,6.79,18.56,9.3,25.72" style="fill:none; stroke:#121212; stroke-linecap:round; stroke-linejoin:round; stroke-width:.9px;"/><path d="M71.18,78.15c.97.65,1.33.9,1.76,1.33.27.27.56.61,1.04,1.16" style="fill:none; stroke:#121212; stroke-linecap:round; stroke-linejoin:round; stroke-width:.9px;"/><path d="M73.01,79.41c.76-.44,3.57-2.03,8.19-4.81,1.22-.73,2.57-1.55,4.04-2.45" style="fill:none; stroke:#121212; stroke-linecap:round; stroke-linejoin:round; stroke-width:.9px;"/><path d="M79.27,54.69c2.42,1.69,2.49,1.89,4.26,5.25" style="fill:none; stroke:#121212; stroke-linecap:round; stroke-linejoin:round; stroke-width:.9px;"/><path d="M81.9,49.28c-6.16.4-3.87,4.96-5.8,6.45-4.54,3.5-3.42,4.77-8.91,8.31-4.85,3.12-4.58,3.47-8.08,5.91-1.4.97-7.99,1.52-6.88,11.59.57,5.19,4.95,7.19,5.07,7.25,9.27,3.99,12.93,9.62,18.8,4.18" style="fill:none; stroke:#121212; stroke-linecap:round; stroke-linejoin:round; stroke-width:.9px;"/><path d="M65.58,78.97c.68.09,5.06.65,8.33,1.86.08.02.15.05.23.08,3.24,1.25,3.66,2.08,4.24,2.92.04.06.08.11.12.17" style="fill:none; stroke:#121212; stroke-linecap:round; stroke-linejoin:round; stroke-width:.9px;"/><path d="M77.23,84.65c-.53.7-1.09,1.21-1.45,3.5-.25,1.67.07,2.43.24,3.04" style="fill:none; stroke:#121212; stroke-linecap:round; stroke-linejoin:round; stroke-width:.9px;"/><path d="M78.66,84.05c2.94,1.13,3.35,1.29,4.47,1.91" style="fill:none; stroke:#121212; stroke-linecap:round; stroke-linejoin:round; stroke-width:.9px;"/><path d="M83.21,86.04c.1.28.03.48-.1.61-.1.1-.24.16-.37.2-.96.24-2.31,2.7-2.14,5.94v.09" style="fill:none; stroke:#121212; stroke-linecap:round; stroke-linejoin:round; stroke-width:.9px;"/><path d="M76.33,92.93c2.62.57,3.39.85,4.44,0" style="fill:none; stroke:#121212; stroke-linecap:round; stroke-linejoin:round; stroke-width:.9px;"/><path d="M80.76,92.78s.04.01.05.01c2.5.65,2.8.57,4.4,1.58" style="fill:none; stroke:#121212; stroke-linecap:round; stroke-linejoin:round; stroke-width:.9px;"/><path d="M83.1,86.64s.01,0,.01,0c.17.09.32.19.49.28" style="fill:none; stroke:#121212; stroke-linecap:round; stroke-linejoin:round; stroke-width:.9px;"/><path d="M85.39,94.5c.04.12.08.23.11.34.65,2.6-1.84,5.17,2.57,7.19,1.16.53,1.26.43,1.97,1.42.18.26.41.31.45.33" style="fill:none; stroke:#121212; stroke-linecap:round; stroke-linejoin:round; stroke-width:.9px;"/><path d="M109.4,123.07c1.41-.32,2.56-.68,3.57-1.07,1.92-.75,3.3-1.62,4.92-2.51" style="fill:none; stroke:#121212; stroke-linecap:round; stroke-linejoin:round; stroke-width:.9px;"/><path d="M107.91,49.45c3.82-.02,7.69-.34,10.98,1.04,1.97.82,2.21,2.8,2.67,4.23" style="fill:none; stroke:#121212; stroke-linecap:round; stroke-linejoin:round; stroke-width:.9px;"/><path d="M106.82,57.24c-.87-.15-1.52,1.07-.51,1.56,1.41.69,1.57-1.37.51-1.56Z" style="fill:none; stroke:#121212; stroke-linecap:round; stroke-linejoin:round; stroke-width:.9px;"/><path d="M108.64,66c-.85-.74-2.11.43-1.15,1.23,1.06.88,1.91-.57,1.15-1.23Z" style="fill:none; stroke:#121212; stroke-linecap:round; stroke-linejoin:round; stroke-width:.9px;"/><path d="M112.08,84.2c-.85-.74-2.12.43-1.16,1.23,1.06.88,1.91-.57,1.16-1.23Z" style="fill:none; stroke:#121212; stroke-linecap:round; stroke-linejoin:round; stroke-width:.9px;"/><path d="M109.82,75.02c-.94-.18-1.64,1.55-.2,1.81,1.4.26,1.35-1.59.2-1.81Z" style="fill:none; stroke:#121212; stroke-linecap:round; stroke-linejoin:round; stroke-width:.9px;"/><path d="M113.53,94.01c-.93-.18-1.63,1.56-.19,1.82,1.4.26,1.35-1.59.19-1.82Z" style="fill:none; stroke:#121212; stroke-linecap:round; stroke-linejoin:round; stroke-width:.9px;"/><path d="M115.65,55.04c5.38,9.23,6.64,8.93,7.17,17.41.34,5.35.53,10.47.64,14.77.15,5.94.14,10.31.13,11.53" style="fill:none; stroke:#121212; stroke-linecap:round; stroke-linejoin:round; stroke-width:.9px;"/><path d="M85.52,71.14c-.05,1.35-.22,1.74-.74,2.81" style="fill:none; stroke:#121212; stroke-linecap:round; stroke-linejoin:round; stroke-width:.9px;"/><path d="M121.58,54.88c3.88,4.2,4.27,2.93,7.22,7.84,3.45,5.73,7.06,9.17,7.4,12.37.85,8.11-.71,7.96-3.69,10.94" style="fill:none; stroke:#121212; stroke-linecap:round; stroke-linejoin:round; stroke-width:.9px;"/><path d="M132.49,86s0,.01-.01.02c-.79,2.15-1.38,4.43-3.73,4.41" style="fill:none; stroke:#121212; stroke-linecap:round; stroke-linejoin:round; stroke-width:.9px;"/><path d="M123.59,87.22c3.73-.54,4.96,1.55,5.28,2.24" style="fill:none; stroke:#121212; stroke-linecap:round; stroke-linejoin:round; stroke-width:.9px;"/><path d="M128.86,89.54c-.09.29-.18.57-.27.84-1.67,5.15-2.02,5.21-1.64,6.42.55,1.81-.04,3-.15,3.43-.34,1.28-.22,1.96-.25,2.62-.03.57-.19,1.13-.86,2.05" style="fill:none; stroke:#121212; stroke-linecap:round; stroke-linejoin:round; stroke-width:.9px;"/><path d="M123.15,77.78c.17-.28,1.1-1.8,2.92-2.75,2.22-1.17,3.07-.86,4.51-.72" style="fill:none; stroke:#121212; stroke-linecap:round; stroke-linejoin:round; stroke-width:.9px;"/><path d="M123.47,83.4c3.07-1.54,5.03-.66,6.67.47" style="fill:none; stroke:#121212; stroke-linecap:round; stroke-linejoin:round; stroke-width:.9px;"/><path d="M47.63,112.9c1.04-1.17,2.48-2.01,4.33-2.92,0,0,1.36-.38,2.05-.45,6.29-.59,33.27-2.8,35.69-3.08" style="fill:none; stroke:#121212; stroke-linecap:round; stroke-linejoin:round; stroke-width:.9px;"/><path d="M126.67,102.85c18.99-1.56,25.78-3.94,28.37,6.68l4.58,21.14,20.56,94.92,2.94,13.55c2.37,11.21,3.09,14.22,2.45,17.63-1.05,5.55-7.25,5.84-7.35,5.87,0,0-45.11,7.07-49.16,7.5-20.53,2.19-38.3,5.62-46.63,6.74-1.12.15-3.38-.02-3.38-.02-.18-.02-.35-.05-.52-.08-8.61-1.27-10.52-3.95-11.75-11.37l-.25-1.9c-.73-4.68-6.11-39.55-6.54-44.28-.06-.72-8.93-61.14-10.4-69.32-4.6-25.62-5.46-33.11-1.98-37" style="fill:none; stroke:#121212; stroke-linecap:round; stroke-linejoin:round; stroke-width:.9px;"/><path d="M159.62,130.73v-.06c-.01-1.4.15-3.44.33-5.39.08-.87.16-1.72.24-2.48.4-3.78.57-3.3,1.94-.33.42.9.78,1.7,1.1,2.4,1.48,3.22,1.99,4.52,2.05,5.08.13,1.14,17.85,83.72,19.89,93.28.94,4.43-4.01,4.56-4.99,2.36-.09-.21-.15-.45-.16-.71" style="fill:none; stroke:#121212; stroke-linecap:round; stroke-linejoin:round; stroke-width:.9px;"/><path d="M108.35,157.3c.02,1.8.04,3.61.06,5.41" style="fill:none; stroke:#121212; stroke-linecap:round; stroke-linejoin:round; stroke-width:.9px;"/><path d="M88.43,156.9c-.16,2.27-.41,3.25-.22,15.64" style="fill:none; stroke:#121212; stroke-linecap:round; stroke-linejoin:round; stroke-width:.9px;"/><path d="M101.3,244.33c4.44-4.29,12.77-11.81,16.1-25.25" style="fill:none; stroke:#121212; stroke-linecap:round; stroke-linejoin:round; stroke-width:.9px;"/><path d="M136.56,220.19c1.64.92,3.84.48,6.51-2.07,1.68-1.6,7.1-11.42,8.4-21.6.2-1.56,3.12-9,.46-21.66" style="fill:none; stroke:#121212; stroke-linecap:round; stroke-linejoin:round; stroke-width:.9px;"/><path d="M136.56,220.19c1.84-4.45,3.28-9.81,3.62-16.05.35-6.38-4.38-3.82-5.7.25-2.16,6.7-1.18,13.96,2.08,15.8Z" style="fill:none; stroke:#121212; stroke-linecap:round; stroke-linejoin:round; stroke-width:.9px;"/><path d="M126.32,235.97c1.22-1.45,6.55-6.78,10.24-15.78" style="fill:none; stroke:#121212; stroke-linecap:round; stroke-linejoin:round; stroke-width:.9px;"/><path d="M157.5,205.59c-.46,2.41-.47,2.37-1.36,4.66" style="fill:none; stroke:#121212; stroke-linecap:round; stroke-linejoin:round; stroke-width:.9px;"/><path d="M88.21,110.79c-11.32.49-16.9.97-18.37,1.1-14.06,1.2-14.79,1.51-17.14,2.73l-1.09.77c-1.24,2.13-1.75,3.36-1.33,8.39.47,5.6,2.07,15.9,5.05,37.38.59,4.25,3.32,21.35,6.35,40.54,3.08,19.39,6.47,40.93,8.32,53.5.45,3.08.81,5.62,1.05,7.46l.23,1.7c.55,3.33,1.26,10.52,15.97,7.89,0,0,74.94-10.15,88.17-13.29l1.35-.23c6.05-1.26,5.94-4.41,5.13-9.29l-.2-1.23c-6.32-26.66-13.72-61.19-13.78-61.44-9.26-43.9-13.58-64.25-15.08-71.35-.46-2.16-.66-3.09-.66-3.09-.6-2.63-1.99-6.16-5.6-6.54-2.75-.29-10.09-.01-19.83.87" style="fill:none; stroke:#121212; stroke-linecap:round; stroke-linejoin:round; stroke-width:.9px;"/><path d="M61.69,201.7c6.99-1.22,8.14-1.02,8.84-.9,3.21.56,1.91,2.18,9.09,45.26.97,5.79.39,6.11-1.93,7.47-1.4.81-6.46,1.38-7.69,1.67-.02,0-.03,0-.04,0" style="fill:none; stroke:#121212; stroke-linecap:round; stroke-linejoin:round; stroke-width:.9px;"/><path d="M50.36,123.77c9.96-1.44,21.16-1.67,35.87-3.5" style="fill:none; stroke:#121212; stroke-linecap:round; stroke-linejoin:round; stroke-width:.9px;"/><path d="M131.91,116.91c.06-.01.11-.01.16-.02,10.18-.93,10.39-.97,20.69-1.45" style="fill:none; stroke:#121212; stroke-linecap:round; stroke-linejoin:round; stroke-width:.9px;"/><path d="M47.63,112.9s-.01.01-.02.01c-4.01,2.86-4.47,7.63-4.08,11.4,1.35,13.22,7.89,54.33,10.62,72.1,3.17,20.67,9.42,68.6,11.81,75,2,5.35,11.7,5.44,12.55,5.49.02.01.04.01.05.01" style="fill:none; stroke:#121212; stroke-linecap:round; stroke-linejoin:round; stroke-width:.9px;"/><path d="M160.17,125.3c1.26-.6,1.54-.67,3.04-.42" style="fill:none; stroke:#121212; stroke-linecap:round; stroke-linejoin:round; stroke-width:.9px;"/></svg>