<?xml version="1.0" encoding="UTF-8"?><svg id="a" xmlns="http://www.w3.org/2000/svg" viewBox="0 0 217.42 289.62"><path d="M182.66,183.58c.28,2.25.57,4.48.86,6.71l-.12.02c-19.05.15-35.03.19-49.16.17-.12-2.31-.23-4.61-.35-6.9,25.66.05,46.44.12,48.77,0Z" style="fill:#fff;"/><path d="M183.52,190.29c.29,2.24.58,4.46.86,6.67-18.56.12-35.1.21-49.8.27-.12-2.25-.23-4.5-.34-6.75,14.13.02,30.11-.02,49.16-.17l.12-.02Z" style="fill:#fff;"/><path d="M42.59,83.49c.19-2.08.38-4.08.56-6l.22.02c2.6-.05,21.14-.15,40.63-.21-.03,1.04-.06,2.1-.09,3.18-.02.87-.05,1.75-.07,2.64-19.47.18-37.91.4-40.49.45l-.76-.08Z" style="fill:#fff;"/><path d="M43.81,70.37c.22-2.44.43-4.7.62-6.76h.14c2.6-.04,20.73-.24,39.79-.41-.05,2.09-.1,4.37-.17,6.83-19.29.13-37.67.29-40.38.34Z" style="fill:#fff;"/><path d="M184.38,196.96c5.16,40.06,9.42,73.41,10.1,78.34-13.22-.05-33.58-.12-55.74-.15-1.36-23.72-2.79-50.87-4.16-77.92,14.7-.06,31.24-.15,49.8-.27Z" style="fill:#fff;"/><path d="M181.82,177.16c.28,2.15.56,4.29.84,6.42-2.33.12-23.11.05-48.77,0-.1-2.12-.21-4.24-.31-6.35,13.59-.03,28.8-.05,48.08-.05l.16-.02Z" style="fill:#fff;"/><path d="M179.17,156.67c.89,6.85,1.78,13.71,2.65,20.49l-.16.02c-19.28,0-34.49.02-48.08.05-.34-6.73-.67-13.39-.99-19.94,15.83-.17,31.83-.38,46.52-.61h.06Z" style="fill:#fff;"/><path d="M179.17,156.67h-.06c-14.69.24-30.69.45-46.52.62-.13-2.7-.26-5.38-.38-8.04,15.67-.17,30.22-.14,45.84.41l.21-.03c.3,2.34.6,4.69.91,7.04Z" style="fill:#fff;"/><path d="M178.26,149.63l-.21.03c-15.62-.55-30.17-.58-45.84-.41-.12-2.24-.22-4.47-.33-6.67,15.14-.15,30.55-.33,44.96-.56l.41-.05c.34,2.54.67,5.1,1.01,7.66Z" style="fill:#fff;"/><path d="M177.25,141.97l-.41.05c-14.41.23-29.82.41-44.96.56-.13-2.71-.26-5.38-.39-8.02,15.09-.13,30.4-.34,44.63-.67h.08c.35,2.67.7,5.37,1.05,8.08Z" style="fill:#fff;"/><path d="M176.2,133.88h-.08c-14.23.34-29.54.55-44.63.68-.23-4.9-.46-9.69-.68-14.33,17.41-.14,33.27-.29,43.2-.44l.34-.05c.61,4.63,1.23,9.35,1.85,14.14Z" style="fill:#fff;"/><path d="M174.35,119.74l-.34.05c-9.93.15-25.79.3-43.2.44-.33-6.93-.64-13.54-.93-19.75,19.42-.14,35.65-.26,41.81-.51h.05c.84,6.31,1.71,12.94,2.61,19.77Z" style="fill:#fff;"/><path d="M171.74,99.96h-.05c-6.16.26-22.39.38-41.81.52-.09-1.85-.17-3.66-.25-5.43-.09-1.89-.18-3.73-.26-5.53-.11-2.31-.21-4.54-.31-6.69-.09-1.94-.18-3.82-.26-5.62-.12-2.61-.24-5.07-.34-7.36-.12-2.51-.22-4.83-.32-6.92-.1-2.23-.19-4.21-.27-5.93,13.2.02,26.27.09,38.08.21,1.49,10.54,3.51,25.52,5.79,42.75Z" style="fill:#fff;"/><path d="M134.58,197.23c1.37,27.05,2.8,54.2,4.16,77.92-20.34-.03-42.19-.04-61.42.02v-.1c.85-23.27,1.83-50.43,2.78-77.71,14.41,0,32.37-.03,54.48-.13Z" style="fill:#fff;"/><path d="M134.24,190.48c.11,2.25.22,4.5.34,6.75-22.11.1-40.07.13-54.48.13.08-2.38.16-4.75.24-7.13,16.59.09,33.28.23,53.9.25Z" style="fill:#fff;"/><path d="M133.89,183.58c.12,2.29.23,4.59.35,6.9-20.62-.02-37.31-.16-53.9-.25.08-2.22.16-4.44.23-6.66,17.3-.05,36.37-.02,53.32.01Z" style="fill:#fff;"/><path d="M133.58,177.23c.1,2.11.21,4.23.31,6.35-16.95-.03-36.02-.06-53.32-.01.08-2.05.15-4.1.22-6.15,18.71-.08,34.23-.14,52.79-.19Z" style="fill:#fff;"/><path d="M132.59,157.29c.32,6.55.65,13.21.99,19.94-18.56.05-34.08.11-52.79.19.23-6.62.45-13.19.66-19.65,15.36-.12,33.14-.28,51.14-.48Z" style="fill:#fff;"/><path d="M132.21,149.25c.12,2.66.25,5.34.38,8.04-18,.2-35.78.36-51.14.48.09-2.59.18-5.17.27-7.72,19.18-.27,35.36-.63,50.49-.8Z" style="fill:#fff;"/><path d="M131.88,142.58c.11,2.2.21,4.43.33,6.67-15.13.17-31.31.53-50.49.8.07-2.38.15-4.74.23-7.08,14.92-.09,32.24-.21,49.93-.39Z" style="fill:#fff;"/><path d="M131.49,134.56c.13,2.64.26,5.31.39,8.02-17.69.18-35.01.3-49.93.39.1-2.77.19-5.5.27-8.21,14.76.01,31.86-.04,49.27-.2Z" style="fill:#fff;"/><path d="M130.81,120.23c.22,4.64.45,9.43.68,14.33-17.41.16-34.51.21-49.27.2.16-4.84.32-9.58.46-14.18,15.11-.11,32.26-.23,48.13-.35Z" style="fill:#fff;"/><path d="M129.88,100.48c.29,6.21.6,12.82.93,19.75-15.87.12-33.02.24-48.13.35.23-6.88.43-13.47.62-19.67,15.37-.2,31.89-.32,46.58-.43Z" style="fill:#fff;"/><path d="M129.63,95.05c.08,1.77.16,3.58.25,5.43-14.69.11-31.21.23-46.58.43.06-1.94.12-3.85.18-5.71,18.73-.1,38.31-.18,46.11-.15h.04Z" style="fill:#fff;"/><path d="M129.63,95.05h-.04c-7.8-.03-27.38.05-46.11.15.05-1.86.11-3.68.16-5.45,18.5-.15,37.87-.26,45.67-.23h.06c.08,1.8.17,3.64.26,5.53Z" style="fill:#fff;"/><path d="M83.74,86.46c.03-1.14.06-2.25.1-3.34,18.25-.18,37.4-.32,45.22-.29.1,2.15.2,4.38.31,6.69h-.06c-7.8-.03-27.17.08-45.67.23.03-1.12.07-2.21.1-3.29Z" style="fill:#fff;"/><path d="M83.91,80.48c.03-1.08.06-2.14.09-3.18,18.05-.07,36.91-.11,44.68-.08h.12c.08,1.79.17,3.67.26,5.61-7.82-.03-26.97.11-45.22.29.02-.89.05-1.77.07-2.64Z" style="fill:#fff;"/><path d="M84.09,73.87c.04-1.32.07-2.6.1-3.84,17.83-.12,36.43-.21,44.18-.18h.09c.1,2.29.22,4.75.34,7.36h-.12c-7.77-.02-26.63.02-44.68.09.03-1.17.06-2.32.09-3.43Z" style="fill:#fff;"/><path d="M128.46,69.85h-.09c-7.75-.03-26.35.06-44.18.18.07-2.46.12-4.74.17-6.83,17.56-.16,35.92-.29,43.66-.26h.12c.1,2.08.2,4.4.32,6.91Z" style="fill:#fff;"/><path d="M128.14,62.93h-.12c-7.74-.02-26.1.11-43.66.27.05-2.29.09-4.34.12-6.15,13.6-.05,28.58-.08,43.39-.05.08,1.72.17,3.7.27,5.93Z" style="fill:#fff;"/><path d="M84.48,57.05c-.03,1.81-.07,3.86-.12,6.15-19.06.17-37.19.37-39.79.42h-.14c.22-2.39.41-4.52.59-6.37,9.62-.07,23.6-.15,39.46-.2Z" style="fill:#fff;"/><path d="M84.19,70.03c-.03,1.24-.06,2.52-.1,3.84-9.4.04-19.09.19-37.85.38l-2.77-.27c.12-1.24.23-2.45.34-3.61,2.71-.05,21.09-.21,40.38-.34Z" style="fill:#fff;"/><path d="M84.09,73.87c-.03,1.11-.06,2.26-.09,3.43-19.49.06-38.03.16-40.63.21l-.22-.02c.11-1.2.22-2.37.32-3.51l2.77.27c18.76-.19,28.45-.34,37.85-.38Z" style="fill:#fff;"/><path d="M83.84,83.12c-.04,1.09-.07,2.2-.1,3.34-15.76-.01-28.74-.11-38.97.4l-2.48-.23c.1-1.06.2-2.11.3-3.14l.76.08c2.58-.05,21.02-.27,40.49-.45Z" style="fill:#fff;"/><path d="M44.77,86.86c10.23-.51,23.21-.41,38.97-.4-.03,1.08-.07,2.17-.1,3.29-19.79.15-38.58.34-41.17.39l-.5-.05c.11-1.17.22-2.33.32-3.46l2.48.23Z" style="fill:#fff;"/><path d="M83.64,89.75c-.05,1.77-.11,3.59-.16,5.45-20.07.12-39.16.26-41.75.31l-.26-.02c.17-1.84.34-3.64.5-5.4l.5.05c2.59-.05,21.38-.24,41.17-.39Z" style="fill:#fff;"/><path d="M83.48,95.2c-.06,1.86-.12,3.77-.18,5.71-16.4.2-31.5.5-41.67.96l-.76-.07c.2-2.15.4-4.25.6-6.31l.26.02c2.59-.05,21.68-.19,41.75-.31Z" style="fill:#fff;"/><path d="M83.3,100.91c-.19,6.2-.39,12.79-.62,19.67-22.67.15-40.73.26-42.92.3l-.68-.06c.63-6.62,1.23-12.99,1.79-19.02l.76.07c10.17-.46,25.27-.76,41.67-.96Z" style="fill:#fff;"/><path d="M82.68,120.58c-.14,4.6-.3,9.34-.46,14.18-22.05,0-38.9-.11-43.79-.15l-.64-.06c.44-4.67.87-9.26,1.29-13.73l.68.06c2.19-.04,20.25-.15,42.92-.3Z" style="fill:#fff;"/><path d="M82.22,134.76c-.08,2.71-.17,5.44-.27,8.21-22.15.12-39.02.17-44,.18l-.97-.09c.27-2.86.54-5.7.81-8.51l.64.06c4.89.04,21.74.15,43.79.15Z" style="fill:#fff;"/><path d="M81.95,142.97c-.08,2.34-.16,4.7-.23,7.08-13.28.18-28,.32-44.81.31l-.61-.06c.23-2.43.45-4.85.68-7.24l.97.09c4.98-.01,21.85-.06,44-.18Z" style="fill:#fff;"/><path d="M81.72,150.05c-.09,2.55-.18,5.13-.27,7.72-22.89.19-40.43.29-45.37.29l-.52-.05c.25-2.58.49-5.15.74-7.71l.61.06c16.81.01,31.53-.13,44.81-.31Z" style="fill:#fff;"/><path d="M81.45,157.77c-.21,6.46-.43,13.03-.66,19.65-13.33.07-28.28.14-47.1.22.63-6.56,1.25-13.12,1.87-19.63l.52.05c4.94,0,22.48-.1,45.37-.29Z" style="fill:#fff;"/><path d="M80.79,177.42c-.07,2.05-.14,4.1-.22,6.15-20.43.04-38.39.19-47.44.52h-.06c.21-2.15.42-4.3.62-6.45,18.82-.08,33.77-.15,47.1-.22Z" style="fill:#fff;"/><path d="M80.57,183.57c-.07,2.22-.15,4.44-.23,6.66-15.09-.08-30.08-.11-47.85.03h-.01c.2-2.05.4-4.11.59-6.18h.06c9.05-.32,27.01-.47,47.44-.51Z" style="fill:#fff;"/><path d="M80.34,190.23c-.08,2.38-.16,4.75-.24,7.13-28.12,0-42.72-.14-48.27-.26.21-2.27.43-4.55.65-6.84h.01c17.77-.14,32.76-.11,47.85-.03Z" style="fill:#fff;"/><path d="M80.1,197.36c-.95,27.28-1.93,54.44-2.78,77.71v.1h-.62c-20.75.06-39.65.19-52.46.44v-.99c1.93-19.13,4.69-47.41,7.59-77.52,5.55.12,20.15.26,48.27.26Z" style="fill:#fff;"/><path d="M41.63,101.87c10.17-.46,25.27-.76,41.67-.96,15.37-.2,31.89-.32,46.58-.43,19.42-.14,35.65-.26,41.81-.51" style="fill:none; stroke:#121212; stroke-linecap:round; stroke-linejoin:round; stroke-width:.9px;"/><path d="M39.76,120.88c2.19-.04,20.25-.15,42.92-.3,15.11-.11,32.26-.23,48.13-.35,17.41-.14,33.27-.29,43.2-.44" style="fill:none; stroke:#121212; stroke-linecap:round; stroke-linejoin:round; stroke-width:.9px;"/><path d="M38.43,134.61c4.89.04,21.74.15,43.79.15,14.76.01,31.86-.04,49.27-.2,15.09-.13,30.4-.34,44.63-.67" style="fill:none; stroke:#121212; stroke-linecap:round; stroke-linejoin:round; stroke-width:.9px;"/><path d="M37.95,143.15c4.98-.01,21.85-.06,44-.18,14.92-.09,32.24-.21,49.93-.39,15.14-.15,30.55-.33,44.96-.56" style="fill:none; stroke:#121212; stroke-linecap:round; stroke-linejoin:round; stroke-width:.9px;"/><path d="M36.08,158.06c4.94,0,22.48-.1,45.37-.29,15.36-.12,33.14-.28,51.14-.48,15.83-.17,31.83-.38,46.52-.61" style="fill:none; stroke:#121212; stroke-linecap:round; stroke-linejoin:round; stroke-width:.9px;"/><path d="M36.91,150.36c16.81.01,31.53-.13,44.81-.31,19.18-.27,35.36-.63,50.49-.8,15.67-.17,30.22-.14,45.84.41" style="fill:none; stroke:#121212; stroke-linecap:round; stroke-linejoin:round; stroke-width:.9px;"/><path d="M33.66,177.64h.03c18.82-.08,33.77-.15,47.1-.22,18.71-.08,34.23-.14,52.79-.19,13.59-.03,28.8-.05,48.08-.05" style="fill:none; stroke:#121212; stroke-linecap:round; stroke-linejoin:round; stroke-width:.9px;"/><path d="M33.13,184.09c9.05-.33,27.01-.48,47.44-.52,17.3-.05,36.37-.02,53.32.01,25.66.05,46.44.12,48.77,0h.06" style="fill:none; stroke:#121212; stroke-linecap:round; stroke-linejoin:round; stroke-width:.9px;"/><path d="M44.57,63.62c2.6-.05,20.73-.25,39.79-.42,17.56-.16,35.92-.29,43.66-.26" style="fill:none; stroke:#121212; stroke-linecap:round; stroke-linejoin:round; stroke-width:.9px;"/><path d="M43.78,70.37h.03c2.71-.05,21.09-.21,40.38-.34,17.83-.12,36.43-.21,44.18-.18" style="fill:none; stroke:#121212; stroke-linecap:round; stroke-linejoin:round; stroke-width:.9px;"/><path d="M43.37,77.51c2.6-.05,21.14-.15,40.63-.21,18.05-.07,36.91-.11,44.68-.08" style="fill:none; stroke:#121212; stroke-linecap:round; stroke-linejoin:round; stroke-width:.9px;"/><path d="M43.35,83.57c2.58-.05,21.02-.27,40.49-.45,18.25-.18,37.4-.32,45.22-.29" style="fill:none; stroke:#121212; stroke-linecap:round; stroke-linejoin:round; stroke-width:.9px;"/><path d="M42.47,90.14c2.59-.05,21.38-.24,41.17-.39,18.5-.15,37.87-.26,45.67-.23" style="fill:none; stroke:#121212; stroke-linecap:round; stroke-linejoin:round; stroke-width:.9px;"/><path d="M41.73,95.51c2.59-.05,21.68-.19,41.75-.31,18.73-.1,38.31-.18,46.11-.15" style="fill:none; stroke:#121212; stroke-linecap:round; stroke-linejoin:round; stroke-width:.9px;"/><path d="M32.49,190.26c17.77-.14,32.76-.11,47.85-.03,16.59.09,33.28.23,53.9.25,14.13.02,30.11-.02,49.16-.17" style="fill:none; stroke:#121212; stroke-linecap:round; stroke-linejoin:round; stroke-width:.9px;"/><path d="M31.68,197.1h.15c5.55.12,20.15.26,48.27.26,14.41,0,32.37-.03,54.48-.13,14.7-.06,31.24-.15,49.8-.27h.03" style="fill:none; stroke:#121212; stroke-linecap:round; stroke-linejoin:round; stroke-width:.9px;"/><path d="M127.54,49.81c.05.99.16,3.46.33,7.19.08,1.72.17,3.7.27,5.93.1,2.09.2,4.41.32,6.92.1,2.29.22,4.75.34,7.36.08,1.8.17,3.68.26,5.62.1,2.15.2,4.38.31,6.69.08,1.8.17,3.64.26,5.53.08,1.77.16,3.58.25,5.43.29,6.21.6,12.82.93,19.75.22,4.64.45,9.43.68,14.33.13,2.64.26,5.31.39,8.02.11,2.2.21,4.43.33,6.67.12,2.66.25,5.34.38,8.04.32,6.55.65,13.21.99,19.94.1,2.11.21,4.23.31,6.35.12,2.29.23,4.59.35,6.9.11,2.25.22,4.5.34,6.75,1.37,27.05,2.8,54.2,4.16,77.92,0,.14,0,.27.02.4" style="fill:none; stroke:#121212; stroke-linecap:round; stroke-linejoin:round; stroke-width:.9px;"/><path d="M45.69,49.61c-.1,1.2-.33,3.82-.67,7.64-.18,1.85-.37,3.98-.59,6.36-.19,2.06-.4,4.32-.62,6.76-.11,1.16-.22,2.37-.34,3.61-.1,1.14-.21,2.31-.32,3.51-.18,1.92-.37,3.92-.56,6-.1,1.03-.2,2.08-.3,3.14-.1,1.13-.21,2.29-.32,3.46-.16,1.76-.33,3.56-.5,5.4-.2,2.06-.4,4.16-.6,6.31-.56,6.03-1.16,12.4-1.79,19.02-.42,4.47-.85,9.06-1.29,13.73-.27,2.81-.54,5.65-.81,8.51-.23,2.39-.45,4.81-.68,7.24-.25,2.56-.49,5.13-.74,7.71-.62,6.51-1.24,13.07-1.87,19.63-.2,2.15-.41,4.3-.62,6.44-.19,2.07-.39,4.13-.59,6.18-.22,2.29-.44,4.57-.65,6.84-2.9,30.11-5.66,58.39-7.6,77.52" style="fill:none; stroke:#121212; stroke-linecap:round; stroke-linejoin:round; stroke-width:.9px;"/><path d="M43.56,111.26c13.94.14,15.64-.51,25.12-.48" style="fill:none; stroke:#121212; stroke-linecap:round; stroke-linejoin:round; stroke-width:.9px;"/><path d="M84.56,49.71c0,1.53-.01,4.01-.08,7.34-.03,1.81-.07,3.86-.12,6.15-.05,2.09-.1,4.37-.17,6.83-.03,1.24-.06,2.52-.1,3.84-.03,1.11-.06,2.26-.09,3.43-.03,1.04-.06,2.1-.09,3.18-.02.87-.05,1.75-.07,2.64-.04,1.09-.07,2.2-.1,3.34-.03,1.08-.07,2.17-.1,3.29-.05,1.77-.11,3.59-.16,5.45-.06,1.86-.12,3.77-.18,5.71-.19,6.2-.39,12.79-.62,19.67-.14,4.6-.3,9.34-.46,14.18-.08,2.71-.17,5.44-.27,8.21-.08,2.34-.16,4.7-.23,7.08-.09,2.55-.18,5.13-.27,7.72-.21,6.46-.43,13.03-.66,19.65-.07,2.05-.14,4.1-.22,6.15-.07,2.22-.15,4.44-.23,6.66-.08,2.38-.16,4.75-.24,7.13-.95,27.28-1.93,54.44-2.78,77.71" style="fill:none; stroke:#121212; stroke-linecap:round; stroke-linejoin:round; stroke-width:.9px;"/><path d="M164.88,49.77c.32,2.14.67,4.63,1.07,7.44,1.49,10.54,3.51,25.52,5.79,42.75.84,6.32,1.71,12.95,2.61,19.78.61,4.63,1.23,9.35,1.85,14.14.35,2.68.7,5.38,1.05,8.09.34,2.54.67,5.1,1.01,7.66.3,2.34.6,4.69.91,7.04.89,6.85,1.78,13.71,2.65,20.49.28,2.15.56,4.29.84,6.42.28,2.25.57,4.48.86,6.71.29,2.24.58,4.46.86,6.67,5.16,40.06,9.42,73.41,10.1,78.34.01.13.03.23.04.32" style="fill:none; stroke:#121212; stroke-linecap:round; stroke-linejoin:round; stroke-width:.9px;"/><path d="M32.49,57.15c1.92-.02,6.32.14,12.53.1,9.62-.07,23.6-.15,39.46-.2,13.6-.05,28.58-.08,43.39-.05,13.2.02,26.27.09,38.08.21,4.81.05,9.62-.09,13.94-.02" style="fill:none; stroke:#121212; stroke-linecap:round; stroke-linejoin:round; stroke-width:.9px;"/><path d="M8.64,275.76c1.99-.06,13.12-.11,15.6-.15,12.81-.25,31.71-.38,52.46-.44h.62c19.23-.06,41.08-.05,61.42-.02,22.16.03,42.52.1,55.74.15,7.83.03,13.16.06,14.87.07" style="fill:none; stroke:#121212; stroke-linecap:round; stroke-linejoin:round; stroke-width:.9px;"/><path d="M46.24,74.25c18.76-.19,28.45-.34,37.85-.38,10.01-.04,19.69.03,39.66.29" style="fill:none; stroke:#121212; stroke-linecap:round; stroke-linejoin:round; stroke-width:.9px;"/><path d="M45.69,80.75c13.05-.19,13.14-.42,38.22-.27.68,0,1.38,0,2.1,0,14.03.09,13.67-.2,32.32-.57" style="fill:none; stroke:#121212; stroke-linecap:round; stroke-linejoin:round; stroke-width:.9px;"/><path d="M44.77,86.86c10.23-.51,23.21-.41,38.97-.4,11.83.01,25.22-.03,40.17-.41" style="fill:none; stroke:#121212; stroke-linecap:round; stroke-linejoin:round; stroke-width:.9px;"/><path d="M46.9,67.16c.87-.04.83-.16,13.36-.42" style="fill:none; stroke:#121212; stroke-linecap:round; stroke-linejoin:round; stroke-width:.9px;"/><path d="M100.89,66.57c5.54-.23,5.46-.22,11.04-.57" style="fill:none; stroke:#121212; stroke-linecap:round; stroke-linejoin:round; stroke-width:.9px;"/><path d="M148.36,65.32c9.78-.06,14.73-.14,16.01-.16" style="fill:none; stroke:#121212; stroke-linecap:round; stroke-linejoin:round; stroke-width:.9px;"/><path d="M41.9,128.29c2.87-.09,8.68-.27,35.84-.57" style="fill:none; stroke:#121212; stroke-linecap:round; stroke-linejoin:round; stroke-width:.9px;"/><path d="M40.67,139.27c.17,0,2.35-.28,15.07-.28" style="fill:none; stroke:#121212; stroke-linecap:round; stroke-linejoin:round; stroke-width:.9px;"/><path d="M40.14,147.07c14.36-.81,14.25-.08,28.55-.6" style="fill:none; stroke:#121212; stroke-linecap:round; stroke-linejoin:round; stroke-width:.9px;"/><path d="M39.16,154.57c8.63-.05,9.63.13,18.26.17" style="fill:none; stroke:#121212; stroke-linecap:round; stroke-linejoin:round; stroke-width:.9px;"/><path d="M126.12,258.1s0,.02,0,.02c-.13.52-.44.83-.92,1.1l-.26-.03c-.07.15-.17.23-.27.28-1.48.89-4.03.71-5-.71-.14-.2-.18-1.51,3.04-.3.2-.13.41-.26.61-.39-1.04-1.83-.61-3.17-2.36-4.39-1.79-1.23-3.47-3.97-4.21-6.03-1.06-2.97-1.95-2.24-5.25-4.73l-.2-.26c1.43-1.05,2.95-2.49,4.43-4.33l.03.03c3.38,4.61,5.28,3.87,7.55,8.39,1.71,3.41,4.08,5.58,4.32,7.76.19,1.65-1.19,3.09-1.5,3.59Z" style="fill:#fff;"/><path d="M46.61,199.45l-.03-.06v-.07h.08c.22-.17.22-.16,2.77-1.97l.32-.09c3.08.81,9.76,2.13,13.88-2.36.68-.75,3-.11,5.69-1.2,4.64,2.32,6.02,2.85,8.09,5.35.72.86,1.51,1.96,2.56,3.44l-.03.03.16.16c3.14,3.13,6.56,8.51,15.24,16.81,2.67,2.55,6.39,9.1,9.57,10.41.62.26,4.38,1.8,6.95,4.69,2.01,2.26,1.68,1.47,3.99,3.41l.02.15-.15.18c-1.48,1.84-3,3.28-4.43,4.33-2.9,2.15-5.4,2.69-6.34,1.68-4.69-5.07-10.4-4.5-12.34-8.17-1.37-2.6-2.49-3.19-5.1-4.9-1.95-1.27-4.73-3.16-9.07-6.99-.52-.46-.99-.86-1.42-1.22-3.24-2.64-3.95-2.47-5.39-5.28-.36-.71-.68-1.28-.99-1.73.57,4.8.91,4.71-.82,8.09l.03.13c-3.63.72-7.83,1.83-11.13,3.35-4.6,2.13-11.5,7.6-15.25,12.26l-.19-.15c-2.89-1.28-6.84-3.34-11.22-4.12-2.99-.53-5.66-.54-7.84-.98-1.14-.22-2.16-.56-3.02-1.14l-.05-.09c1-1.74,1.01-1.45,2.2-3.14,2.61-3.73,2.14-2.9,4.08-7.06,6.3-13.49,7.7-16.55,19.18-23.75Z" style="fill:#2848f9;"/><path d="M87.9,193.91c-.46-.11-.77-.37-1.26-1.05l-.06-.28c.12-.03.24-.06.36-.08h.4c1.46-.2,2.27-.49,2.74-1.62.58-1.38-.62-2.2-.19-3.18.27-.62.12-.75-.33-1.42-.12-.18.07-1.2.09-1.3l-.11-.05s0-.08-.01-.12h.16c.22-.1,2.25-1.66,3.49-.24.72.84-.71,2.71-.18,3.39,1.04,1.35.22,1.67.72,2.43.93,1.43-.28,2.22-.41,2.93-.27,1.45-.67,1.79-2.81,2.62l-.16-.43c-.68.05-2.09.42-2.53-1.28l.09-.32Z" style="fill:#fff;"/><path d="M90.66,165.48c1.54.99-.68,5.31-5.66,8.64l-.03.03c-.34-.36-.79-.76-1.4-1.26l-.11-.18c2.89-1.75,5.2-3.75,7.04-7v-.27c.09.01.14.02.16.04Z" style="fill:#2848f9;"/><path d="M90.51,165.44v.27c-1.85,3.25-4.16,5.25-7.05,7-.68.41-1.4.81-2.16,1.21-.93.5-1.92,1-2.97,1.52-2.27,1.13-4.29,1.99-6.18,2.79,5.93-3.89,8.15-7.78,8.76-8.94.03-.06.06-.11.08-.16l.18-.08c5.38-3.23,8.59-3.69,9.34-3.61Z" style="fill:#2848f9;"/><path d="M86.72,197.38h0c-.52.2-1.62.53-2.62.32-.77-.16-1.49-.64-1.84-1.75l-1.42-.31c1.31-1.28,1.79-1.71,2.03-1.92.21-.18.18-.34,3.71-1.14l.06.28c.49.68.8.94,1.26,1.05l-.09.32c.44,1.7,1.85,1.33,2.53,1.28l.16.43c-.9.35-2.12.79-3.78,1.44Z" style="fill:#fff;"/><path d="M86.94,192.5c-.12.02-.24.05-.36.08-3.53.8-3.5.96-3.71,1.14-.24.21-.72.64-2.03,1.92-.78.77-1.87,1.85-3.39,3.38l-.04.03c-2.07-2.5-3.45-3.03-8.09-5.35.41-.17.83-.38,1.25-.64l-.02-.24c.46-.03,1.07-.14,1.81-.42l-.13-1.34c.66-.05,1.48-.24,2.7-.69l.03-1.22c-.76-.09-1.57-.37-2.4-1.01-.77-.59-.9-1.23-.82-1.8.43-3.01,3.93-2.36,5.11-2.1l.35-.05c2.53-2.23,3.65-4.3,4.11-6l1.25.02c.67-1.46,1.08-2.05,2.28-2.33l1.03-.32c.19.6.2,1.26.31,2.28.02.17.22.01,1.73,1.43.52.49,1.84.06,2.13,1.14.29,1.07-1.86,2.57-1.88,2.59.48.66,1.33.8,1.37,1.81.01.04.01.08.01.12l.11.05c-.02.1-.21,1.12-.09,1.3.45.67.6.8.33,1.42-.43.98.77,1.8.19,3.18-.47,1.13-1.28,1.42-2.74,1.63h-.4Z" style="fill:#fff;"/><path d="M56.15,255.02c-4.83,4.43-8.62,7.92-11.55,8.81-.29.08-.56.15-.83.18v.03c-3.54,1.12-6.82,1.64-12.21-.54-3.72-1.5-4.58-2.04-7.14-5.34-2.76-3.54-3.63-4.45-1.42-19.39l.04-.22c.32-.02.63-.04.92-.07,5.56-.48,7.03-1.54,18.34,2.21l.36.26c.25-.35.52-.71.81-1.07,3.75-4.66,10.65-10.13,15.25-12.26,3.3-1.52,7.5-2.63,11.13-3.35,3.07-.63,5.72-.98,7.07-1.09l.1-.12c.43.36.9.76,1.42,1.22,4.34,3.83,7.12,5.72,9.07,6.99l-.18.27c.27,2.46,1.13,5.03-1.82,8.62-7.29,8.88-7.84,8.34-8.77,9.36-1.81,1.95-.82,2.5-4.53,9.13l-2.74.08c-1.6-.13-3.47-.37-4.74-.55-.88-.12-1.49-.21-1.53-.22-5.45-.7-6.24-2.11-7.05-2.94Z" style="fill:#838afa;"/><path d="M84.97,174.15c.5.52.76.95.9,1.41l-1.03.32c-1.2.28-1.61.87-2.28,2.33l-1.25-.02c.57-2.14.07-3.69.02-4.22l-.03-.05c.76-.4,1.48-.8,2.16-1.21l.11.18c.61.5,1.06.9,1.4,1.26Z" style="fill:#fff;"/><path d="M84.1,197.7l-.05.3c-1.77,2.31-1.75,2.32-3.57,4.58l-.38.1-.16-.16.03-.03c-1.05-1.48-1.84-2.58-2.56-3.44l.04-.03c1.52-1.53,2.61-2.61,3.39-3.38l1.42.31c.35,1.11,1.07,1.59,1.84,1.75Z" style="fill:#fff;"/><path d="M49.75,197.26l-.32.09c-2.55,1.81-2.55,1.8-2.77,1.96h-.08c-.06-1.1-.31-2.21.83-4,1.25-1.94,2.63-2.07,3.06-2.76.07-.12-1.15-7.99,9.77-7.24.69-.63,1.37-1.19,2.03-1.7,3.33-2.58,6.37-3.89,9.88-5.38,1.89-.8,3.91-1.66,6.18-2.79,1.05-.52,2.04-1.02,2.97-1.52l.03.05c.05.53.55,2.08-.02,4.22-.46,1.7-1.58,3.77-4.11,6l-.35.05c-1.18-.26-4.68-.91-5.11,2.1-.08.57.05,1.21.82,1.8.83.64,1.64.92,2.4,1.01l-.03,1.22c-1.22.45-2.04.64-2.7.69l.13,1.34c-.74.28-1.35.39-1.81.42l.02.24c-.42.26-.84.47-1.25.64-2.69,1.09-5.01.45-5.69,1.2-4.12,4.49-10.8,3.17-13.88,2.36Z" style="fill:#838afa;"/><path d="M80.79,169.23l.12.06c-.61,1.16-2.83,5.05-8.76,8.94-3.51,1.49-6.55,2.8-9.88,5.38l-.33-.42c-.96-2.94-2.45-6.57.37-11.54,2.46-4.36,8.35-6.41,11.48-6.68,2.73-.24,4.94,2.46,7,4.26Z" style="fill:#2848f9;"/><path d="M69.44,276.03c.72.64.13,1.3.19,1.24-.03.01-.06.01-.1.02-2.04.33-9.13.4-13.11-.49-8.08-1.79-8.5.07-16.66-1.77h-.02s-.04-.03-.06-.04c-.42-.27-.61-.56-.18-1.13v-.06c8.04,1.63,9.26.38,14.16,1.25,2.42.43,4.47.73,6.21.94,6,.72,8.28.31,9.57.04Z" style="fill:#2848f9;"/><path d="M39.76,275.03c8.16,1.84,8.58-.02,16.66,1.77,3.98.89,11.07.82,13.11.49l.03.17c.09.59.08.84.19,1.52-3.18.16-6.89.27-9.82-.01-2.61-.24-6.25-1.36-7.68-1.62-1.68-.31-1.71.6-2.95,1.16-1.27.59-7.86-.01-9.56-.02-.03-1.47-.09-2.04-.06-3.5.02.01.04.02.06.04h.02Z" style="fill:#838afa;"/><path d="M64.98,270.83c5.56-1.66,4.68,3.56,4.49,5.18l-.03.02c-1.29.27-3.57.68-9.57-.04l.31-2.51c3.36.46,4.39-1.87,4.53-2.6.01-.03.01-.06.01-.09l.26.04Z" style="fill:#2848f9;"/><path d="M60.18,273.48l-.31,2.51c-1.74-.21-3.79-.51-6.21-.94-4.9-.87-6.12.38-14.15-1.25h-.02l-.07-.14c-.29-1.13-.56-4.48,2.1-7.04v-.02c.16.03.31.06.44.1,1.58.41,1.61,1.32,3.7,2.58,2.64,1.6,5.01,1.51,7.72,1.66l.08.02c.52-1.79.52-1.94.84-4.08l-.02-.29c.37-.28.71-.54,1.03-.79l.16.21c3.08.38,4,2.36,4.11,2.5v.07c3.48.4,5.56-.1,5.14,2.21,0,.03,0,.06-.01.09-.14.73-1.17,3.06-4.53,2.6Z" style="fill:#2848f9;"/><path d="M64.73,258.18l-.04.23c-4.67,4.05-5.12,4.15-9.38,7.39-.32.25-.66.51-1.03.79l.02.29c-.32,2.14-.32,2.29-.84,4.08l-.08-.02c-2.71-.15-5.08-.06-7.72-1.66-2.09-1.26-2.12-2.17-3.7-2.58l.04-.14c.48-.59,2.12-2,2.65-2.55l-.05-.18c2.93-.89,6.72-4.38,11.55-8.81.81.83,1.6,2.24,7.05,2.94.04.01.65.1,1.53.22Z" style="fill:#fff;"/><path d="M43.28,239.73l.19.15c-.29.36-.56.72-.81,1.07l-.36-.26c-11.31-3.75-12.78-2.69-18.34-2.21v-.12c.2-2.93.19-2.92.26-3.71v-.02c2.18.44,4.85.45,7.84.98,4.38.78,8.33,2.84,11.22,4.12Z" style="fill:#fff;"/><line x1="85.17" y1="178.7" x2="85.49" y2="179.53" style="fill:none; stroke:#121212; stroke-linecap:round; stroke-linejoin:round; stroke-width:.9px;"/><path d="M82.56,178.21c.67-1.46,1.08-2.05,2.28-2.33" style="fill:none; stroke:#121212; stroke-linecap:round; stroke-linejoin:round; stroke-width:.9px;"/><path d="M81.33,173.97c.05.53.55,2.08-.02,4.22-.46,1.7-1.58,3.77-4.11,6" style="fill:none; stroke:#121212; stroke-linecap:round; stroke-linejoin:round; stroke-width:.9px;"/><path d="M77.17,184.31c-.07-.01-.17-.04-.32-.07-1.18-.26-4.68-.91-5.11,2.1-.08.57.05,1.21.82,1.8.83.64,1.64.92,2.4,1.01.96.13,1.84-.03,2.59-.11" style="fill:none; stroke:#121212; stroke-linecap:round; stroke-linejoin:round; stroke-width:.9px;"/><path d="M83.57,172.89c.61.5,1.06.9,1.4,1.26.5.52.76.95.9,1.41.19.6.2,1.26.31,2.28.02.17.22.01,1.73,1.43.52.49,1.84.06,2.13,1.14.29,1.07-1.86,2.57-1.88,2.59.48.66,1.33.8,1.37,1.81.01.04.01.08.01.12" style="fill:none; stroke:#121212; stroke-linecap:round; stroke-linejoin:round; stroke-width:.9px;"/><path d="M89.65,184.98c-.02.1-.21,1.12-.09,1.3.45.67.6.8.33,1.42-.43.98.77,1.8.19,3.18-.47,1.13-1.28,1.42-2.74,1.63" style="fill:none; stroke:#121212; stroke-linecap:round; stroke-linejoin:round; stroke-width:.9px;"/><path d="M87.24,187.35c.67-.64.86-.88,1.6-1.17" style="fill:none; stroke:#121212; stroke-linecap:round; stroke-linejoin:round; stroke-width:.9px;"/><path d="M77.45,199.02c1.52-1.53,2.61-2.61,3.39-3.38,1.31-1.28,1.79-1.71,2.03-1.92.21-.18.18-.34,3.71-1.14.12-.03.24-.06.36-.08l.39-.09" style="fill:none; stroke:#121212; stroke-linecap:round; stroke-linejoin:round; stroke-width:.9px;"/><path d="M71.04,191.01c.36.06.74.1,1.19.05.66-.05,1.48-.24,2.7-.69" style="fill:none; stroke:#121212; stroke-linecap:round; stroke-linejoin:round; stroke-width:.9px;"/><path d="M69.67,192.79c.12.02.43.06.88.03.46-.03,1.07-.14,1.81-.42.3-.12.63-.26.98-.45" style="fill:none; stroke:#121212; stroke-linecap:round; stroke-linejoin:round; stroke-width:.9px;"/><path d="M78.79,179.26c-.25.93-.91,3.21-2.4,4.71" style="fill:none; stroke:#121212; stroke-linecap:round; stroke-linejoin:round; stroke-width:.9px;"/><path d="M60.22,185.32s.01,0,.02,0c.69-.63,1.37-1.19,2.03-1.7,3.33-2.58,6.37-3.89,9.88-5.38,1.89-.8,3.91-1.66,6.18-2.79,1.05-.52,2.04-1.02,2.97-1.52.76-.4,1.48-.8,2.16-1.21,2.89-1.75,5.2-3.75,7.04-7" style="fill:none; stroke:#121212; stroke-linecap:round; stroke-linejoin:round; stroke-width:.9px;"/><path d="M80.99,169.13s-.05.1-.08.16c-.61,1.16-2.83,5.05-8.76,8.94-.03,0-.05.03-.08.05" style="fill:none; stroke:#121212; stroke-linecap:round; stroke-linejoin:round; stroke-width:.9px;"/><path d="M81.17,169.05c5.38-3.23,8.59-3.69,9.34-3.61.08.01.13.02.15.04,1.54.99-.68,5.31-5.66,8.64" style="fill:none; stroke:#121212; stroke-linecap:round; stroke-linejoin:round; stroke-width:.9px;"/><path d="M61.94,183.19c-.96-2.94-2.45-6.57.37-11.54,2.46-4.36,8.35-6.41,11.48-6.68,2.73-.24,4.94,2.46,7,4.26" style="fill:none; stroke:#121212; stroke-linecap:round; stroke-linejoin:round; stroke-width:.9px;"/><path d="M60.3,185.31h-.06c-10.92-.75-9.7,7.12-9.77,7.24-.43.69-1.81.82-3.06,2.76-1.14,1.79-.89,2.9-.83,4.01v.07" style="fill:none; stroke:#121212; stroke-linecap:round; stroke-linejoin:round; stroke-width:.9px;"/><path d="M46.66,199.31c.22-.16.22-.15,2.77-1.96" style="fill:none; stroke:#121212; stroke-linecap:round; stroke-linejoin:round; stroke-width:.9px;"/><path d="M48.92,197.03c.23.07.51.14.83.23,3.08.81,9.76,2.13,13.88-2.36.68-.75,3-.11,5.69-1.2.41-.17.83-.38,1.25-.64" style="fill:none; stroke:#121212; stroke-linecap:round; stroke-linejoin:round; stroke-width:.9px;"/><path d="M47.61,198.82c-.34.21-.67.42-1,.63-11.48,7.2-12.88,10.26-19.18,23.75-1.94,4.16-1.47,3.33-4.08,7.06-1.19,1.69-1.2,1.4-2.2,3.14" style="fill:none; stroke:#121212; stroke-linecap:round; stroke-linejoin:round; stroke-width:.9px;"/><path d="M21.2,233.49c.86.58,1.88.92,3.02,1.14,2.18.44,4.85.45,7.84.98,4.38.78,8.33,2.84,11.22,4.12" style="fill:none; stroke:#121212; stroke-linecap:round; stroke-linejoin:round; stroke-width:.9px;"/><path d="M24.22,234.65c-.07.79-.06.78-.27,3.71" style="fill:none; stroke:#121212; stroke-linecap:round; stroke-linejoin:round; stroke-width:.9px;"/><path d="M42.52,241.14c.04-.06.09-.13.14-.19.25-.35.52-.71.81-1.07,3.75-4.66,10.65-10.13,15.25-12.26,3.3-1.52,7.5-2.63,11.13-3.35,3.07-.63,5.72-.98,7.07-1.09" style="fill:none; stroke:#121212; stroke-linecap:round; stroke-linejoin:round; stroke-width:.9px;"/><path d="M70.6,215.73c.01.11.03.22.04.32.57,4.8.91,4.71-.82,8.09" style="fill:none; stroke:#121212; stroke-linecap:round; stroke-linejoin:round; stroke-width:.9px;"/><path d="M23,238.77c-2.21,14.94-1.34,15.85,1.42,19.39,2.56,3.3,3.42,3.84,7.14,5.34,5.39,2.18,8.67,1.66,12.21.54" style="fill:none; stroke:#121212; stroke-linecap:round; stroke-linejoin:round; stroke-width:.9px;"/><path d="M43.69,264.02s.05-.01.08-.01c.27-.03.54-.1.83-.18,2.93-.89,6.72-4.38,11.55-8.81,1.25-1.14,2.57-2.35,3.97-3.6,6.62-5.92,8.13-9.13,9.75-12.63" style="fill:none; stroke:#121212; stroke-linecap:round; stroke-linejoin:round; stroke-width:.9px;"/><path d="M67.71,238.99c4.09-1.17,4.11-1.17,10.27-4.67" style="fill:none; stroke:#121212; stroke-linecap:round; stroke-linejoin:round; stroke-width:.9px;"/><path d="M23.04,238.55c.32-.02.63-.04.92-.07,5.56-.48,7.03-1.54,18.34,2.21" style="fill:none; stroke:#121212; stroke-linecap:round; stroke-linejoin:round; stroke-width:.9px;"/><path d="M61.53,200.8c4.94-1.92,5.03-1.48,8.32-1.59,5.08-.17,7.52.81,10.09,3.31l.16.16c3.14,3.13,6.56,8.51,15.24,16.81,2.67,2.55,6.39,9.1,9.57,10.41.62.26,4.38,1.8,6.95,4.69,2.01,2.26,1.68,1.47,3.99,3.41" style="fill:none; stroke:#121212; stroke-linecap:round; stroke-linejoin:round; stroke-width:.9px;"/><path d="M115.87,238.15l-.15.18c-1.48,1.84-3,3.28-4.43,4.33-2.9,2.15-5.4,2.69-6.34,1.68-4.69-5.07-10.4-4.5-12.34-8.17-1.37-2.6-2.49-3.19-5.1-4.9-1.95-1.27-4.73-3.16-9.07-6.99-.52-.46-.99-.86-1.42-1.22-3.24-2.64-3.95-2.47-5.39-5.28-.36-.71-.68-1.28-.99-1.73-1.19-1.73-2.36-1.73-6.28-1.21" style="fill:none; stroke:#121212; stroke-linecap:round; stroke-linejoin:round; stroke-width:.9px;"/><path d="M69.21,193.64s.07.04.11.06c4.64,2.32,6.02,2.85,8.09,5.35.72.86,1.51,1.96,2.56,3.44" style="fill:none; stroke:#121212; stroke-linecap:round; stroke-linejoin:round; stroke-width:.9px;"/><path d="M87.33,231.54c.27,2.46,1.13,5.03-1.82,8.62-7.29,8.88-7.84,8.34-8.77,9.36-1.81,1.95-.82,2.5-4.53,9.13" style="fill:none; stroke:#121212; stroke-linecap:round; stroke-linejoin:round; stroke-width:.9px;"/><path d="M56.11,254.98l.04.04c.81.83,1.6,2.24,7.05,2.94.04.01.65.1,1.53.22,1.27.18,3.14.42,4.74.55,1.1.1,2.07.14,2.64.08" style="fill:none; stroke:#121212; stroke-linecap:round; stroke-linejoin:round; stroke-width:.9px;"/><path d="M64.69,258.41c-4.67,4.05-5.12,4.15-9.38,7.39-.32.25-.66.51-1.03.79" style="fill:none; stroke:#121212; stroke-linecap:round; stroke-linejoin:round; stroke-width:.9px;"/><path d="M44.65,264.01c-.53.55-2.17,1.96-2.65,2.55" style="fill:none; stroke:#121212; stroke-linecap:round; stroke-linejoin:round; stroke-width:.9px;"/><path d="M41.45,266.59s.05.01.07.01c.16.03.31.06.44.1,1.58.41,1.61,1.32,3.7,2.58,2.64,1.6,5.01,1.51,7.72,1.66" style="fill:none; stroke:#121212; stroke-linecap:round; stroke-linejoin:round; stroke-width:.9px;"/><path d="M41.52,266.62c-2.66,2.56-2.39,5.91-2.1,7.04" style="fill:none; stroke:#121212; stroke-linecap:round; stroke-linejoin:round; stroke-width:.9px;"/><path d="M39.49,273.8h.02c8.03,1.63,9.25.38,14.15,1.25,2.42.43,4.47.73,6.21.94,6,.72,8.28.31,9.57.04.72.64.13,1.3.19,1.24-.03.01-.06.01-.1.02-2.04.33-9.13.4-13.11-.49-8.08-1.79-8.5.07-16.66-1.77" style="fill:none; stroke:#121212; stroke-linecap:round; stroke-linejoin:round; stroke-width:.9px;"/><path d="M54.3,266.88c-.32,2.14-.32,2.29-.84,4.08-.05.14-.09.3-.14.46" style="fill:none; stroke:#121212; stroke-linecap:round; stroke-linejoin:round; stroke-width:.9px;"/><path d="M55.47,266.01c3.08.38,4,2.36,4.11,2.5" style="fill:none; stroke:#121212; stroke-linecap:round; stroke-linejoin:round; stroke-width:.9px;"/><path d="M59.59,268.58c3.47.4,5.55-.1,5.13,2.21,0,.03,0,.06-.01.09-.14.73-1.17,3.06-4.53,2.6-.3-.04-.62-.11-.96-.2-1.44-.38-2.08-.83-2.74-1.18" style="fill:none; stroke:#121212; stroke-linecap:round; stroke-linejoin:round; stroke-width:.9px;"/><path d="M64.98,270.83c5.56-1.66,4.68,3.56,4.49,5.18" style="fill:none; stroke:#121212; stroke-linecap:round; stroke-linejoin:round; stroke-width:.9px;"/><path d="M39.5,273.86c-.43.57-.24.86.18,1.13.02.01.04.02.06.04h.02s.04.03.06.04" style="fill:none; stroke:#121212; stroke-linecap:round; stroke-linejoin:round; stroke-width:.9px;"/><path d="M69.56,277.46c.09.59.08.84.19,1.52-3.18.16-6.89.27-9.82-.01-2.61-.24-6.25-1.36-7.68-1.62-1.68-.31-1.71.6-2.95,1.16-1.27.59-7.86-.01-9.56-.02-.03-1.47-.09-2.04-.06-3.5" style="fill:none; stroke:#121212; stroke-linecap:round; stroke-linejoin:round; stroke-width:.9px;"/><path d="M111.49,242.92c3.3,2.49,4.19,1.76,5.25,4.73.74,2.06,2.42,4.8,4.21,6.03,1.75,1.22,1.32,2.56,2.36,4.39.02.04.04.07.06.11" style="fill:none; stroke:#121212; stroke-linecap:round; stroke-linejoin:round; stroke-width:.9px;"/><path d="M123.89,254.04c1.29,3.49,1.29,4.68,1.04,5.15-.07.15-.17.23-.27.28-1.48.89-4.03.71-5-.71-.14-.2-.18-1.51,3.04-.3.2-.13.41-.26.61-.39.03-.02.05-.03.08-.05" style="fill:none; stroke:#121212; stroke-linecap:round; stroke-linejoin:round; stroke-width:.9px;"/><path d="M126.11,258.12c-.13.52-.44.83-.92,1.1" style="fill:none; stroke:#121212; stroke-linecap:round; stroke-linejoin:round; stroke-width:.9px;"/><path d="M125.13,252.93c.88,2.79,1.19,4.27.99,5.17" style="fill:none; stroke:#121212; stroke-linecap:round; stroke-linejoin:round; stroke-width:.9px;"/><path d="M115.75,238.36c3.38,4.61,5.28,3.87,7.55,8.39,1.71,3.41,4.08,5.58,4.32,7.76.19,1.65-1.19,3.09-1.5,3.59,0,.01,0,.02,0,.02,0,.01-.01.01-.01.02" style="fill:none; stroke:#121212; stroke-linecap:round; stroke-linejoin:round; stroke-width:.9px;"/><path d="M86.64,192.86c.49.68.8.94,1.26,1.05.3.08.66.1,1.17.13" style="fill:none; stroke:#121212; stroke-linecap:round; stroke-linejoin:round; stroke-width:.9px;"/><path d="M87.81,194.23c.44,1.7,1.85,1.33,2.53,1.28" style="fill:none; stroke:#121212; stroke-linecap:round; stroke-linejoin:round; stroke-width:.9px;"/><path d="M86.5,197.46c.07-.03.15-.06.22-.08,1.66-.65,2.88-1.09,3.78-1.44,2.14-.83,2.54-1.17,2.81-2.62.13-.71,1.34-1.5.41-2.93-.5-.76.32-1.08-.72-2.43-.53-.68.9-2.55.18-3.39-1.24-1.42-3.27.14-3.49.23" style="fill:none; stroke:#121212; stroke-linecap:round; stroke-linejoin:round; stroke-width:.9px;"/><path d="M90.12,186.87c.65-.43,1.31-.86,1.96-1.29" style="fill:none; stroke:#121212; stroke-linecap:round; stroke-linejoin:round; stroke-width:.9px;"/><path d="M90.3,193.68c1.82-.42,1.75-.55,2.75-1.09" style="fill:none; stroke:#121212; stroke-linecap:round; stroke-linejoin:round; stroke-width:.9px;"/><path d="M90.62,191.04c1.24-.49,1.22-.52,2.04-.9" style="fill:none; stroke:#121212; stroke-linecap:round; stroke-linejoin:round; stroke-width:.9px;"/><path d="M90.08,188.85c1.13-.6,1.09-.63,2.24-1.13" style="fill:none; stroke:#121212; stroke-linecap:round; stroke-linejoin:round; stroke-width:.9px;"/><path d="M90.89,186.42c-.04.18-.51,1.37,1.06,1.42" style="fill:none; stroke:#121212; stroke-linecap:round; stroke-linejoin:round; stroke-width:.9px;"/><path d="M82.26,195.95c.35,1.11,1.07,1.59,1.84,1.75,1,.21,2.1-.12,2.62-.31.14-.05.24-.09.28-.11" style="fill:none; stroke:#121212; stroke-linecap:round; stroke-linejoin:round; stroke-width:.9px;"/><path d="M80.48,202.58c1.82-2.26,1.8-2.27,3.57-4.58" style="fill:none; stroke:#121212; stroke-linecap:round; stroke-linejoin:round; stroke-width:.9px;"/><path d="M148.99,159.91c4.9,4.4,4.87,3.74,9.75,8.22l-.02.02c-2.76,2.75-2.82,2.47-5.72,5.07l-.16.07c-3.83-5-3.89-4.9-7.5-10.03h-.01c-3.74,4.83-2.94,4.13-6.66,9l-.09-.02c-6.75-15.13-14.29-31.94-15.53-35.39,10.82,5.63,11.41,5.63,21.98,11.75,6.89,3.99,7.07,4.12,13.63,7.44l.07.19c-4.98,1.84-5.9,1.9-9.74,3.68Z" style="fill:#2848f9;"/><path d="M123.03,136.79s.01.04.02.06c1.24,3.45,8.78,20.26,15.53,35.39" style="fill:none; stroke:#121212; stroke-linecap:round; stroke-linejoin:round; stroke-width:.9px;"/><path d="M138.67,172.26c3.72-4.87,2.92-4.17,6.66-9.01t.01-.02" style="fill:none; stroke:#121212; stroke-linecap:round; stroke-linejoin:round; stroke-width:.9px;"/><path d="M145.34,163.26c3.61,5.13,3.67,5.03,7.5,10.03" style="fill:none; stroke:#121212; stroke-linecap:round; stroke-linejoin:round; stroke-width:.9px;"/><path d="M148.98,159.91h.01c4.9,4.4,4.87,3.74,9.75,8.22" style="fill:none; stroke:#121212; stroke-linecap:round; stroke-linejoin:round; stroke-width:.9px;"/><path d="M153,173.22c2.9-2.6,2.96-2.32,5.72-5.07" style="fill:none; stroke:#121212; stroke-linecap:round; stroke-linejoin:round; stroke-width:.9px;"/><path d="M148.99,159.91c3.84-1.78,4.76-1.84,9.74-3.68h.01" style="fill:none; stroke:#121212; stroke-linecap:round; stroke-linejoin:round; stroke-width:.9px;"/><path d="M123.01,136.83s.03.01.04.02c10.82,5.63,11.41,5.63,21.98,11.75,6.89,3.99,7.07,4.12,13.63,7.44" style="fill:none; stroke:#121212; stroke-linecap:round; stroke-linejoin:round; stroke-width:.9px;"/><path d="M106,239.93c2.18-1.3,2.12-1.35,4.05-2.95" style="fill:none; stroke:#121212; stroke-linecap:round; stroke-linejoin:round; stroke-width:.9px;"/></svg>