<?xml version="1.0" encoding="UTF-8"?><svg id="a" xmlns="http://www.w3.org/2000/svg" viewBox="0 0 260 346.35"><path d="M215.1,270.65c.22,3.45.28,7.39.13,9.86-.94,16.03-7.59,28.48-33.51,43.17,0,.01-.02.01-.03.02-11.35,2.58-24.35,6.26-49.32,6.26-26.75,0-36.32-3.02-49.08-5.26l-.29-.09h-.19c-25.95-14.7-32.61-27.15-33.55-43.19-.16-2.8-.06-6.32.23-10.36.05-.59.44-1.81.44-1.81,9.47,5.63,28.18,16.63,83.97,16.63,40.53,0,75.2-13.85,80.84-16.59,0,0,.34.88.37,1.36Z" style="fill:#838afa;"/><path d="M84.77,190.07c8.09,1.56,16.62,2.56,25.14,3.16,10.5.74,20.98.88,30.57.69,22.68-.44,40.43-2.68,41.89-2.92l.03.02c-1.36,1.81-.86,3.2-1.16,4.03-.08.23-1.01,1.57-.17,1.89.88.33,1.5-1.34,1.56-1.51.13-.36.14-.35.34-.76l.07.02c-.94,4.44-3.07,6.14-.69,7.42h.08c.02.38.18.64.56.71.92.15,1.11-1.11,1.87-2.5.12-.21.08-.22,1.36-2.64.31-.58,1.09-2.47,1.44-2.97.02-.03.05-.07.06-.09-1.12,2.86-1.38,3.01-2.84,5.72-.1.18-.97,1.77-.84,2.34.14.6,1.02,1.1,2.19-1.01.25-.45,1.28-1.89,2.09-3.01l-.33,1.45c-.36,1.59,1.48.58,1.96-.22,3.53-5.84,3.72-5.9,3.98-6.69.38-1.14,1.33-2.39,1.94-3.63.24-.48.43-.95.5-1.41-.14-1.41-.62-2.95-1.89-4.06-.27-.24-.58-.46-.93-.66-2.35-1.32-3.14-.67-8.69-.56-1.03.02-1.79.09-2.44.25-1.73-1.11-2.42-.93-3.96-2.29-1.11-.97-2.16-2.07-3.3-3.17l.03-.03c12.7,1.84,22.88,3.07,27.34,6.45,3.95,2.98-.44,11.55-.52,13.86,1.86,13.04,10.85,44.86,12.9,69.92.03.45-.17,1.42-.17,1.42-5.64,2.74-40.31,16.59-80.84,16.59-55.8,0-74.5-11-83.97-16.63,0,0-.17-1.44-.1-2.18,2.42-25.32,10.87-55.61,12.66-68.21-.19-1.97-2.37-8.97-1.13-11.8,1.23-2.82,4.27-4.09,8.54-5.15l.25-.05c.36,1.76.66,3.39.94,4.86h0c4.35,1.34,8.94,2.44,13.68,3.35Z" style="fill:#fff;"/><path d="M188.3,198.66c-.81,1.12-1.84,2.56-2.09,3.01-1.17,2.11-2.05,1.61-2.19,1.01-.13-.57.74-2.16.84-2.34,1.47-2.71,1.72-2.86,2.84-5.72,0,.02-.04.06-.06.09-.35.5-1.13,2.39-1.44,2.97-1.28,2.42-1.24,2.43-1.36,2.64-.76,1.39-.95,2.65-1.87,2.5-.39-.07-.54-.33-.56-.72h-.08c-2.38-1.27-.25-2.97.69-7.41l-.07-.02c-.2.41-.21.4-.34.76-.06.17-.68,1.84-1.56,1.51-.84-.32.09-1.66.17-1.89.3-.83-.2-2.22,1.16-4.03.23-.32.51-.65.88-.99,2.47-2.35,2.36-2.46,4.92-4.68v.02c.28-.28,1.95-2.02,4.54-1.77.75.07,1.31.25,1.73.5,1.27,1.11,1.75,2.65,1.89,4.06-.08.46-.27.93-.5,1.41-.61,1.24-1.56,2.49-1.94,3.63-.26.79-.45.85-3.98,6.69-.48.8-2.32,1.81-1.96.22l.33-1.45Z" style="fill:#fff;"/><path d="M188.19,185.35c-2.56,2.22-2.46,2.33-4.92,4.68-.37.34-.65.67-.88.99l-.03-.02c-1.46.24-19.21,2.48-41.89,2.92,1.78-11.45,6.35-17.24,7.01-18.35l.03-.12c1.29.35,2.78-.97,3.28-1.34l.2-.02s0-.02,0-.04h.05c.93,2.89,4.25,3.26,5.88,2.62,2.66-1.03,4.11-3.46,5.14-5.36v-.05c3.14.37,5.57,1.19,7.58,2.23,2.27,1.2,3.98,2.69,5.52,4.18,1.14,1.1,2.19,2.2,3.3,3.17,1.54,1.36,2.23,1.18,3.96,2.29.64-.16,1.41-.23,2.44-.25,5.55-.11,6.35-.76,8.69.56.35.2.66.42.93.66-.43-.25-.98-.43-1.73-.5-2.59-.25-4.27,1.49-4.53,1.77v-.02Z" style="fill:#2848f9;"/><path d="M184.05,330.63v.07c-9.52,2.75-25.78,7.21-51.57,7.21-31.73,0-46.96-4.66-51.61-5.7l-.05-.02c.11-.79,1.98-6.71,2.17-7.58l.29.09c12.76,2.24,22.33,5.26,49.08,5.26,24.97,0,37.98-3.68,49.32-6.26,0-.01.02-.01.03-.02v.02c.27,1.59,2.03,4.97,2.34,6.93Z" style="fill:#838afa;"/><path d="M169.66,173.42l-.03.07c-2.01-1.04-4.45-1.86-7.57-2.23-.57-.07-1.17-.12-1.79-.16l-.36.03c-1.44-1.52-.27-3.51-.49-4.34-.57-2.11-1.12-2.16-.49-3.93h0c1.04-1.68,1.53-3.52,1.53-3.52,0,0,2.39.88,3.43-1.91.65-1.79.24-1.5.52-2.96.5-.94.93-2.27.93-3.26l2.64-.04c0,.8-.05,1.36-.07,1.5-.3,2.3-1.29,2.41.06,4.4,2.98,4.41-3.31,6.7-.59,9.13,1.7,1.52,1.82,3.03.57,4.75-1.31,1.81,1.51,1.92,1.71,2.47Z" style="fill:#838afa;"/><path d="M153.92,147.58l-.11.15c-3.99-.62-4.71-2.54-4.84-4.48h-.13c-.77,1.51-2.4,3.27-3.84,4.07l-.16-.08c-.03.05-.05.1-.07.14l-.04-.02c.3-1.68.25-1.68.44-2.16,2.24-6.04,11.45-5.33,12.57-5.28,9.11.41,10.21,7.94,10.24,11.25l-2.64.04c0,.99-.43,2.32-.93,3.26-.13.23-.26.44-.39.61-.99,1.34-2.8,1.63-3.09,1.68l-.24-.24c-.49.53-1.16,1-2.13,1.26l-.03-.05c.33-.3,2.16-1.93,1.23-5.13-.6-2.07-1.45-2.03-3-3.76l-.04.03c-1.02-.37-1.94-.66-2.8-1.29Z" style="fill:#838afa;"/><path d="M158.92,162.86h0c-.63,1.77-.09,1.82.49,3.93.23.83-.94,2.82.49,4.34l.06.08c-.62.52-1.43,1.07-2.37,1.5-3.47,1.54-4.74,1.37-6.57,1.31v.03h-.05c-.14-1.55-.46-3.49-.61-4.46-.03-.26-.06-.44-.07-.54-.29-3.09-1.23-1.88-2.7-2.21-.07-.02-.15-.03-.22-.05-2.88-.69-3.44-1.99-4.43-8.19-.48-2.98,1.21-3.13,1.33-4.64h.18c.4.11.84.09,1.48-.28l1.85.14c.18-.15.31-.35.29-.61-.02-.29-.17-.93-.27-1.32-.18-.67-.18-2.26-2.35-2.1-.49.03-1.45.94-1.53,1.01h-.22c-.06-.79.16-1.62,1.06-3.42.02-.04.04-.09.07-.14l.16.08c1.45-.8,3.07-2.56,3.84-4.06h.13c.13,1.93.85,3.85,4.84,4.47l.11-.15c.86.63,1.78.92,2.8,1.29l.04-.03c1.55,1.73,2.4,1.69,3,3.76.93,3.2-.9,4.83-1.23,5.13l.03.05c.97-.26,1.64-.73,2.13-1.26l.24.24c.29-.05,2.1-.34,3.09-1.68.13-.17.26-.38.39-.61-.29,1.46.13,1.17-.52,2.96-1.04,2.79-3.43,1.91-3.43,1.91,0,0-.49,1.84-1.53,3.52Z" style="fill:#fff;"/><path d="M159.96,171.21l-.06-.08.36-.03c.62.04,1.22.09,1.79.16v.05c-1.04,1.9-2.48,4.33-5.15,5.36-1.63.64-4.95.27-5.88-2.62v-.03c1.83.06,3.1.23,6.57-1.31.94-.43,1.74-.98,2.37-1.5Z" style="fill:#2848f9;"/><path d="M150.98,174.05s0,.03,0,.04l-.2.02c-.49.37-1.99,1.69-3.28,1.34-.3-.07-.57-.23-.83-.51-.32-.34,1.34-3.19,2.68-4.59.36-.38.69-.65.96-.75h.04c.16.96.48,2.9.61,4.45Z" style="fill:#2848f9;"/><path d="M150.36,169.59h-.04c-.27.11-.6.38-.96.76l-.14-.14c-1.19.06-2.44-.03-3.72-.1v-.26c.93-1.88,1.22-.53,1.8-2.76l.07-.3c.07.02.15.03.22.05,1.48.33,2.42-.88,2.7,2.21,0,.1.04.28.07.54Z" style="fill:#838afa;"/><path d="M116.91,182.11c.11-.16.26-.32.46-.53,1.32-1.34,6.16-1.49,8.99-3.66,1.24-.94,2.46-1.83,3.66-2.64,3.96-2.67,7.8-4.55,11.38-5.08,1.41-.2,2.77-.16,4.1-.09,1.29.07,2.53.16,3.72.1l.14.14c-1.35,1.4-3,4.25-2.68,4.59.26.28.53.44.83.51l-.03.12c-.66,1.11-5.23,6.9-7.01,18.35-9.59.19-20.07.05-30.57-.69v-.1c-.81-6.79-1.27-10.79-1.53-13.28l.51-.05c3.88,1.12,3.96.76,7.77,2.12l.26.19Z" style="fill:#2848f9;"/><path d="M148.08,153.21c.02.26-.11.46-.29.61l-1.85-.14c-.64.37-1.09.39-1.48.29h-.18c.02-.21,0-.44-.05-.71-.22-1.15-.47-1.79-.51-2.45h.22c.09-.08,1.04-.99,1.53-1.02,2.17-.16,2.17,1.43,2.35,2.1.1.39.25,1.03.27,1.32Z" style="fill:#fff;"/><path d="M129.99,175.23l.03.05c-1.21.81-2.43,1.7-3.66,2.64-2.83,2.17-7.67,2.32-8.99,3.66-.2.21-.35.37-.46.53l-.26-.19c-3.81-1.36-3.89-1-7.77-2.12l-.51.05c-.24-2.37-.31-3.34-.38-4.02,8.47-.44,12.66-.56,22-.6Z" style="fill:#fff;"/><path d="M107.99,175.83c.07.68.14,1.65.38,4.02.27,2.49.72,6.49,1.54,13.28v.1c-8.52-.6-17.06-1.6-25.15-3.16-.34-2.74-.57-3.38-1-7.08-.09-.74-.61-6.97-1-9.8-.23-1.64-1.11-8.03-1.93-19.33-.08-1.07-.16-2.18-.24-3.33v-.12s.07-.03.1-.04c9.55-4.55,19.31-3.77,23.86-3.1.02,0,.04.01.06.01h.05c.66,4.48,1.85,16.3,3.28,28.06.02.16.03.31.05.49Z" style="fill:#838afa;"/><path d="M104.56,147.2v.07c-4.55-.67-14.32-1.45-23.87,3.1l-.05-.1c.35-5.6.76-13.92,1.58-19.93.71-5.25,1.27-10.19,1.8-14.82h.1c4.15-2.13,7.15-1.83,9.12-1.17l.15-.05c2.08,6.14,4.48,13.81,4.71,14.56,2.55,8.45,2.8,8.35,6.45,18.34Z" style="fill:#838afa;"/><path d="M89.09,106.66c.75.18,1.39.5,1.78.69.57,1.3,1.5,3.95,2.52,6.95l-.15.05c-1.97-.66-4.97-.96-9.12,1.18h-.1c.31-2.65.59-5.18.91-7.61.42-.46.84-.78,1.27-1,1.01-.53,2.02-.48,2.88-.26Z" style="fill:#838afa;"/><path d="M87.85,97.28c.86,5.57.63,5.76,1.24,9.38-.86-.22-1.87-.27-2.88.26-.28-2.63-.29-2.79-.53-5.43-.4-4.38-.27-3.51-.36-4.23.39-1.09.62-1.84,1-2.89.78,1.42.73,1.42,1.53,2.91Z" style="fill:#2848f9;"/><path d="M83.77,182.99c.43,3.7.66,4.34,1,7.08-4.74-.91-9.34-2.01-13.68-3.34h0c-.28-1.48-.58-3.11-.94-4.87-1.79-8.94-4.52-21.35-7.35-34.03,7.52-2.58,7.3-2.49,15.3-3.88l.06-.02c.8,3.16,1.64,6.47,2.52,9.94h.16c.82,11.29,1.7,17.68,1.93,19.32.39,2.83.91,9.06,1,9.8Z" style="fill:#838afa;"/><path d="M78.15,143.93l-.06.02c-8,1.39-7.77,1.3-15.3,3.88-3.98-17.91-8.13-36.37-10.01-46.37-1.01-5.37-1.94-10.12-2.78-14.37l.33-.07c2.27-1.29,6.28-3.6,12.97-3.45l.09-.02c1.66,7.28,5.54,23.97,14.76,60.38Z" style="fill:#838afa;"/><path d="M63.39,83.55l-.09.02c-6.69-.15-10.7,2.16-12.97,3.45l-.33.07c-.19-.93-.38-1.85-.55-2.74,3.86-2.16,7.34-3.6,13.33-3.48.17.7.37,1.58.61,2.68Z" style="fill:#838afa;"/><path d="M62.78,80.87c-5.99-.12-9.46,1.32-13.33,3.48-.92-4.64-1.72-8.65-2.4-12.2l.3-.06c.27-.22,1.97-1.97,5.07-2.7,4.26-.99,6.52-.34,7.06-.18l.26-.07c.76,2.82,1.6,6.01,2.55,9.65.1.38.25,1.03.49,2.08Z" style="fill:#838afa;"/><path d="M59.74,69.14l-.26.07c-.53-.16-2.8-.81-7.06.18-3.1.73-4.8,2.48-5.07,2.7l-.3.06c-2.44-13.05-3.04-20.07-1-30.21-.76-4.06-.7-4.53-1.57-8.86.75-.69,1.59-.45,1.73-.42,0,0,.02.01.04.01l.06.28c.95,4.37,1.02,4.3,1.79,8.78,5.6,7.5,7.46,12.01,11.63,27.41Z" style="fill:#838afa;"/><path d="M146.24,158.15c-.73-.15-1.81-1.22-.84-2.09,1.19-1.07.9-1.13,1.61-1.76.12-.11.5-.24.77-.48.18-.15.31-.35.29-.61-.02-.29-.17-.93-.27-1.32-.18-.67-.18-2.26-2.35-2.1-.49.03-1.45.94-1.53,1.01" style="fill:none; stroke:#000; stroke-linecap:round; stroke-linejoin:round; stroke-width:.9px;"/><path d="M144.45,153.97c.4.1.84.08,1.48-.29" style="fill:none; stroke:#000; stroke-linecap:round; stroke-linejoin:round; stroke-width:.9px;"/><path d="M150.54,153.76c.92,1.03,1.95.81,3.11.67" style="fill:none; stroke:#000; stroke-linecap:round; stroke-linejoin:round; stroke-width:.9px;"/><path d="M150.7,150.53c1.68-1.15,3.01-.05,4.33.92" style="fill:none; stroke:#000; stroke-linecap:round; stroke-linejoin:round; stroke-width:.9px;"/><path d="M147.63,157.85c.57.11.55.12,1.1.31" style="fill:none; stroke:#000; stroke-linecap:round; stroke-linejoin:round; stroke-width:.9px;"/><path d="M146.79,161.42c2.2.72,5.06-.75,5.44-.95" style="fill:none; stroke:#000; stroke-linecap:round; stroke-linejoin:round; stroke-width:.9px;"/><path d="M144.88,147.16s-.03.06-.04.08c-.03.05-.05.1-.07.14-.9,1.8-1.12,2.63-1.06,3.43.05.66.3,1.3.51,2.45.05.27.07.5.05.7-.12,1.51-1.8,1.66-1.33,4.64.99,6.2,1.54,7.5,4.43,8.19.07.02.15.03.22.05,1.48.33,2.42-.88,2.7,2.21,0,.1.04.28.07.54.16.97.48,2.91.61,4.46,0,.02,0,.03,0,.04v.04" style="fill:none; stroke:#000; stroke-linecap:round; stroke-linejoin:round; stroke-width:.9px;"/><path d="M148.96,143.15s0,.07,0,.1c.13,1.94.85,3.86,4.84,4.48" style="fill:none; stroke:#000; stroke-linecap:round; stroke-linejoin:round; stroke-width:.9px;"/><path d="M151.23,143.64c.83,2.12,1.71,3.24,2.68,3.94.86.63,1.78.92,2.8,1.29" style="fill:none; stroke:#000; stroke-linecap:round; stroke-linejoin:round; stroke-width:.9px;"/><path d="M154.64,145.88c.82,1.39,1.52,2.3,2.12,2.96,1.55,1.73,2.4,1.69,3,3.76.93,3.2-.9,4.83-1.23,5.13" style="fill:none; stroke:#000; stroke-linecap:round; stroke-linejoin:round; stroke-width:.9px;"/><path d="M158.56,157.78c.97-.26,1.64-.73,2.13-1.26,1.1-1.19,1.17-2.7,1.19-2.8" style="fill:none; stroke:#000; stroke-linecap:round; stroke-linejoin:round; stroke-width:.9px;"/><path d="M160.93,156.76c.29-.05,2.1-.34,3.09-1.68.13-.17.26-.38.39-.61.5-.94.93-2.27.93-3.26,0-.09,0-.18,0-.26" style="fill:none; stroke:#000; stroke-linecap:round; stroke-linejoin:round; stroke-width:.9px;"/><path d="M145,147.32c1.45-.8,3.07-2.56,3.84-4.06" style="fill:none; stroke:#000; stroke-linecap:round; stroke-linejoin:round; stroke-width:.9px;"/><path d="M164.42,154.34s-.02.09-.02.13c-.29,1.46.13,1.17-.52,2.96-1.04,2.79-3.43,1.91-3.43,1.91,0,0-.49,1.84-1.53,3.52-.54.91-1.25,1.76-2.12,2.26" style="fill:none; stroke:#000; stroke-linecap:round; stroke-linejoin:round; stroke-width:.9px;"/><path d="M158.93,162.86c-.63,1.77-.09,1.82.49,3.93.23.83-.94,2.82.49,4.34" style="fill:none; stroke:#000; stroke-linecap:round; stroke-linejoin:round; stroke-width:.9px;"/><path d="M169.66,173.42c-.2-.55-3.02-.66-1.71-2.47,1.25-1.72,1.13-3.23-.57-4.75-2.71-2.43,3.57-4.72.59-9.13-1.35-1.99-.36-2.1-.06-4.4.02-.14.08-.7.07-1.5-.03-3.31-1.13-10.84-10.24-11.25-1.12-.05-10.34-.76-12.57,5.28-.19.48-.14.48-.44,2.16" style="fill:none; stroke:#000; stroke-linecap:round; stroke-linejoin:round; stroke-width:.9px;"/><path d="M147.3,167.09c-.58,2.23-.87.88-1.79,2.76" style="fill:none; stroke:#000; stroke-linecap:round; stroke-linejoin:round; stroke-width:.9px;"/><path d="M151.03,174.05c.93,2.89,4.25,3.26,5.88,2.62,2.66-1.03,4.11-3.46,5.14-5.36" style="fill:none; stroke:#000; stroke-linecap:round; stroke-linejoin:round; stroke-width:.9px;"/><path d="M151.03,174.02c1.83.06,3.1.23,6.57-1.31.94-.43,1.74-.98,2.37-1.5.02-.02.04-.03.06-.05" style="fill:none; stroke:#000; stroke-linecap:round; stroke-linejoin:round; stroke-width:.9px;"/><path d="M147.48,175.57c-.66,1.11-5.23,6.9-7.01,18.35" style="fill:none; stroke:#000; stroke-linecap:round; stroke-linejoin:round; stroke-width:.9px;"/><path d="M150.32,169.6c-.27.1-.6.37-.96.75-1.35,1.4-3,4.25-2.68,4.59.26.28.53.44.83.51,1.29.35,2.78-.97,3.28-1.34" style="fill:none; stroke:#000; stroke-linecap:round; stroke-linejoin:round; stroke-width:.9px;"/><path d="M149.47,178.52c-1.76-.06-1.48,1.33-.74,1.52.71.18,2.32-.26.88-1.44" style="fill:none; stroke:#000; stroke-linecap:round; stroke-linejoin:round; stroke-width:.9px;"/><path d="M133.89,180.54c-3.12,5.41-3.77,7.17-5.2,13.2" style="fill:none; stroke:#000; stroke-linecap:round; stroke-linejoin:round; stroke-width:.9px;"/><path d="M129.94,183.04c-.03,2.98.07,2.71,0,5.68" style="fill:none; stroke:#000; stroke-linecap:round; stroke-linejoin:round; stroke-width:.9px;"/><path d="M163.13,187.16c-.55,1.56-.91,4-1.1,5.68" style="fill:none; stroke:#000; stroke-linecap:round; stroke-linejoin:round; stroke-width:.9px;"/><path d="M116.27,188.07c.41-4.52.17-5.26.64-5.96.11-.16.26-.32.46-.53,1.32-1.34,6.16-1.49,8.99-3.66,1.24-.94,2.46-1.83,3.66-2.64,3.96-2.67,7.8-4.55,11.38-5.08,1.41-.2,2.77-.16,4.1-.09,1.29.07,2.53.16,3.72.1" style="fill:none; stroke:#000; stroke-linecap:round; stroke-linejoin:round; stroke-width:.9px;"/><path d="M108.88,179.8c3.88,1.12,3.96.76,7.77,2.12" style="fill:none; stroke:#000; stroke-linecap:round; stroke-linejoin:round; stroke-width:.9px;"/><path d="M160.26,171.1c.62.04,1.22.09,1.79.16,3.13.37,5.56,1.19,7.57,2.23,2.27,1.2,3.98,2.69,5.52,4.18,1.14,1.1,2.19,2.2,3.3,3.17,1.54,1.36,2.23,1.18,3.96,2.29" style="fill:none; stroke:#000; stroke-linecap:round; stroke-linejoin:round; stroke-width:.9px;"/><path d="M177.12,187.2c2.72-2.55,3.61-3.63,5.29-4.07.64-.16,1.41-.23,2.44-.25,5.55-.11,6.35-.76,8.69.56.35.2.66.42.93.66,1.27,1.11,1.75,2.65,1.89,4.06.04.35.05.69.05,1.02" style="fill:none; stroke:#000; stroke-linecap:round; stroke-linejoin:round; stroke-width:.9px;"/><path d="M184.4,191.01c-.82,1.2-1,1.87-1.34,3.54,0,.05-.02.09-.03.14-.94,4.44-3.07,6.14-.69,7.42" style="fill:none; stroke:#000; stroke-linecap:round; stroke-linejoin:round; stroke-width:.9px;"/><path d="M187.71,194.61c.2-.26.29-.24.68-.26" style="fill:none; stroke:#000; stroke-linecap:round; stroke-linejoin:round; stroke-width:.9px;"/><path d="M185.23,192.88c.26.35.21.4-.15,1.74-.04.13-.93,2.61-1.01,2.84-.39,1.07-1.7,3.44-1.65,4.64.02.39.18.65.56.72.92.15,1.11-1.11,1.87-2.5.12-.21.08-.22,1.36-2.64.31-.58,1.09-2.47,1.44-2.97.02-.03.05-.07.06-.09" style="fill:none; stroke:#000; stroke-linecap:round; stroke-linejoin:round; stroke-width:.9px;"/><path d="M188.31,198.64c.55-.76,1-1.37,1.03-1.43.63-1.16.82-1.71,1.01-2.01" style="fill:none; stroke:#000; stroke-linecap:round; stroke-linejoin:round; stroke-width:.9px;"/><path d="M187.71,194.61h0c-1.12,2.87-1.38,3.02-2.84,5.73-.1.18-.97,1.77-.84,2.34.14.6,1.02,1.1,2.19-1.01.25-.45,1.28-1.89,2.09-3.01" style="fill:none; stroke:#000; stroke-linecap:round; stroke-linejoin:round; stroke-width:.9px;"/><path d="M196.06,186.42c.35.56.41,1.14.3,1.74-.08.46-.27.93-.5,1.41-.61,1.24-1.56,2.49-1.94,3.63-.26.79-.45.85-3.98,6.69-.48.8-2.32,1.81-1.96.22l.33-1.45v-.02" style="fill:none; stroke:#000; stroke-linecap:round; stroke-linejoin:round; stroke-width:.9px;"/><path d="M188.2,185.34h0c-2.56,2.23-2.46,2.34-4.92,4.69-.37.34-.65.67-.88.99-1.36,1.81-.86,3.2-1.16,4.03-.08.23-1.01,1.57-.17,1.89.88.33,1.5-1.34,1.56-1.51.13-.36.14-.35.34-.76" style="fill:none; stroke:#000; stroke-linecap:round; stroke-linejoin:round; stroke-width:.9px;"/><path d="M188.2,185.37c.27-.28,1.94-2.02,4.53-1.77.75.07,1.31.25,1.73.5.9.52,1.24,1.36,1.58,2.21" style="fill:none; stroke:#000; stroke-linecap:round; stroke-linejoin:round; stroke-width:.9px;"/><path d="M80.65,150.27c.35-5.6.76-13.92,1.58-19.93.71-5.25,1.27-10.19,1.8-14.82.31-2.64.59-5.17.91-7.6.42-.46.84-.78,1.27-1,1.01-.53,2.02-.48,2.88-.26.75.18,1.39.5,1.78.69.57,1.3,1.5,3.95,2.52,6.95,2.08,6.14,4.48,13.81,4.71,14.56,2.55,8.45,2.8,8.35,6.45,18.34" style="fill:none; stroke:#000; stroke-linecap:round; stroke-linejoin:round; stroke-width:.9px;"/><path d="M89.09,106.68v-.02c-.6-3.62-.38-3.81-1.24-9.38-.8-1.49-.75-1.49-1.53-2.91,0-.01,0-.02-.02-.03" style="fill:none; stroke:#000; stroke-linecap:round; stroke-linejoin:round; stroke-width:.9px;"/><path d="M86.34,94.3s-.02.05-.02.07c-.38,1.05-.61,1.8-1,2.89.09.72-.04-.15.36,4.23.25,2.64.26,2.8.53,5.43" style="fill:none; stroke:#000; stroke-linecap:round; stroke-linejoin:round; stroke-width:.9px;"/><path d="M84.13,115.53c4.15-2.14,7.15-1.84,9.12-1.18" style="fill:none; stroke:#000; stroke-linecap:round; stroke-linejoin:round; stroke-width:.9px;"/><path d="M80.61,150.41s.06-.03.09-.04c9.55-4.55,19.31-3.77,23.86-3.1.02,0,.04.01.06.01" style="fill:none; stroke:#000; stroke-linecap:round; stroke-linejoin:round; stroke-width:.9px;"/><path d="M80.6,150.53c.08,1.15.16,2.26.24,3.33.82,11.3,1.7,17.69,1.93,19.33.39,2.83.91,9.06,1,9.8.43,3.7.66,4.34,1,7.08v.02" style="fill:none; stroke:#000; stroke-linecap:round; stroke-linejoin:round; stroke-width:.9px;"/><path d="M104.65,147.21s0,.04,0,.06c.66,4.49,1.85,16.31,3.28,28.07.02.16.03.31.05.49.07.68.14,1.65.38,4.02.27,2.49.72,6.49,1.54,13.28" style="fill:none; stroke:#000; stroke-linecap:round; stroke-linejoin:round; stroke-width:.9px;"/><path d="M88.45,161.15c.67,5.35,2.54,24.6,3.18,29.95" style="fill:none; stroke:#000; stroke-linecap:round; stroke-linejoin:round; stroke-width:.9px;"/><path d="M98.51,160.08c1.07,8.32,1.62,15.8,1.69,17.1.16,3.33.82,5.19,1.6,15.3" style="fill:none; stroke:#000; stroke-linecap:round; stroke-linejoin:round; stroke-width:.9px;"/><path d="M85.38,97.4c1.06-.39,1.08-.43,2.19-.22" style="fill:none; stroke:#000; stroke-linecap:round; stroke-linejoin:round; stroke-width:.9px;"/><path d="M42.89,22.7c1.06,4.3.95,4.71,2.15,9.68" style="fill:none; stroke:#000; stroke-linecap:round; stroke-linejoin:round; stroke-width:.9px;"/><path d="M71.08,186.72c-.28-1.47-.58-3.1-.94-4.86-1.79-8.94-4.52-21.35-7.35-34.03-3.98-17.91-8.13-36.37-10.01-46.37-1.01-5.37-1.94-10.12-2.78-14.37-.19-.93-.38-1.85-.55-2.74-.92-4.64-1.72-8.65-2.4-12.2-2.44-13.05-3.04-20.07-1-30.21-.76-4.06-.7-4.53-1.57-8.86.75-.69,1.59-.45,1.73-.42,0,0,.02.01.04.01l.06.28c.95,4.37,1.02,4.3,1.79,8.78,5.6,7.5,7.46,12.01,11.63,27.41.76,2.82,1.6,6.01,2.55,9.65.1.38.25,1.03.49,2.08.17.7.37,1.58.61,2.68,1.66,7.28,5.54,23.97,14.76,60.38.8,3.16,1.64,6.47,2.52,9.94" style="fill:none; stroke:#000; stroke-linecap:round; stroke-linejoin:round; stroke-width:.9px;"/><path d="M47.35,72.09c.27-.22,1.97-1.97,5.07-2.7,4.26-.99,6.52-.34,7.06-.18" style="fill:none; stroke:#000; stroke-linecap:round; stroke-linejoin:round; stroke-width:.9px;"/><path d="M49.38,84.39s.05-.03.07-.04c3.86-2.16,7.34-3.6,13.33-3.48" style="fill:none; stroke:#000; stroke-linecap:round; stroke-linejoin:round; stroke-width:.9px;"/><path d="M50.33,87.02c2.27-1.29,6.28-3.6,12.97-3.45" style="fill:none; stroke:#000; stroke-linecap:round; stroke-linejoin:round; stroke-width:.9px;"/><path d="M62.76,147.84s.03,0,.04,0c7.52-2.58,7.3-2.49,15.3-3.88" style="fill:none; stroke:#000; stroke-linecap:round; stroke-linejoin:round; stroke-width:.9px;"/><path d="M147.55,183.91c-2.25-.42-2.1,1.05-1.36,1.3.93.32,2.34-.2,1.43-1.23" style="fill:none; stroke:#000; stroke-linecap:round; stroke-linejoin:round; stroke-width:.9px;"/><path d="M145.95,189.7c-2.26-.42-2.1,1.05-1.36,1.3.93.32,2.34-.2,1.43-1.23" style="fill:none; stroke:#000; stroke-linecap:round; stroke-linejoin:round; stroke-width:.9px;"/><path d="M175.18,177.64c12.7,1.84,22.88,3.07,27.34,6.45,3.95,2.98-.44,11.55-.52,13.86,1.86,13.04,10.85,44.86,12.9,69.92.03.45-.17,1.42-.17,1.42,0,0,.34.88.37,1.36.22,3.45.28,7.39.13,9.86-.94,16.03-7.59,28.48-33.51,43.17,0,.01-.02.01-.03.02" style="fill:none; stroke:#000; stroke-linecap:round; stroke-linejoin:round; stroke-width:.9px;"/><path d="M69.9,181.91c-4.28,1.06-7.32,2.33-8.54,5.15-1.24,2.83.94,9.83,1.13,11.8-1.79,12.6-10.25,42.89-12.66,68.21-.07.74.1,2.18.1,2.18,0,0-.39,1.22-.44,1.81-.29,4.04-.39,7.56-.23,10.36.94,16.04,7.6,28.49,33.55,43.19" style="fill:none; stroke:#000; stroke-linecap:round; stroke-linejoin:round; stroke-width:.9px;"/><path d="M82.99,324.61c-.19.87-2.06,6.79-2.17,7.58" style="fill:none; stroke:#000; stroke-linecap:round; stroke-linejoin:round; stroke-width:.9px;"/><path d="M181.72,323.7c.26,1.59,2.02,4.97,2.33,6.93" style="fill:none; stroke:#000; stroke-linecap:round; stroke-linejoin:round; stroke-width:.9px;"/><path d="M80.87,332.21c4.65,1.04,19.88,5.7,51.61,5.7,25.79,0,42.04-4.46,51.56-7.21" style="fill:none; stroke:#000; stroke-linecap:round; stroke-linejoin:round; stroke-width:.9px;"/><path d="M107.88,175.84s.07,0,.11,0c8.47-.44,12.66-.56,22-.6" style="fill:none; stroke:#000; stroke-linecap:round; stroke-linejoin:round; stroke-width:.9px;"/><path d="M68.77,186c.76.25,1.53.5,2.32.73,4.35,1.33,8.94,2.43,13.68,3.34,8.09,1.56,16.62,2.56,25.14,3.16,10.5.74,20.98.88,30.57.69,22.68-.44,40.43-2.68,41.89-2.92" style="fill:none; stroke:#000; stroke-linecap:round; stroke-linejoin:round; stroke-width:.9px;"/><path d="M195.82,189.58s.02-.01.03-.01c1.82-.54,3.42-.98,5.03-1.6" style="fill:none; stroke:#000; stroke-linecap:round; stroke-linejoin:round; stroke-width:.9px;"/><path d="M49.92,269.25c9.47,5.63,28.18,16.63,83.97,16.63,40.53,0,75.2-13.85,80.84-16.59.03-.01.05-.03.08-.04" style="fill:none; stroke:#000; stroke-linecap:round; stroke-linejoin:round; stroke-width:.9px;"/><path d="M83.28,324.7c12.76,2.24,22.33,5.26,49.08,5.26,24.97,0,37.98-3.68,49.32-6.26" style="fill:none; stroke:#000; stroke-linecap:round; stroke-linejoin:round; stroke-width:.9px;"/><path d="M149.12,141.17h0c-2.42.02-3.94,1.09-4.89,2.24" style="fill:none; stroke:#121212; stroke-linecap:round; stroke-linejoin:round; stroke-width:.9px;"/><line x1="92.16" y1="116.21" x2="95.49" y2="127.89" style="fill:none; stroke:#fff; stroke-linecap:round; stroke-linejoin:round; stroke-width:.75px;"/><path d="M48.45,44.78c3.61,6.13,5.93,11.27,8.52,22.54" style="fill:none; stroke:#fff; stroke-linecap:round; stroke-linejoin:round; stroke-width:.75px;"/></svg>