<?xml version="1.0" encoding="UTF-8"?><svg id="a" xmlns="http://www.w3.org/2000/svg" viewBox="0 0 260 346.35"><path d="M212.01,117.82c.46,12.33-.83,15.44-9.5,16.8-11.2,1.77-23.32,2.7-28.07,3.33-1.93.26-3.49.51-5.08.73-1.34.18-2.72.33-4.35.47l-.03-.04c9.75-4.85,18.38-13.2,23.73-25.94,1.08-2.57,2.02-5.58,2.68-8.9l.54.11c.9-.61,11.78-6.89,10.83-17.47-.86-9.77-7.21-12.44-11.18-14.87-.82-.5-1.28-.97-1.61-1.65-.59-1.18-.79-3.01-1.87-6.74l.41-.06c5.78-.47,11.09-.11,13.24-2.81,1.93-2.42,2.07-11.64,1.85-12.94l1.99-.07c.83,3.53,1.55,8.28,2.6,15.51,2.94,20.43,3.32,41.14,3.82,54.54Z" style="fill:#838afa;"/><path d="M205.59,47.77l-1.99.07s-.02-.09-.03-.11c-.6-1.41-4.35-.95-6.27-.92-11.79.23-13.72,1.07-13.33,5.44,2.13,5.09,3.35,8.73,4.13,11.4,1.08,3.73,1.28,5.56,1.87,6.74l-2.03.96c-.67-1.51-1.44-2.99-2.31-4.45-1.84-3.1-4.08-5.93-6.64-8.47l.18-.17c-12.65-30.9-13.52-30.31-16.85-34.72-7.31-9.7-10.85-9.04-24.7-8.22-12.78.75-18.76,3.09-22.75,10.29l-2.93-1.49c2.52-4.59,5.67-8.99,11.69-9.9,0,0,.14-.02.27-.04v-.14c.02-.64-.5-3.76,1.25-4.15.53-.12,17.15-1.85,24.14-1.8,2.73.03,2.34.94,2.98,3.61,8.9-.69,12.25,11.61,19.45,17.83h.01c-.3.53-.41.75.09,1.56,4.28.51,24.62,3.63,27.02,4.04t0,.02c.08,0,.12.01.17.01.05.02.08.02.08.02l.19.2c3.46,4.35,5.02,6.89,6.32,12.39Z" style="fill:#838afa;"/><path d="M203.6,47.84c.22,1.3.08,10.52-1.85,12.94-2.15,2.7-7.46,2.34-13.24,2.81l-.41.06c-.78-2.67-2-6.31-4.13-11.4-.39-4.37,1.54-5.21,13.33-5.44,1.92-.03,5.67-.49,6.27.92.01.02.02.07.03.11ZM195.04,54.37c1.19-.61.73-2.77.68-3.01-.29-1.33.01-2.28-2.85-1.63-.57.48.17.9.04,2.89-.01.22-.34,1.64.88,1.86.54.1.96.05,1.25-.11ZM194.55,60.3c2.41.57,1.93-4.83-.07-4.28-1.8.49-1.62,3.79-.04,4.26.03.01.08.01.11.02Z" style="fill:#838afa;"/><path d="M202.76,86.91c.95,10.58-9.93,16.86-10.83,17.47l-.54-.11c.33-1.6.6-3.27.78-4.99.86-.63,8.84-5.24,5.65-16.55-1.85-6.54-7.55-7.82-8.13-8.03l-.31.12c-.43-1.17-.89-2.33-1.44-3.47l2.03-.96c.33.68.79,1.15,1.61,1.65,3.97,2.43,10.32,5.1,11.18,14.87Z" style="fill:#838afa;"/><path d="M190.92,24.86c3.81.64,7.05,1.34,8.47,1.9l.06-.09c1.18.75.84,1.12.37,1.87.51,1.1.64,1.29-.3,2.08.61,1.61.2,1.66-.3,2.11.31,1.23.77,1.27-.38,2.4-2.4-.41-22.74-3.53-27.02-4.04-.5-.81-.39-1.03-.09-1.55.1-.17.22-.37.34-.64-.4-.55-.78-.67.11-2.13-.78-.95-.61-1.11.08-2.1-.31-.82-.57-1.24.66-1.74,1.85-.06,4.95.17,8.41.56,3.12.36,6.54.85,9.59,1.37Z" style="fill:#838afa;"/><path d="M197.82,82.73c3.19,11.31-4.79,15.92-5.65,16.55.82-7.55.25-16.16-2.79-24.46l.31-.12c.58.21,6.28,1.49,8.13,8.03Z" style="fill:#838afa;"/><path d="M195.72,51.36c.05.24.51,2.4-.68,3.01-.29.16-.71.21-1.25.11-1.22-.22-.89-1.64-.88-1.86.13-1.99-.61-2.41-.04-2.89,2.86-.65,2.56.3,2.85,1.63Z" style="fill:#838afa;"/><path d="M194.48,56.02c2-.55,2.48,4.85.07,4.28-.03,0-.08,0-.11-.02-1.58-.47-1.76-3.77.04-4.26Z" style="fill:#838afa;"/><path d="M192.17,99.28c-.18,1.72-.45,3.39-.78,4.99-.66,3.32-1.6,6.33-2.68,8.9-5.35,12.74-13.98,21.09-23.73,25.94-3.46,1.72-7.08,3-10.73,3.86-.85.21-1.68.38-2.53.54-8.04,1.51-16.26.59-23.9-2.19-19.4-7.03-35-26.05-34.12-47.97.54-13.66,5.14-23.99,11.54-31.68,5.01-6.04,11.15-10.45,17.31-13.56,17.82-8.99,42.08-3.95,56.44,10.32,2.56,2.54,4.8,5.37,6.64,8.47.87,1.46,1.64,2.94,2.31,4.45.55,1.14,1.01,2.3,1.44,3.47,3.04,8.3,3.61,16.91,2.79,24.46ZM185.56,111.85c4.27-10.11,6.01-27.72-2.85-42.6-11.26-18.9-38.93-27.06-58.34-17.31-12.94,6.5-25.78,19.2-26.69,41.64-1.14,28.13,27.35,51.09,53.68,46.2,13.72-2.55,27.09-11.08,34.2-27.93Z" style="fill:#838afa;"/><path d="M190.94,24.53l-.02.33c-3.05-.52-6.47-1.01-9.59-1.37v-.07c.21-1.2,1.64-.96,3.23-.72,5.85.88,6.18.83,6.38,1.83Z" style="fill:#838afa;"/><path d="M182.71,69.25c8.86,14.88,7.12,32.49,2.85,42.6-7.11,16.85-20.48,25.38-34.2,27.93-26.33,4.89-54.82-18.07-53.68-46.2.91-22.44,13.75-35.14,26.69-41.64,19.41-9.75,47.08-1.59,58.34,17.31ZM177.56,107.6c3.39-7.66,4.77-20.79-2.31-32.07-8.97-14.32-29.09-21.57-44.53-14.2-10.31,4.92-22.26,15.58-23.15,32.57-1.96,37.41,53.52,50.9,69.99,13.7Z" style="fill:#838afa;"/><path d="M134.48,23.72c.04.11.07.22.11.35.04.21.05.62.04,1.06h-.35c-2.45-.37-4.04,1.28-3.79,2.08.51,1.6,2.85.55,4.06-.25h.19s.02.06.05.09c.18.24.74.01,1.83-.38l1.91-.11c-.17-2.35,0-3.44-.49-3.94-.32-.32-1.14.36-1.7.84l-1.86.26ZM179.17,58.26l-.18.17c-14.36-14.27-38.62-19.31-56.44-10.32-6.16,3.11-12.3,7.52-17.31,13.56l-.33-.27c.37-1.62.74-3.18,1.09-4.67,3.51-15.29,5.47-24.96,8.87-31.12,3.99-7.2,9.97-9.54,22.75-10.29,13.85-.82,17.39-1.48,24.7,8.22,3.33,4.41,4.2,3.82,16.85,34.72ZM146.17,26.4c1.89-.63,1.59-5.5-1.1-4.26h-.03c-1.15.48-1.27,1.73-1.03,3.55.09.68,1.15,1.05,2.16.71ZM128.9,26.59l-.9-2.04c.14-.16,1.61-1.32-.21-1.84-3.28-.91-5.23,2.7-4.69,4.07,1.04,2.67,4.8.36,5.8-.19Z" style="fill:#838afa;"/><path d="M175.25,75.53c7.08,11.28,5.7,24.41,2.31,32.07-16.47,37.2-71.95,23.71-69.99-13.7.89-16.99,12.84-27.65,23.15-32.57,15.44-7.37,35.56-.12,44.53,14.2ZM155.31,114.02c5.29-2.55,15.81-16.97,9.42-28.27-4.58-8.08-8.27-10.25-14.68-11.92-6.2-1.63-17.86-1.21-24.81,10.1-8.73,14.2,5.8,41.77,30.07,30.09Z" style="fill:#838afa;"/><path d="M151.6,211.32v.07c-1.69,2.99-1.97,2.94-2.16,6.38-.53,9.61.07,11.95-1.41,20.07-.73.17-2.19.47-6.12.44-1.74,0-3.94-.07-6.77-.26-4.08-.25-10.27-1.09-15.95-2.59l.04-.19c1.45-10.18,1.63-13.2,3.57-20.39,3.96-14.74,7.2-17.83,8.37-19.4l.09-.51c.44.17,1.22.07,2.16-.12.88-.19,2.36-.72,2.55-.8.02,0,.03,0,.05.01-.12.47-1.03,3.98-.55,5.09.01.03.6.2,1.62-.17.91-.33,3.64-1.76,4.52-2.26,1.72-.99,2.85-1.91,4.04-2.76l.03.04c2.33-1.43,8.21-3.79,8.94-4.14,2.31-1.11,1.86-1.83,1.83-2.25-.19-3.27-.07-5.76.23-7.69.73-4.56,2.44-6.07,3.19-7.66.15-.33.27-.66.32-1.02.05-.26.06-.54.03-.84-.44-5.02-.48-5.19,1.19-7.46l.58-.04c.04.29.08.54.11.78h.21c3.28.54,4.89.37,7.51-1.05l-.05-.19c-.03-.15-.07-.31-.09-.45l.15-.03c2.64,2.98,1.24,8.41,1.35,8.95.49,2.38,4.3,3.41,3.1,11.89-.6,4.29-.97,7.05-5.38,14.31-1.82,3-3.74,2.01-5.31,5.83-.72,1.78-3.11,4.39-3.42,4.73,0,0-.25.28-.58.64-2.36,1.63-3.27,2.31-5.56,2.47-1.03.07-1.34.57-2.43.57ZM132.67,199.29c1.55.4,1.66-.96,1.08-1.62-1.79-.89-2.15,1.33-1.08,1.62ZM130.51,205.54c.73-.5.27-1.78,0-1.86,0,0-.06-.02-.12-.05-.67-.08-1.1-.37-1.52.81-.15.42.09.78.44,1,.38.23.9.3,1.2.1ZM128.19,212.83c.26-.25.74-1.51-.2-1.62-.45-.61-1.49-.15-1.52.55-.04.66.13.99.39,1.16.49.32,1.27-.04,1.33-.09ZM126.41,221.03c.19-.18.29-.8,0-1.19-.74-.52-2.07-.05-1.73.86.06.17.15.3.24.39.44.41,1.17.28,1.49-.06ZM123.87,230.28c1.03.29,2.24-.57,1.04-1.94-.13-.09-.31-.21-.31-.21-.78-.5-2.06,1.31-1.16,1.95.14.09.29.16.43.2Z" style="fill:#2848f9;"/><path d="M166.23,145.76l.07.07c.57,5.89.59,6.2,1.54,9.36.64,2.13.87,2.44,1.84,6.77.02.14.06.3.09.45l.05.19c-2.62,1.42-4.23,1.59-7.51,1.04h-.21c-.03-.23-.07-.48-.11-.77-.56-4.33-1.6-14.73-1.87-15.08-1.67-2.12-2.85-.75-5.78-4.47l-.09-.35c3.65-.86,7.27-2.14,10.73-3.86l.03.04c1.63-.14,3.01-.29,4.35-.47l.02.15c-.48,4.37-1,4.38-3.15,6.93Z" style="fill:#fff;"/><path d="M164.73,85.75c6.39,11.3-4.13,25.72-9.42,28.27-24.27,11.68-38.8-15.89-30.07-30.09,6.95-11.31,18.61-11.73,24.81-10.1,6.41,1.67,10.1,3.84,14.68,11.92Z" style="fill:#2848f9;"/><path d="M160.19,171.21c-.05.36-.17.69-.32,1.02h-.17c-5.55-1.32-7.76-.97-9.47.13v-.02c.29-.31,1.86-2,4.67-2.45,2.52-.41,3.65.45,5.29,1.32Z" style="fill:#838afa;"/><path d="M159.7,172.23h.17c-.75,1.59-2.46,3.1-3.19,7.66l-.15-.03c-.06-.08-2.07-2.26-1.08-4.71.99-2.44,3.69-2.81,4.25-2.92Z" style="fill:#838afa;"/><path d="M136.15,184.69c-.03-.12-.04-.24-.04-.38-.14-2.21.76-2.66,5.13-6.43,2.72-2.33,4.52-1.79,6.23-3.22,1.07-.9,1.84-1.72,2.76-2.3,1.71-1.1,3.92-1.45,9.47-.13-.56.11-3.26.48-4.25,2.92-.99,2.45,1.02,4.63,1.08,4.71l.15.03c-.3,1.93-.42,4.42-.23,7.69.03.42.48,1.14-1.83,2.25-.73.35-6.61,2.71-8.94,4.14l-.03-.04s.08-.06.12-.09c-3.61-.28-5.33-.04-9.74.19h-.01s-.03-.01-.05-.01c.01-.01.02-.01.02-.01.18-.35-.13-4.09-.17-4.45-.22-2.57.11-4.32.13-4.85l.2-.02Z" style="fill:#fff;"/><path d="M134.91,293.7c-.76-3.11-1.09-8.62.97-14.46-11-13.4-9.6-24.83-9.59-25.52l-.12-.06c-1.01,2.3-2.18,5.26-2.38,7.24l-.22.04c.72,4.43,2.35,14.47,2.15,22.43-.36,14.77-.71,14.66-1.17,24.99-.21.07-1.17.48-2.73.79-1.82.38-4.45.65-7.68.19-.08-.01-.17-.02-.26-.05-4.52-.72-7.54-3.34-7.94-3.66,2.09-2.67,2.05-2.63,4.06-5.2-1.54-9.73-2.97-15.23.51-22.01l-.41-.21c-2.74-2.27-.6-3.19-1.21-5.8-.23-.98-2.26-2.43-3.11-6.79-3.27-16.79,1.1-30.87,1.82-34.15l.07-.15c3.33,1.58,7.29,3.02,11.49,4.11h.03c5.68,1.5,11.87,2.34,15.95,2.59,2.83.19,5.03.26,6.77.26v.39c2.43,11.93,3.14,11.77,5.06,24.58,1.62,10.7,1.43,10.74,4.43,20.04,1.9,5.88-.95,12.06-4.94,14.29l.5.21c0,.61-.04,4.09-.08,7.65-.38-.15-.77-.31-1.17-.45-1.22-.61-2.52-1.39-3.78-2.31-2.77-2.01-5.37-4.64-6.52-7.39-.17-.41-.34-.95-.5-1.59Z" style="fill:#838afa;"/><path d="M145.07,22.14c2.69-1.24,2.99,3.63,1.1,4.26-1.01.34-2.07-.03-2.16-.71-.24-1.82-.12-3.07,1.03-3.54h.03Z" style="fill:#838afa;"/><path d="M146.04,315.71c.15.71.02,2.09-.33,2.75-.09.15-.18.26-.28.32-2.98,1.66-5.59.85-6.75.59-2.12-.47-4.55-2.42-5.24-4.48-1.09-3.23-.34-5.03-.89-7.34-.17-.74-.48-1.56-1.04-2.49-.56-.94-.99-.93-1.58-1.88-.01-.01-.01-.02-.01-.04-.06-.27.28-1.23.51-1.93l.36-.09c.09.22.22.42.39.67,3.5,4.98,2.58,5.39,2.75,8.88.28,6.23,6.09,8.65,10.6,6.92,1.03-.4,1.45-1.08,1.49-1.88h.02Z" style="fill:#2848f9;"/><path d="M144.12,311.04c.32.48,2.04,2.84,1.9,4.67-.04.8-.46,1.48-1.49,1.88-4.51,1.73-10.32-.69-10.6-6.92-.17-3.49.75-3.9-2.75-8.88-.17-.25-.3-.45-.39-.67-.39-.98.13-1.93,1.9-5.38.02.11.04.24.06.39.21,1.58.48,5.48,3.51,7.77.08.06.16.08.26.08l1.51,2.84c.02.15.04.29.06.43.57,3.5,3.98,4.27,5.99,3.63l.04.16Z" style="fill:#2848f9;"/><path d="M145.71,318.46l.12.05c-.34,1.57-.29,2.89-1.86,3.18-3.27.63-5.1-.16-5.53-.29-6.14-1.84-6.46-5.74-6.1-12.11l.03-.48c.03-.4.05-.81.08-1.24l.1-.02c.55,2.31-.2,4.11.89,7.34.69,2.06,3.12,4.01,5.24,4.48,1.16.26,3.77,1.07,6.75-.59.1-.06.19-.17.28-.32Z" style="fill:#838afa;"/><path d="M145.77,193.84s-.07.06-.12.09c-1.19.85-2.32,1.77-4.04,2.76-.88.5-3.61,1.93-4.52,2.26-1.02.37-1.61.2-1.62.17-.48-1.11.43-4.62.55-5.09h.01c4.41-.23,6.13-.47,9.74-.19Z" style="fill:#2848f9;"/><path d="M144.27,307.66c.14.12,1.34,1.07,1.28,1.78-.05.66-.64,1.17-1.47,1.44-2.01.64-5.42-.13-5.99-3.63-.02-.14-.04-.28-.06-.43l-1.51-2.84c.5,0,1.39-.59,3.68-.17.14.02,1.09.19,1.69.57.19.12.34.24.44.4.02.03.25,1.54,1.94,2.88Z" style="fill:#2848f9;"/><path d="M141.93,302.68l-.03.09c0,.32-.05.63,0,1.6h-.01c-.6-.37-1.55-.54-1.69-.56-2.29-.42-3.18.18-3.68.17-.1,0-.18-.02-.26-.08-3.03-2.29-3.3-6.19-3.51-7.77l.15-.02c.58-.84,1.36-1.62,2.01-2.41.16.64.33,1.18.5,1.59,1.15,2.75,3.75,5.38,6.52,7.39Z" style="fill:#fff;"/><path d="M138.53,26.56l-1.91.11c-1.09.39-1.65.62-1.83.38-.03-.03-.04-.06-.05-.09-.12-.33-.11-1.14-.11-1.83.01-.44,0-.85-.04-1.06-.04-.13-.07-.24-.11-.35l1.86-.26c.56-.48,1.38-1.16,1.7-.84.49.5.32,1.59.49,3.94Z" style="fill:#838afa;"/><path d="M135.82,189.56c.04.36.35,4.1.17,4.45,0,0-.01,0-.02.01-.19.08-1.67.61-2.55.8-.94.19-1.72.29-2.16.12-.26-.1-.39-.3-.37-.62.64-6.3,3.42-10.09,3.95-10.83l.05-.05c.38.4.73.82,1.06,1.27-.02.53-.35,2.28-.13,4.85Z" style="fill:#2848f9;"/><path d="M101.58,155.2h.02c.47.06.95.13,1.44.22.59.1.39.34.13.89-.39.81-1.06,1.66-1.33,1.95-.22.23-.59.39-.68.7-.38,1.19-.1,10.31-1.02,14.62l.05.42c5.36-.58,10.03.36,11.31,2.49.6,1.01,1.52.62,5.39.62.22-.01,11.82-.17,18,6.33l-.05.05c-.53.74-3.31,4.53-3.95,10.83-.02.32.11.52.37.62l-.09.51c-1.17,1.57-4.41,4.66-8.37,19.4-1.94,7.19-2.12,10.21-3.57,20.39l-.04.19h-.03c-4.2-1.09-8.16-2.53-11.49-4.11-1.59-.76-3.04-1.54-4.3-2.32.91-8.69,3.17-18.58,3.64-20.44,2.62-10.44,5.93-14.41,7.31-16.36v-.13c-5.92-.63-7.68-.9-14.6-2.66-.87-.22-6.55-1.67-10.66-3.92-8.44-4.6,3.91-21.86,3.45-25.26-.27-2.05-.78-2.11,1.63-5.05,0,0,.07-.07.12-.16.14-.01.27-.02.27-.02.2-.02.69-.04,1.38-.06,1.32-.03,3.4-.02,5.67.26Z" style="fill:#2848f9;"/><path d="M134.74,26.96h-.19c-1.21.8-3.55,1.85-4.06.25-.25-.8,1.34-2.45,3.79-2.07h.35c0,.68-.01,1.49.11,1.82Z" style="fill:#838afa;"/><path d="M133.75,197.67c.58.66.47,2.02-1.08,1.62-1.07-.29-.71-2.51,1.08-1.62Z" style="fill:#2848f9;"/><path d="M132.55,307.55l-.1.02c-.03.43-.05.84-.08,1.24l-.03.48c-.89-.55-1.45-1.05-2.67-1.49-.28-2.31.16-3.97.23-4.66h.02s0,.03.01.04c.59.95,1.02.94,1.58,1.88.56.93.87,1.75,1.04,2.49Z" style="fill:#838afa;"/><path d="M130.51,203.68c.27.08.73,1.36,0,1.86-.3.2-.82.13-1.2-.1-.35-.22-.59-.58-.44-1,.42-1.18.85-.89,1.52-.81.06.03.12.05.12.05Z" style="fill:#2848f9;"/><path d="M128,24.55l.9,2.04c-1,.55-4.76,2.86-5.8.19-.54-1.37,1.41-4.98,4.69-4.07,1.82.52.35,1.68.21,1.84Z" style="fill:#838afa;"/><path d="M127.99,211.21c.94.11.46,1.37.2,1.62-.06.05-.84.41-1.33.09-.26-.17-.43-.5-.39-1.16.03-.7,1.07-1.16,1.52-.55Z" style="fill:#2848f9;"/><path d="M110.81,143.28c-6.42.64-12.28,1.16-12.86,1.2-3.32.24-5.84.35-7.8.4-4.58.14-6.06,0-7.43.77h-.01c-.13-1.29-.28-2.66-.45-4.09-1.55-13.09-4.61-31.95-5.7-47.69-1.55-22.11-1.21-22.24,2.7-34.24v-.38c1.79.03,3.64.1,5.52.19,5.15.27,11.03-1.07,21.15-2.72h.07c-.35,1.5-.72,3.06-1.09,4.68l.33.27c-6.4,7.69-11,18.02-11.54,31.68-.88,21.92,14.72,40.94,34.12,47.97l-.04.11c-2.01.35-9.84,1.16-16.97,1.85Z" style="fill:#838afa;"/><path d="M126.41,219.84c.29.39.19,1.01,0,1.19-.32.34-1.05.47-1.49.06-.09-.09-.18-.22-.24-.39-.34-.91.99-1.38,1.73-.86Z" style="fill:#2848f9;"/><path d="M124.91,228.34c1.2,1.37-.01,2.23-1.04,1.94-.14-.04-.29-.11-.43-.2-.9-.64.38-2.45,1.16-1.95,0,0,.18.12.31.21Z" style="fill:#2848f9;"/><path d="M123.36,336.58v.03c-.11.47-.26.64-.56.83-4.66,2.9-10.3.97-11.56.26-.92-.54-1.31-1.09-1.46-1.78-.18-.71-.08-1.56-.1-2.68h.03c.09.67.37,1.36.96,2.05,1.86,2.18,8.61,3.06,11.91.13.4-.35.63-.76.76-1.2l.11.03c.07.32.11.31.08.63-.04.82-.1,1.35-.17,1.7Z" style="fill:#2848f9;"/><path d="M121.76,328.2c-.05.84,2.2,3.83,1.58,6.02-.13.44-.36.85-.76,1.2-3.3,2.93-10.05,2.05-11.91-.13-.59-.69-.87-1.38-.96-2.05-.37-2.54,2.04-4.89,1.73-6.03l2.68-.41c.02.09.05.19.08.28,1.22,3.38,6.86,3.11,7.68.02h.02c-.06.31-.11.68-.14,1.1Z" style="fill:#2848f9;"/><path d="M123.36,336.61c-.13,1.55-.12,2.88-.8,3.21-.83.41-5.46,2.7-11.48.25-1.71-.69-1.24-2.28-1.41-4.11l.11-.04c.15.69.54,1.24,1.46,1.78,1.26.71,6.9,2.64,11.56-.26.3-.19.45-.36.56-.83Z" style="fill:#838afa;"/><path d="M121.85,309.29c1,5.96,1.91,6.66.25,11.67l-.52.03c-1.06-2.96-4.11-4.23-7.37-1.03l.07.07c-.81.49-1.04.63-1.85.87l-.03-.11c.27-.87,1.31-4.12,1.45-11.36l.03-.14c.09.03.18.04.26.05,3.23.46,5.86.19,7.68-.19l.03.14Z" style="fill:#fff;"/><path d="M114.12,326.8l-2.68.41c-.73-2.59-.94-2.66.07-6.07.38-.09.67-.18.92-.24.81-.24,1.04-.38,1.85-.87l-.07-.07c3.26-3.2,6.31-1.93,7.37,1.03.2.57.34,1.2.38,1.88.09,1.53-.17,1.52,0,3.04.05.43.02.84-.08,1.19-.82,3.09-6.46,3.36-7.68-.02-.03-.09-.06-.19-.08-.28Z" style="fill:#2848f9;"/><path d="M111.94,24.12l2.93,1.49c-3.4,6.16-5.36,15.83-8.87,31.12h-.07c-10.12,1.64-16,2.98-21.15,2.71-1.88-.09-3.73-.16-5.52-.19-8.8-.17-16.36.38-22.53,1.16l-.28-2.24c1.08-.14,9.56-1.24,12.61-2.1,3.24-.92,10.58-4.99,6.25-11.3-.49-.71-1.01-1.24-1.55-1.63l.06-.08c9.92-1.9,28.39-4.51,33.12-10.3,1.85-2.27,3.28-5.5,5-8.64Z" style="fill:#838afa;"/><path d="M110.81,143.28c-4.96,3.9-5.4,3.28-6.01,3.91-.08.08.02.11-3.2,8.01h-.02c-2.27-.28-4.35-.29-5.67-.26v-.22c1.23-2.93,1.26-3.08,3.51-7.05-4.55-.4-5.5-.78-9.25-2.35l-.02-.44c1.96-.05,4.48-.16,7.8-.4.58-.04,6.44-.56,12.86-1.2Z" style="fill:#fff;"/><path d="M82.72,145.65l-.15.09c-5.66,3.46-22.17,4.71-31.45,3.92-4.48-.38-6.39-2.02-7.36-5.48l.16-.05c3.05.11,11.71.44,38.06-2.55l.28-.02c.17,1.43.32,2.8.45,4.08h.01Z" style="fill:#838afa;"/><path d="M82.26,141.56l-.28.02c-26.35,2.99-35.01,2.66-38.06,2.55l-.16.05c-.99-3.51-1.02-8.88-1.81-16.71-2.32-22.87-6.23-45.41-3.35-62.6.05-.28.09-.56.14-.82,2.03-.59,8.27-2.42,17.99-3.64,6.17-.78,13.73-1.33,22.53-1.16v.38c-3.91,12-4.25,12.13-2.7,34.24,1.09,15.74,4.15,34.6,5.7,47.69Z" style="fill:#838afa;"/><path d="M56.45,58.17l.28,2.24c-9.72,1.22-15.96,3.05-17.99,3.64,1.1-6.95,1.8-14.48,16.77-19.06,3.25-1,7.16-1.85,11.9-2.52.2-.03.41-.06.62-.1,1.86-.27,3.91-.54,5.73.77.54.39,1.06.92,1.55,1.63,4.33,6.31-3.01,10.38-6.25,11.3-3.05.86-11.53,1.96-12.61,2.1ZM63.43,53.61c4.33-.29,6.18-3.3,6.05-4.92-.23-2.85-4.41-3.14-6.09-2.99-8.14.75-7.26,7.17-2.15,7.82.79.1,1.52.13,2.19.09Z" style="fill:#838afa;"/><path d="M69.48,48.69c.13,1.62-1.72,4.63-6.05,4.92-.67.04-1.4.01-2.19-.09-5.11-.65-5.99-7.07,2.15-7.82,1.68-.15,5.86.14,6.09,2.99Z" style="fill:#838afa;"/><path d="M68.02,42.32v.05c-.2.04-.41.07-.61.1-4.74.67-8.65,1.52-11.9,2.52v-.02c-.06-.68.37-3.24,5.31-4.04,5.58-.92,6.68.59,7.2,1.39Z" style="fill:#838afa;"/><path d="M139.52,189.52c-.21-.15-2.99-1.91-3.37-4.83-.03-.12-.04-.24-.04-.38-.14-2.21.76-2.66,5.13-6.43,2.72-2.33,4.52-1.79,6.23-3.22,1.07-.9,1.84-1.72,2.76-2.3,1.71-1.1,3.92-1.45,9.47-.13-.56.11-3.26.48-4.25,2.92-.99,2.45,1.02,4.63,1.08,4.71" style="fill:none; stroke:#121212; stroke-linecap:round; stroke-linejoin:round; stroke-width:.9px;"/><path d="M161.41,162.91c-1.67,2.27-1.63,2.44-1.19,7.46.03.3.02.58-.03.84-.05.36-.17.69-.32,1.02-.75,1.59-2.46,3.1-3.19,7.66-.3,1.93-.42,4.42-.23,7.69.03.42.48,1.14-1.83,2.25-.73.35-6.61,2.71-8.94,4.14" style="fill:none; stroke:#121212; stroke-linecap:round; stroke-linejoin:round; stroke-width:.9px;"/><path d="M151.38,182.14c1.55,1.11,1.77,1.84,1.98,2.35" style="fill:none; stroke:#121212; stroke-linecap:round; stroke-linejoin:round; stroke-width:.9px;"/><path d="M153.36,180.18c1.27.28,1.6.27,2.69,1.45" style="fill:none; stroke:#121212; stroke-linecap:round; stroke-linejoin:round; stroke-width:.9px;"/><path d="M152.24,172.73c.74.86.93,1.29.66,2.72" style="fill:none; stroke:#121212; stroke-linecap:round; stroke-linejoin:round; stroke-width:.9px;"/><path d="M149.81,175.99c-.37.26-.75.52-1.14.77" style="fill:none; stroke:#121212; stroke-linecap:round; stroke-linejoin:round; stroke-width:.9px;"/><path d="M150.63,178.05c-1.14.77-1.16,1.04-2.46.7-2.67-.72-3.5-.16-3.8,1.52" style="fill:none; stroke:#121212; stroke-linecap:round; stroke-linejoin:round; stroke-width:.9px;"/><line x1="145.06" y1="181.37" x2="145.07" y2="181.98" style="fill:none; stroke:#121212; stroke-linecap:round; stroke-linejoin:round; stroke-width:.9px;"/><path d="M140.65,181.01c1.5,1.57,1.74,2.41,1.62,5.45" style="fill:none; stroke:#121212; stroke-linecap:round; stroke-linejoin:round; stroke-width:.9px;"/><path d="M154.34,143.32c2.93,3.72,4.11,2.35,5.78,4.47.27.35,1.31,10.75,1.87,15.08.04.29.08.54.11.78" style="fill:none; stroke:#121212; stroke-linecap:round; stroke-linejoin:round; stroke-width:.9px;"/><path d="M158.63,141.79c2.17.07,2.72.2,4.29,1.66" style="fill:none; stroke:#121212; stroke-linecap:round; stroke-linejoin:round; stroke-width:.9px;"/><path d="M169.38,138.83c-.48,4.37-1,4.38-3.15,6.93-.09.11-.19.22-.28.33" style="fill:none; stroke:#121212; stroke-linecap:round; stroke-linejoin:round; stroke-width:.9px;"/><path d="M166.3,145.83c.57,5.89.59,6.2,1.54,9.36.64,2.13.87,2.44,1.84,6.77.02.14.06.3.09.45" style="fill:none; stroke:#121212; stroke-linecap:round; stroke-linejoin:round; stroke-width:.9px;"/><path d="M162.31,163.64c3.28.55,4.89.38,7.51-1.04" style="fill:none; stroke:#121212; stroke-linecap:round; stroke-linejoin:round; stroke-width:.9px;"/><path d="M150.17,211.12c.61.14,1.08.21,1.43.2,1.09,0,1.4-.5,2.43-.57,2.29-.16,3.2-.84,5.56-2.47.33-.36.58-.64.58-.64.31-.34,2.7-2.95,3.42-4.73,1.57-3.82,3.49-2.83,5.31-5.83,4.41-7.26,4.78-10.02,5.38-14.31,1.2-8.48-2.61-9.51-3.1-11.89-.11-.54,1.29-5.97-1.35-8.95" style="fill:none; stroke:#121212; stroke-linecap:round; stroke-linejoin:round; stroke-width:.9px;"/><path d="M101.58,155.2c-2.27-.28-4.35-.29-5.67-.26-.69.02-1.18.04-1.38.06,0,0-.13,0-.27.02-.05.09-.12.16-.12.16-2.41,2.94-1.9,3-1.63,5.05.46,3.4-11.89,20.66-3.45,25.26,4.11,2.25,9.79,3.7,10.66,3.92,6.92,1.76,8.68,2.03,14.61,2.66.39.06.79.1,1.21.14" style="fill:none; stroke:#121212; stroke-linecap:round; stroke-linejoin:round; stroke-width:.9px;"/><path d="M100.14,173.58c.92-4.31.64-13.43,1.02-14.62.09-.31.46-.47.68-.7.27-.29.94-1.14,1.33-1.95.26-.55.46-.79-.13-.89-.49-.09-.97-.16-1.44-.22" style="fill:none; stroke:#121212; stroke-linecap:round; stroke-linejoin:round; stroke-width:.9px;"/><path d="M97.03,174.51c1.06-.22,2.12-.39,3.16-.51,5.36-.58,10.03.36,11.31,2.49.6,1.01,1.52.62,5.39.62.22-.01,11.82-.17,18,6.33.38.4.73.82,1.06,1.27-.02.53-.35,2.28-.13,4.85.04.36.35,4.1.17,4.45,0,0-.01,0-.02.01-.19.08-1.67.61-2.55.8-.94.19-1.72.29-2.16.12-.26-.1-.39-.3-.37-.62.64-6.3,3.42-10.09,3.95-10.83" style="fill:none; stroke:#121212; stroke-linecap:round; stroke-linejoin:round; stroke-width:.9px;"/><path d="M136.03,194.03v-.03" style="fill:none; stroke:#121212; stroke-linecap:round; stroke-linejoin:round; stroke-width:.9px;"/><path d="M135.97,194.02s.03,0,.05.01h.01c4.41-.23,6.13-.47,9.74-.19-.04.03-.07.06-.12.09-1.19.85-2.32,1.77-4.04,2.76-.88.5-3.61,1.93-4.52,2.26-1.02.37-1.61.2-1.62.17-.48-1.11.43-4.62.55-5.09" style="fill:none; stroke:#121212; stroke-linecap:round; stroke-linejoin:round; stroke-width:.9px;"/><path d="M131.17,195.45c-1.17,1.57-4.41,4.66-8.37,19.4-1.94,7.19-2.12,10.21-3.57,20.39" style="fill:none; stroke:#121212; stroke-linecap:round; stroke-linejoin:round; stroke-width:.9px;"/><path d="M114.32,192.2c-1.38,1.95-4.69,5.92-7.31,16.36-.47,1.86-2.73,11.75-3.64,20.44,1.26.78,2.71,1.56,4.3,2.32,3.33,1.58,7.29,3.02,11.49,4.11h.03c5.68,1.5,11.87,2.34,15.95,2.59,2.83.19,5.03.26,6.77.26,3.93.03,5.39-.27,6.12-.44,1.48-8.12.88-10.46,1.41-20.07.19-3.44.47-3.39,2.16-6.38" style="fill:none; stroke:#121212; stroke-linecap:round; stroke-linejoin:round; stroke-width:.9px;"/><path d="M95.9,154.72c1.24-2.93,1.27-3.08,3.52-7.05-4.55-.4-5.5-.78-9.25-2.35" style="fill:none; stroke:#121212; stroke-linecap:round; stroke-linejoin:round; stroke-width:.9px;"/><path d="M110.84,143.26s-.02.02-.03.02c-4.96,3.9-5.4,3.28-6.01,3.91-.08.08.02.11-3.2,8.01h-.02" style="fill:none; stroke:#121212; stroke-linecap:round; stroke-linejoin:round; stroke-width:.9px;"/><path d="M107.6,231.47c-.72,3.28-5.09,17.36-1.82,34.15.85,4.36,2.88,5.81,3.11,6.79.61,2.61-1.53,3.53,1.21,5.8" style="fill:none; stroke:#121212; stroke-linecap:round; stroke-linejoin:round; stroke-width:.9px;"/><path d="M113.73,273.48c-1.38,1.75-2.43,3.38-3.22,4.94-3.48,6.78-2.05,12.28-.51,22.01.01.05.02.12.03.18" style="fill:none; stroke:#121212; stroke-linecap:round; stroke-linejoin:round; stroke-width:.9px;"/><path d="M127.21,251.29c-.26.61-.65,1.43-1.04,2.37-1.01,2.3-2.18,5.26-2.38,7.24" style="fill:none; stroke:#121212; stroke-linecap:round; stroke-linejoin:round; stroke-width:.9px;"/><path d="M123.3,259.25c.06.39.16.97.27,1.69.72,4.43,2.35,14.47,2.15,22.43-.36,14.77-.71,14.66-1.17,24.99-.21.07-1.17.48-2.73.79-1.82.38-4.45.65-7.68.19-.08-.01-.17-.02-.26-.05-4.52-.72-7.54-3.34-7.94-3.66,2.09-2.67,2.05-2.63,4.06-5.2l.02-.02" style="fill:none; stroke:#121212; stroke-linecap:round; stroke-linejoin:round; stroke-width:.9px;"/><path d="M127.25,251.19c1.39-.85,2.64-1.87,5.36-3.08" style="fill:none; stroke:#121212; stroke-linecap:round; stroke-linejoin:round; stroke-width:.9px;"/><path d="M126.29,253.71h0c-.01.7-1.41,12.13,9.59,25.53-2.06,5.84-1.73,11.35-.97,14.46.16.64.33,1.18.5,1.59,1.15,2.75,3.75,5.38,6.52,7.39,1.26.92,2.56,1.7,3.78,2.31.4.14.79.3,1.17.45.04-3.56.08-7.04.08-7.65" style="fill:none; stroke:#121212; stroke-linecap:round; stroke-linejoin:round; stroke-width:.9px;"/><path d="M113.85,309.43c-.14,7.24-1.18,10.49-1.45,11.36" style="fill:none; stroke:#121212; stroke-linecap:round; stroke-linejoin:round; stroke-width:.9px;"/><path d="M121.85,309.29c1,5.96,1.91,6.66.25,11.67" style="fill:none; stroke:#121212; stroke-linecap:round; stroke-linejoin:round; stroke-width:.9px;"/><path d="M114.21,319.96c3.26-3.2,6.31-1.93,7.37,1.03.2.57.34,1.2.38,1.88.09,1.53-.17,1.52,0,3.04.05.43.02.84-.08,1.19-.82,3.09-6.46,3.36-7.68-.02-.03-.09-.06-.19-.08-.28-.51-1.95,1.13-3.52,1.03-5.22" style="fill:none; stroke:#121212; stroke-linecap:round; stroke-linejoin:round; stroke-width:.9px;"/><path d="M111.51,321.14c.38-.09.67-.18.92-.24.81-.24,1.04-.38,1.85-.87" style="fill:none; stroke:#121212; stroke-linecap:round; stroke-linejoin:round; stroke-width:.9px;"/><path d="M111.51,321.14c-1.01,3.41-.8,3.48-.07,6.07.31,1.14-2.1,3.49-1.73,6.03.09.67.37,1.36.96,2.05,1.86,2.18,8.61,3.06,11.91.13.4-.35.63-.76.76-1.2.62-2.19-1.63-5.18-1.58-6.02.03-.42.08-.79.14-1.1.35-1.73,1-2.3.01-5.83" style="fill:none; stroke:#121212; stroke-linecap:round; stroke-linejoin:round; stroke-width:.9px;"/><path d="M123.36,336.58c.07-.35.13-.88.17-1.7.03-.32-.01-.31-.08-.63" style="fill:none; stroke:#121212; stroke-linecap:round; stroke-linejoin:round; stroke-width:.9px;"/><path d="M109.68,333.24c.02,1.12-.08,1.97.1,2.68.15.69.54,1.24,1.46,1.78,1.26.71,6.9,2.64,11.56-.26.3-.19.45-.36.56-.83" style="fill:none; stroke:#121212; stroke-linecap:round; stroke-linejoin:round; stroke-width:.9px;"/><path d="M134.97,293.64s-.04.04-.06.06c-.65.79-1.43,1.57-2.01,2.41" style="fill:none; stroke:#121212; stroke-linecap:round; stroke-linejoin:round; stroke-width:.9px;"/><path d="M144.12,311.04c.32.48,2.04,2.84,1.9,4.67-.04.8-.46,1.48-1.49,1.88-4.51,1.73-10.32-.69-10.6-6.92-.17-3.49.75-3.9-2.75-8.88-.17-.25-.3-.45-.39-.67-.39-.98.13-1.93,1.9-5.38.02.11.04.24.06.39.21,1.58.48,5.48,3.51,7.77.08.06.16.08.26.08.5,0,1.39-.59,3.68-.17.14.02,1.09.19,1.69.57.19.12.34.24.44.4.02.03.25,1.54,1.94,2.88.14.12,1.34,1.07,1.28,1.78-.05.66-.64,1.17-1.47,1.44-2.01.64-5.42-.13-5.99-3.63-.02-.14-.04-.28-.06-.43" style="fill:none; stroke:#121212; stroke-linecap:round; stroke-linejoin:round; stroke-width:.9px;"/><path d="M141.9,302.77c0,.32-.05.63,0,1.6" style="fill:none; stroke:#121212; stroke-linecap:round; stroke-linejoin:round; stroke-width:.9px;"/><path d="M130.43,301.21c-.23.7-.57,1.66-.51,1.93,0,.02,0,.03.01.04.59.95,1.02.94,1.58,1.88.56.93.87,1.75,1.04,2.49.55,2.31-.2,4.11.89,7.34.69,2.06,3.12,4.01,5.24,4.48,1.16.26,3.77,1.07,6.75-.59.1-.06.19-.17.28-.32.35-.66.48-2.04.33-2.75" style="fill:none; stroke:#121212; stroke-linecap:round; stroke-linejoin:round; stroke-width:.9px;"/><path d="M129.9,303.14c-.07.69-.51,2.35-.23,4.66,1.22.44,1.78.94,2.67,1.49" style="fill:none; stroke:#121212; stroke-linecap:round; stroke-linejoin:round; stroke-width:.9px;"/><path d="M132.45,307.57c-.03.43-.05.84-.08,1.24l-.03.48c-.36,6.37-.04,10.27,6.1,12.11.43.13,2.26.92,5.53.29,1.57-.29,1.52-1.61,1.86-3.18" style="fill:none; stroke:#121212; stroke-linecap:round; stroke-linejoin:round; stroke-width:.9px;"/><path d="M109.67,335.96c.17,1.83-.3,3.42,1.41,4.11,6.02,2.45,10.65.16,11.48-.25.68-.33.67-1.66.8-3.21v-.03s.01-.08.01-.12" style="fill:none; stroke:#121212; stroke-linecap:round; stroke-linejoin:round; stroke-width:.9px;"/><path d="M132.67,199.29c-1.07-.29-.71-2.51,1.08-1.62.58.66.47,2.02-1.08,1.62Z" style="fill:none; stroke:#121212; stroke-linecap:round; stroke-linejoin:round; stroke-width:.9px;"/><path d="M130.51,205.54c.73-.5.27-1.78,0-1.86,0,0-.06-.02-.12-.05-.67-.08-1.1-.37-1.52.81-.15.42.09.78.44,1,.38.23.9.3,1.2.1Z" style="fill:none; stroke:#121212; stroke-linecap:round; stroke-linejoin:round; stroke-width:.9px;"/><path d="M128.19,212.83c.26-.25.74-1.51-.2-1.62-.45-.61-1.49-.15-1.52.55-.04.66.13.99.39,1.16.49.32,1.27-.04,1.33-.09Z" style="fill:none; stroke:#121212; stroke-linecap:round; stroke-linejoin:round; stroke-width:.9px;"/><path d="M126.41,221.03c-.32.34-1.05.47-1.49.06-.09-.09-.18-.22-.24-.39-.34-.91.99-1.38,1.73-.86.29.39.19,1.01,0,1.19Z" style="fill:none; stroke:#121212; stroke-linecap:round; stroke-linejoin:round; stroke-width:.9px;"/><path d="M123.87,230.28c-.14-.04-.29-.11-.43-.2-.9-.64.38-2.45,1.16-1.95,0,0,.18.12.31.21,1.2,1.37-.01,2.23-1.04,1.94Z" style="fill:none; stroke:#121212; stroke-linecap:round; stroke-linejoin:round; stroke-width:.9px;"/><path d="M141.9,238.67c2.44,11.93,3.15,11.77,5.07,24.58,1.62,10.7,1.43,10.74,4.43,20.04,1.9,5.88-.95,12.06-4.94,14.29-1.12.63-2.34.94-3.56.84" style="fill:none; stroke:#121212; stroke-linecap:round; stroke-linejoin:round; stroke-width:.9px;"/><path d="M160.2,171.23v-.02c-1.65-.87-2.78-1.73-5.3-1.32-2.81.45-4.38,2.14-4.68,2.45" style="fill:none; stroke:#121212; stroke-linecap:round; stroke-linejoin:round; stroke-width:.9px;"/><path d="M152.42,168.18c4.95-.4,5.83,1.01,7.77,3.03" style="fill:none; stroke:#121212; stroke-linecap:round; stroke-linejoin:round; stroke-width:.9px;"/><path d="M155.31,114.02c5.29-2.55,15.81-16.97,9.42-28.27-4.58-8.08-8.27-10.25-14.68-11.92-6.2-1.63-17.86-1.21-24.81,10.1-8.73,14.2,5.8,41.77,30.07,30.09Z" style="fill:none; stroke:#121212; stroke-linecap:round; stroke-linejoin:round; stroke-width:.9px;"/><path d="M177.56,107.6c3.39-7.66,4.77-20.79-2.31-32.07-8.97-14.32-29.09-21.57-44.53-14.2-10.31,4.92-22.26,15.58-23.15,32.57-1.96,37.41,53.52,50.9,69.99,13.7Z" style="fill:none; stroke:#121212; stroke-linecap:round; stroke-linejoin:round; stroke-width:.9px;"/><path d="M185.56,111.85c4.27-10.11,6.01-27.72-2.85-42.6-11.26-18.9-38.93-27.06-58.34-17.31-12.94,6.5-25.78,19.2-26.69,41.64-1.14,28.13,27.35,51.09,53.68,46.2,13.72-2.55,27.09-11.08,34.2-27.93Z" style="fill:none; stroke:#121212; stroke-linecap:round; stroke-linejoin:round; stroke-width:.9px;"/><path d="M178.99,58.43c-14.36-14.27-38.62-19.31-56.44-10.32-6.16,3.11-12.3,7.52-17.31,13.56-6.4,7.69-11,18.02-11.54,31.68-.88,21.92,14.72,40.94,34.12,47.97,7.64,2.78,15.86,3.7,23.9,2.19.85-.16,1.68-.33,2.53-.54,3.65-.86,7.27-2.14,10.73-3.86,9.75-4.85,18.38-13.2,23.73-25.94,1.08-2.57,2.02-5.58,2.68-8.9.33-1.6.6-3.27.78-4.99.82-7.55.25-16.16-2.79-24.46-.43-1.17-.89-2.33-1.44-3.47-.67-1.51-1.44-2.99-2.31-4.45-1.84-3.1-4.08-5.93-6.64-8.47Z" style="fill:none; stroke:#121212; stroke-linecap:round; stroke-linejoin:round; stroke-width:.9px;"/><path d="M63.43,53.61c-.67.04-1.4.01-2.19-.09-5.11-.65-5.99-7.07,2.15-7.82,1.68-.15,5.86.14,6.09,2.99.13,1.62-1.72,4.63-6.05,4.92Z" style="fill:none; stroke:#121212; stroke-linecap:round; stroke-linejoin:round; stroke-width:.9px;"/><path d="M55.5,44.97c-.05-.68.38-3.24,5.32-4.04,5.58-.92,6.68.59,7.2,1.39" style="fill:none; stroke:#121212; stroke-linecap:round; stroke-linejoin:round; stroke-width:.9px;"/><path d="M56.34,58.18s.05,0,.11,0c1.08-.14,9.56-1.24,12.61-2.1,3.24-.92,10.58-4.99,6.25-11.3-.49-.71-1.01-1.24-1.55-1.63-1.82-1.31-3.87-1.04-5.73-.77-.21.04-.42.07-.62.1-4.74.67-8.65,1.52-11.9,2.52-14.97,4.58-15.67,12.11-16.77,19.06-.05.26-.09.54-.14.82-2.88,17.19,1.03,39.73,3.35,62.6.79,7.83.82,13.2,1.81,16.71.97,3.46,2.88,5.1,7.36,5.48,9.28.79,25.79-.46,31.45-3.92l.15-.09c1.37-.77,2.85-.63,7.43-.77,1.96-.05,4.48-.16,7.8-.4.58-.04,6.44-.56,12.86-1.2,7.13-.69,14.96-1.5,16.97-1.85" style="fill:none; stroke:#121212; stroke-linecap:round; stroke-linejoin:round; stroke-width:.9px;"/><path d="M73.82,43.06c9.92-1.9,28.39-4.51,33.12-10.3,1.85-2.27,3.28-5.5,5-8.64,2.52-4.59,5.67-8.99,11.69-9.9,0,0,.14-.02.27-.04v-.14c.02-.64-.5-3.76,1.25-4.15.53-.12,17.15-1.85,24.14-1.8,2.73.03,2.34.94,2.98,3.61,8.9-.69,12.25,11.61,19.45,17.83" style="fill:none; stroke:#121212; stroke-linecap:round; stroke-linejoin:round; stroke-width:.9px;"/><path d="M104.91,61.4c.37-1.62.74-3.18,1.09-4.67,3.51-15.29,5.47-24.96,8.87-31.12,3.99-7.2,9.97-9.54,22.75-10.29,13.85-.82,17.39-1.48,24.7,8.22,3.33,4.41,4.2,3.82,16.85,34.72" style="fill:none; stroke:#121212; stroke-linecap:round; stroke-linejoin:round; stroke-width:.9px;"/><path d="M189.69,74.7c.58.21,6.28,1.49,8.13,8.03,3.19,11.31-4.79,15.92-5.65,16.55,0,.01-.02.01-.03.02" style="fill:none; stroke:#121212; stroke-linecap:round; stroke-linejoin:round; stroke-width:.9px;"/><path d="M191.93,104.38c.9-.61,11.78-6.89,10.83-17.47-.86-9.77-7.21-12.44-11.18-14.87-.82-.5-1.28-.97-1.61-1.65-.59-1.18-.79-3.01-1.87-6.74-.78-2.67-2-6.31-4.13-11.4-.39-4.37,1.54-5.21,13.33-5.44,1.92-.03,5.67-.49,6.27.92.01.02.02.07.03.11.22,1.3.08,10.52-1.85,12.94-2.15,2.7-7.46,2.34-13.24,2.81" style="fill:none; stroke:#121212; stroke-linecap:round; stroke-linejoin:round; stroke-width:.9px;"/><path d="M165.01,139.15c1.63-.14,3.01-.29,4.35-.47,1.59-.22,3.15-.47,5.08-.73,4.75-.63,16.87-1.56,28.07-3.33,8.67-1.36,9.96-4.47,9.5-16.8-.5-13.4-.88-34.11-3.82-54.54-1.05-7.23-1.77-11.98-2.6-15.51-1.3-5.5-2.86-8.04-6.32-12.39" style="fill:none; stroke:#121212; stroke-linecap:round; stroke-linejoin:round; stroke-width:.9px;"/><path d="M79.26,59.63c-3.91,12-4.25,12.13-2.7,34.24,1.09,15.74,4.15,34.6,5.7,47.69.17,1.43.32,2.8.45,4.08" style="fill:none; stroke:#121212; stroke-linecap:round; stroke-linejoin:round; stroke-width:.9px;"/><path d="M43.92,144.13c3.05.11,11.71.44,38.06-2.55" style="fill:none; stroke:#121212; stroke-linecap:round; stroke-linejoin:round; stroke-width:.9px;"/><path d="M38.74,64.05c2.03-.59,8.27-2.42,17.99-3.64,6.17-.78,13.73-1.33,22.53-1.16,1.79.03,3.64.1,5.52.19,5.15.27,11.03-1.07,21.15-2.72" style="fill:none; stroke:#121212; stroke-linecap:round; stroke-linejoin:round; stroke-width:.9px;"/><path d="M199,35.16s-.09-.01-.17-.01t0-.02c1.15-1.13.69-1.17.38-2.4.5-.45.91-.5.3-2.11.94-.79.81-.98.3-2.08.47-.75.81-1.12-.37-1.87" style="fill:none; stroke:#121212; stroke-linecap:round; stroke-linejoin:round; stroke-width:.9px;"/><path d="M199.39,26.76c-1.42-.56-4.66-1.26-8.47-1.9-3.05-.52-6.47-1.01-9.59-1.37-3.46-.39-6.56-.62-8.41-.56-1.23.5-.97.92-.66,1.74-.69.99-.86,1.15-.08,2.1-.89,1.46-.51,1.58-.11,2.13-.12.27-.24.47-.34.64-.3.52-.41.74.09,1.55,4.28.51,24.62,3.63,27.02,4.04.07.01.13.02.16.03.05.02.08.02.08.02" style="fill:none; stroke:#121212; stroke-linecap:round; stroke-linejoin:round; stroke-width:.9px;"/><path d="M181.34,23.42c.2-1.2,1.63-.96,3.22-.72,5.85.88,6.18.83,6.38,1.83l-.02.33v.05" style="fill:none; stroke:#121212; stroke-linecap:round; stroke-linejoin:round; stroke-width:.9px;"/><path d="M189.18,50.28c0,.96-.39,5.39,2.03,4.54" style="fill:none; stroke:#fff; stroke-linecap:round; stroke-linejoin:round; stroke-width:.9px;"/><path d="M189.49,52.2c.98-.09.97-.09,1.95-.21" style="fill:none; stroke:#fff; stroke-linecap:round; stroke-linejoin:round; stroke-width:.9px;"/><path d="M189.26,50.25c.88-.03,1.08-.01,1.64-.37" style="fill:none; stroke:#fff; stroke-linecap:round; stroke-linejoin:round; stroke-width:.9px;"/><path d="M195.04,54.37c1.19-.61.73-2.77.68-3.01-.29-1.33.01-2.28-2.85-1.63-.57.48.17.9.04,2.89-.01.22-.34,1.64.88,1.86.54.1.96.05,1.25-.11Z" style="fill:none; stroke:#fff; stroke-linecap:round; stroke-linejoin:round; stroke-width:.9px;"/><path d="M199.17,49.32c-2.35-.33-1.86,1.42-1.48,1.82.16.16,1.9.96,1.36,2.02-.11.22-1.43.84-1.87-.16" style="fill:none; stroke:#fff; stroke-linecap:round; stroke-linejoin:round; stroke-width:.9px;"/><path d="M189.78,56.31c1.08-.08,1.07-.07,2.16-.14.08,2.49-.38,2.42-.96,4.83" style="fill:none; stroke:#fff; stroke-linecap:round; stroke-linejoin:round; stroke-width:.9px;"/><path d="M194.55,60.3s-.08,0-.11-.02c-1.58-.47-1.76-3.77.04-4.26,2-.55,2.48,4.85.07,4.28Z" style="fill:none; stroke:#fff; stroke-linecap:round; stroke-linejoin:round; stroke-width:.9px;"/><path d="M197.53,55.36c.97.01.96.03,1.91.05" style="fill:none; stroke:#fff; stroke-linecap:round; stroke-linejoin:round; stroke-width:.9px;"/><path d="M197.2,56.78c.56.06.55.05,1.09.01" style="fill:none; stroke:#fff; stroke-linecap:round; stroke-linejoin:round; stroke-width:.9px;"/><path d="M199.47,56.75c.65-.05.64-.04,1.29-.08" style="fill:none; stroke:#fff; stroke-linecap:round; stroke-linejoin:round; stroke-width:.9px;"/><path d="M197.27,58.15c.23-.01.47-.01.7-.02" style="fill:none; stroke:#fff; stroke-linecap:round; stroke-linejoin:round; stroke-width:.9px;"/><path d="M199.39,58.06c.75-.07.74-.08,1.49-.12" style="fill:none; stroke:#fff; stroke-linecap:round; stroke-linejoin:round; stroke-width:.9px;"/><path d="M199.45,59.21c.28-.04.56-.08.83-.11" style="fill:none; stroke:#fff; stroke-linecap:round; stroke-linejoin:round; stroke-width:.9px;"/><path d="M197.25,59.29c.3-.01.27-.01.59-.01" style="fill:none; stroke:#fff; stroke-linecap:round; stroke-linejoin:round; stroke-width:.9px;"/><path d="M197.44,60.43c.8,0,1.33-.07,2.12-.09" style="fill:none; stroke:#fff; stroke-linecap:round; stroke-linejoin:round; stroke-width:.9px;"/><path d="M128,24.55c.14-.16,1.61-1.32-.21-1.84-3.28-.91-5.23,2.7-4.69,4.07,1.04,2.67,4.8.36,5.8-.19" style="fill:none; stroke:#fff; stroke-linecap:round; stroke-linejoin:round; stroke-width:1.56px;"/><path d="M131.14,23.74c.57-.4,2.59-2.16,3.34-.02.04.11.07.22.11.35.04.21.05.62.04,1.06,0,.69-.01,1.5.11,1.83,0,.03.02.06.05.09.18.24.74.01,1.83-.38" style="fill:none; stroke:#fff; stroke-linecap:round; stroke-linejoin:round; stroke-width:1.56px;"/><path d="M134.28,25.14c-2.45-.38-4.04,1.27-3.79,2.07.51,1.6,2.85.55,4.06-.25" style="fill:none; stroke:#fff; stroke-linecap:round; stroke-linejoin:round; stroke-width:1.56px;"/><path d="M136.34,23.46c.56-.48,1.38-1.16,1.7-.84.49.5.32,1.59.49,3.94" style="fill:none; stroke:#fff; stroke-linecap:round; stroke-linejoin:round; stroke-width:1.56px;"/><path d="M138.57,24.06c.3-.34,1.92-2.11,2.53-1.69.44.3.48,1.11.49,1.21.07,1.55.18,1.54.28,3.08" style="fill:none; stroke:#fff; stroke-linecap:round; stroke-linejoin:round; stroke-width:1.56px;"/><path d="M145.04,22.15c-1.15.47-1.27,1.72-1.03,3.54.09.68,1.15,1.05,2.16.71,1.89-.63,1.59-5.5-1.1-4.26" style="fill:none; stroke:#fff; stroke-linecap:round; stroke-linejoin:round; stroke-width:1.56px;"/><path d="M148.3,22.39c.88-.53.88-.51,1.79-1,.06.14.17.26.23.4.16.4.24,3.53.36,4.69" style="fill:none; stroke:#fff; stroke-linecap:round; stroke-linejoin:round; stroke-width:1.56px;"/><path d="M150.56,22.93c2.27-2.25,2.74-1.39,2.85-1.17.51.95-.63,4.39,1.34,4.19" style="fill:none; stroke:#fff; stroke-linecap:round; stroke-linejoin:round; stroke-width:1.56px;"/><circle cx="144.68" cy="94.59" r="1.48" style="fill:#fff; stroke:#fff; stroke-linecap:round; stroke-linejoin:round; stroke-width:.9px;"/><path d="M161.81,171.9c2.39.84,4.87,1.11,7.53-.33" style="fill:none; stroke:#121212; stroke-linecap:round; stroke-linejoin:round; stroke-width:.9px;"/><path d="M92.59,160.83c2.47.15,3.66.11,6.31-1.33" style="fill:none; stroke:#121212; stroke-linecap:round; stroke-linejoin:round; stroke-width:.9px;"/><path d="M140.91,216.41c1.92-1.32,2.58-1.61,5.45-3.75" style="fill:none; stroke:#121212; stroke-linecap:round; stroke-linejoin:round; stroke-width:.9px;"/></svg>